<svg width="27" height="27" viewBox="0 0 27 27" fill="none" xmlns="http://www.w3.org/2000/svg">
<path d="M6.633 26.125H19.078C21.504 26.125 22.711 24.8945 22.711 22.457V11.8165H14.2265C12.7265 11.8165 12.0235 11.1015 12.0235 9.6015V1H6.633C4.219 1 3 2.242 3 4.68V22.457C3 24.906 4.219 26.125 6.633 26.125ZM14.262 10.211H22.582C22.5 9.7305 22.16 9.2615 21.6095 8.6875L15.1405 2.1135C14.6015 1.551 14.1095 1.211 13.617 1.1285V9.5785C13.617 10 13.84 10.211 14.262 10.211ZM8.344 16.891C7.8635 16.891 7.5235 16.551 7.5235 16.094C7.5235 15.6365 7.8635 15.297 8.3435 15.297H17.3785C17.8475 15.297 18.211 15.637 18.211 16.0935C18.211 16.551 17.8475 16.8905 17.379 16.8905L8.344 16.891ZM8.344 21.3555C7.8635 21.3555 7.5235 21.0155 7.5235 20.5585C7.5235 20.1015 7.8635 19.7615 8.3435 19.7615H17.3785C17.8475 19.7615 18.211 20.1015 18.211 20.5585C18.211 21.0155 17.8475 21.3555 17.379 21.3555H8.344Z" fill="#1C1C1C"/>
</svg>
