<svg width="27" height="27" viewBox="0 0 27 27" fill="none" xmlns="http://www.w3.org/2000/svg">
<g clip-path="url(#clip0_566_11574)">
<path d="M14.3002 26.9985L14.2854 27.0012L14.1895 27.0484L14.1625 27.0538L14.1436 27.0484L14.0478 27.0012C14.0334 26.9967 14.0226 26.9989 14.0154 27.0079L14.01 27.0214L13.987 27.5992L13.9938 27.6262L14.0073 27.6438L14.1477 27.7437L14.1679 27.7491L14.1841 27.7437L14.3245 27.6438L14.3407 27.6222L14.3461 27.5992L14.3232 27.0228C14.3196 27.0084 14.3119 27.0003 14.3002 26.9985ZM14.658 26.8459L14.6404 26.8486L14.3907 26.9742L14.3772 26.9877L14.3731 27.0025L14.3974 27.583L14.4042 27.5992L14.415 27.6087L14.6863 27.7342C14.7034 27.7387 14.7165 27.7351 14.7255 27.7234L14.7309 27.7045L14.685 26.8756C14.6805 26.8594 14.6715 26.8495 14.658 26.8459ZM13.6927 26.8486C13.6868 26.845 13.6797 26.8439 13.6729 26.8454C13.6661 26.8469 13.6602 26.8509 13.6563 26.8567L13.6482 26.8756L13.6023 27.7045C13.6032 27.7207 13.6108 27.7315 13.6252 27.7369L13.6455 27.7342L13.9168 27.6087L13.9303 27.5979L13.9357 27.583L13.9587 27.0025L13.9546 26.9863L13.9411 26.9728L13.6927 26.8486Z" fill="#1C1C1C"/>
<path d="M25.65 5.05C26.008 5.05 26.3514 5.19223 26.6046 5.44541C26.8578 5.69858 27 6.04196 27 6.4C27 6.75804 26.8578 7.10142 26.6046 7.35459C26.3514 7.60777 26.008 7.75 25.65 7.75V21.25C26.008 21.25 26.3514 21.3922 26.6046 21.6454C26.8578 21.8986 27 22.242 27 22.6C27 22.958 26.8578 23.3014 26.6046 23.5546C26.3514 23.8078 26.008 23.95 25.65 23.95H1.35C0.991958 23.95 0.64858 23.8078 0.395406 23.5546C0.142232 23.3014 0 22.958 0 22.6C0 22.242 0.142232 21.8986 0.395406 21.6454C0.64858 21.3922 0.991958 21.25 1.35 21.25V7.75C0.991958 7.75 0.64858 7.60777 0.395406 7.35459C0.142232 7.10142 0 6.75804 0 6.4C0 6.04196 0.142232 5.69858 0.395406 5.44541C0.64858 5.19223 0.991958 5.05 1.35 5.05H25.65ZM6.75 10.45C6.39196 10.45 6.04858 10.5922 5.79541 10.8454C5.54223 11.0986 5.4 11.442 5.4 11.8V21.25H8.1V11.8C8.1 11.442 7.95777 11.0986 7.70459 10.8454C7.45142 10.5922 7.10804 10.45 6.75 10.45ZM13.5 10.45C13.142 10.45 12.7986 10.5922 12.5454 10.8454C12.2922 11.0986 12.15 11.442 12.15 11.8V21.25H14.85V11.8C14.85 11.442 14.7078 11.0986 14.4546 10.8454C14.2014 10.5922 13.858 10.45 13.5 10.45ZM20.25 10.45C19.892 10.45 19.5486 10.5922 19.2954 10.8454C19.0422 11.0986 18.9 11.442 18.9 11.8V21.25H21.6V11.8C21.6 11.442 21.4578 11.0986 21.2046 10.8454C20.9514 10.5922 20.608 10.45 20.25 10.45ZM21.6 1C21.958 1 22.3014 1.14223 22.5546 1.39541C22.8078 1.64858 22.95 1.99196 22.95 2.35C22.95 2.70804 22.8078 3.05142 22.5546 3.30459C22.3014 3.55777 21.958 3.7 21.6 3.7H5.4C5.04196 3.7 4.69858 3.55777 4.44541 3.30459C4.19223 3.05142 4.05 2.70804 4.05 2.35C4.05 1.99196 4.19223 1.64858 4.44541 1.39541C4.69858 1.14223 5.04196 1 5.4 1H21.6Z" fill="#1C1C1C"/>
</g>
<defs>
<clipPath id="clip0_566_11574">
<rect width="27" height="27" fill="white"/>
</clipPath>
</defs>
</svg>
