<svg width="27" height="27" viewBox="0 0 27 27" fill="none" xmlns="http://www.w3.org/2000/svg">
<path d="M25 9.35395L24.9953 12.7872C24.9906 15.2557 23.8703 17.5635 21.9953 19.0815C22 18.9916 22 18.9018 22 18.8119V18.4336C22 15.0382 20.2656 11.8792 17.4109 10.0775L14.5891 8.29939C14.1859 8.04402 13.75 7.90215 13.3094 7.85486L11.1578 4.09532C10.8484 3.55148 11.0312 2.85632 11.5703 2.54421C12.1094 2.23209 12.7984 2.41652 13.1078 2.96036L16.7641 9.34922C16.9187 9.61878 17.2656 9.71336 17.5328 9.5573C17.8 9.40124 17.8938 9.0513 17.7391 8.78175L14.8328 3.70281C14.5234 3.15898 14.7062 2.46381 15.2453 2.1517C15.7844 1.83959 16.4688 2.02402 16.7781 2.56785L19.9656 8.1386L21.9953 11.6853L22 9.35395C22 8.51692 22.675 7.84068 23.5 7.84068C24.325 7.84068 25 8.52165 25 9.35395ZM10.9328 5.97272L12.0859 7.98255C11.4344 8.19535 10.8484 8.63042 10.4594 9.25937C10.4172 9.32558 10.3797 9.39651 10.3422 9.46745L8.9875 7.10295C8.67812 6.55912 8.86094 5.86396 9.4 5.55184C9.93906 5.23973 10.6281 5.42416 10.9375 5.968L10.9328 5.97272ZM8.75781 8.98509L10.0141 11.1793C10.0422 11.4631 10.1125 11.7374 10.2156 12.0022H7.89062L6.8125 10.1201C6.50313 9.57622 6.68594 8.88105 7.225 8.56894C7.76406 8.25683 8.45313 8.44126 8.7625 8.98509H8.75781ZM11.7297 10.0633C12.1703 9.35395 13.0938 9.14115 13.7969 9.58095L16.6188 11.359C19.0328 12.8865 20.5 15.5584 20.5 18.4336V18.8119C20.5 22.7796 17.3078 26 13.375 26H5.125C4.50156 26 4 25.494 4 24.865C4 24.2361 4.50156 23.7301 5.125 23.7301H9.4375C9.74687 23.7301 10 23.4747 10 23.1626C10 22.8505 9.74687 22.5951 9.4375 22.5951H3.625C3.00156 22.5951 2.5 22.0891 2.5 21.4602C2.5 20.8312 3.00156 20.3252 3.625 20.3252H9.4375C9.74687 20.3252 10 20.0698 10 19.7577C10 19.4456 9.74687 19.1903 9.4375 19.1903H2.125C1.50156 19.1903 1 18.6843 1 18.0553C1 17.4263 1.50156 16.9203 2.125 16.9203H9.4375C9.74687 16.9203 10 16.665 10 16.3529C10 16.0407 9.74687 15.7854 9.4375 15.7854H3.625C3.00156 15.7854 2.5 15.2794 2.5 14.6504C2.5 14.0215 3.00156 13.5155 3.625 13.5155H14.3688L12.2031 12.1488C11.5 11.7043 11.2891 10.7727 11.725 10.0633H11.7297Z" fill="#1C1C1C"/>
</svg>
