<svg width="27" height="27" viewBox="0 0 27 27" fill="none" xmlns="http://www.w3.org/2000/svg">
<path d="M5.54545 15.0713V8.81738H3.27273C2.66996 8.81738 2.09189 9.06447 1.66567 9.50429C1.23945 9.9441 1 10.5406 1 11.1626V25.234C1.00113 25.3792 1.04141 25.5212 1.11635 25.6441C1.19128 25.767 1.29789 25.8659 1.42424 25.9298C1.54597 25.9869 1.68018 26.0098 1.81324 25.996C1.9463 25.9823 2.07346 25.9325 2.18182 25.8516L6.08333 22.8888H16.2652C16.5523 22.8976 16.8381 22.8454 17.1049 22.7355C17.3717 22.6257 17.6138 22.4605 17.8162 22.2501C18.0186 22.0398 18.177 21.7888 18.2816 21.5128C18.3862 21.2367 18.4347 20.9414 18.4242 20.6452V19.7618H10.0909C8.88538 19.7618 7.72923 19.2676 6.87679 18.388C6.02435 17.5084 5.54545 16.3153 5.54545 15.0713Z" fill="#1C1C1C"/>
<path d="M22.2121 10.7718C21.3361 10.774 20.4717 10.5666 19.6865 10.1659C18.9013 9.76522 18.2169 9.18218 17.6869 8.46256C17.1569 7.74293 16.7958 6.90632 16.6319 6.01842C16.468 5.13052 16.5058 4.2155 16.7424 3.34521H10.0908C9.48808 3.34521 8.91 3.5923 8.48378 4.03212C8.05756 4.47194 7.81812 5.06846 7.81812 5.69045V15.0714C7.81812 15.6934 8.05756 16.2899 8.48378 16.7297C8.91 17.1696 9.48808 17.4166 10.0908 17.4166H20.356L23.9772 20.3169C24.0849 20.399 24.2117 20.4503 24.3448 20.4654C24.4778 20.4805 24.6124 20.4589 24.7348 20.4029C24.8637 20.3395 24.9726 20.2399 25.049 20.1154C25.1254 19.9909 25.1662 19.8467 25.1666 19.6993V9.88843C24.28 10.4595 23.2572 10.7653 22.2121 10.7718Z" fill="#1C1C1C"/>
<path d="M22.2122 8.81746C24.3042 8.81746 26.0001 7.06746 26.0001 4.90873C26.0001 2.75 24.3042 1 22.2122 1C20.1202 1 18.4243 2.75 18.4243 4.90873C18.4243 7.06746 20.1202 8.81746 22.2122 8.81746Z" fill="#1C1C1C"/>
</svg>
