<svg width="361" height="284" viewBox="0 0 361 284" fill="none" xmlns="http://www.w3.org/2000/svg">
<path d="M22.86 27.63H51.93V41.4H22.86V27.63ZM24.12 63H6.3V-4.29153e-06H55.71V13.77H24.12V63ZM86.6595 63.81C81.3195 63.81 76.5795 62.73 72.4395 60.57C68.2995 58.41 65.0295 55.44 62.6295 51.66C60.2895 47.82 59.1195 43.44 59.1195 38.52C59.1195 33.6 60.2895 29.25 62.6295 25.47C65.0295 21.69 68.2995 18.75 72.4395 16.65C76.5795 14.49 81.3195 13.41 86.6595 13.41C91.9995 13.41 96.7395 14.49 100.879 16.65C105.079 18.75 108.349 21.69 110.689 25.47C113.029 29.25 114.199 33.6 114.199 38.52C114.199 43.44 113.029 47.82 110.689 51.66C108.349 55.44 105.079 58.41 100.879 60.57C96.7395 62.73 91.9995 63.81 86.6595 63.81ZM86.6595 50.22C88.6395 50.22 90.3795 49.77 91.8795 48.87C93.4395 47.97 94.6695 46.65 95.5695 44.91C96.4695 43.11 96.9195 40.98 96.9195 38.52C96.9195 36.06 96.4695 33.99 95.5695 32.31C94.6695 30.57 93.4395 29.25 91.8795 28.35C90.3795 27.45 88.6395 27 86.6595 27C84.7395 27 82.9995 27.45 81.4395 28.35C79.9395 29.25 78.7095 30.57 77.7495 32.31C76.8495 33.99 76.3995 36.06 76.3995 38.52C76.3995 40.98 76.8495 43.11 77.7495 44.91C78.7095 46.65 79.9395 47.97 81.4395 48.87C82.9995 49.77 84.7395 50.22 86.6595 50.22ZM143.901 63.81C137.661 63.81 132.801 62.28 129.321 59.22C125.841 56.1 124.101 51.42 124.101 45.18V3.33H141.201V45C141.201 46.74 141.681 48.12 142.641 49.14C143.601 50.1 144.831 50.58 146.331 50.58C148.371 50.58 150.111 50.07 151.551 49.05L155.781 61.02C154.341 61.98 152.571 62.67 150.471 63.09C148.371 63.57 146.181 63.81 143.901 63.81ZM116.991 28.8V16.02H152.361V28.8H116.991ZM185.449 63.81C180.109 63.81 175.369 62.73 171.229 60.57C167.089 58.41 163.819 55.44 161.419 51.66C159.079 47.82 157.909 43.44 157.909 38.52C157.909 33.6 159.079 29.25 161.419 25.47C163.819 21.69 167.089 18.75 171.229 16.65C175.369 14.49 180.109 13.41 185.449 13.41C190.789 13.41 195.529 14.49 199.669 16.65C203.869 18.75 207.139 21.69 209.479 25.47C211.819 29.25 212.989 33.6 212.989 38.52C212.989 43.44 211.819 47.82 209.479 51.66C207.139 55.44 203.869 58.41 199.669 60.57C195.529 62.73 190.789 63.81 185.449 63.81ZM185.449 50.22C187.429 50.22 189.169 49.77 190.669 48.87C192.229 47.97 193.459 46.65 194.359 44.91C195.259 43.11 195.709 40.98 195.709 38.52C195.709 36.06 195.259 33.99 194.359 32.31C193.459 30.57 192.229 29.25 190.669 28.35C189.169 27.45 187.429 27 185.449 27C183.529 27 181.789 27.45 180.229 28.35C178.729 29.25 177.499 30.57 176.539 32.31C175.639 33.99 175.189 36.06 175.189 38.52C175.189 40.98 175.639 43.11 176.539 44.91C177.499 46.65 178.729 47.97 180.229 48.87C181.789 49.77 183.529 50.22 185.449 50.22ZM238.64 63.81C234.5 63.81 230.45 63.33 226.49 62.37C222.59 61.41 219.44 60.21 217.04 58.77L222.17 47.07C224.45 48.45 227.12 49.56 230.18 50.4C233.24 51.18 236.24 51.57 239.18 51.57C242.06 51.57 244.04 51.27 245.12 50.67C246.26 50.07 246.83 49.26 246.83 48.24C246.83 47.28 246.29 46.59 245.21 46.17C244.19 45.69 242.81 45.33 241.07 45.09C239.39 44.85 237.53 44.58 235.49 44.28C233.45 43.98 231.38 43.59 229.28 43.11C227.24 42.57 225.35 41.79 223.61 40.77C221.93 39.69 220.58 38.25 219.56 36.45C218.54 34.65 218.03 32.37 218.03 29.61C218.03 26.49 218.93 23.73 220.73 21.33C222.59 18.87 225.29 16.95 228.83 15.57C232.37 14.13 236.69 13.41 241.79 13.41C245.21 13.41 248.66 13.77 252.14 14.49C255.68 15.15 258.65 16.17 261.05 17.55L255.92 29.16C253.52 27.78 251.12 26.85 248.72 26.37C246.32 25.83 244.04 25.56 241.88 25.56C239 25.56 236.96 25.89 235.76 26.55C234.62 27.21 234.05 28.02 234.05 28.98C234.05 29.94 234.56 30.69 235.58 31.23C236.6 31.71 237.95 32.1 239.63 32.4C241.37 32.64 243.26 32.91 245.3 33.21C247.34 33.45 249.38 33.84 251.42 34.38C253.52 34.92 255.41 35.73 257.09 36.81C258.83 37.83 260.21 39.24 261.23 41.04C262.25 42.78 262.76 45.03 262.76 47.79C262.76 50.79 261.83 53.49 259.97 55.89C258.17 58.29 255.47 60.21 251.87 61.65C248.33 63.09 243.92 63.81 238.64 63.81ZM336.306 63.81C330.546 63.81 325.506 62.73 321.186 60.57C316.926 58.35 313.596 55.35 311.196 51.57C308.856 47.73 307.686 43.38 307.686 38.52C307.686 33.66 308.826 29.34 311.106 25.56C313.446 21.72 316.656 18.75 320.736 16.65C324.816 14.49 329.406 13.41 334.506 13.41C339.306 13.41 343.686 14.4 347.646 16.38C351.606 18.3 354.756 21.15 357.096 24.93C359.436 28.71 360.606 33.3 360.606 38.7C360.606 39.3 360.576 39.99 360.516 40.77C360.456 41.55 360.396 42.27 360.336 42.93H321.726V33.93H351.246L344.766 36.45C344.826 34.23 344.406 32.31 343.506 30.69C342.666 29.07 341.466 27.81 339.906 26.91C338.406 26.01 336.636 25.56 334.596 25.56C332.556 25.56 330.756 26.01 329.196 26.91C327.696 27.81 326.526 29.1 325.686 30.78C324.846 32.4 324.426 34.32 324.426 36.54V39.15C324.426 41.55 324.906 43.62 325.866 45.36C326.886 47.1 328.326 48.45 330.186 49.41C332.046 50.31 334.266 50.76 336.846 50.76C339.246 50.76 341.286 50.43 342.966 49.77C344.706 49.05 346.416 47.97 348.096 46.53L357.096 55.89C354.756 58.47 351.876 60.45 348.456 61.83C345.036 63.15 340.986 63.81 336.306 63.81ZM6.3 173V110H35.1C40.86 110 45.81 110.93 49.95 112.79C54.15 114.65 57.39 117.35 59.67 120.89C61.95 124.37 63.09 128.51 63.09 133.31C63.09 138.05 61.95 142.16 59.67 145.64C57.39 149.06 54.15 151.7 49.95 153.56C45.81 155.36 40.86 156.26 35.1 156.26H16.2L24.12 148.79V173H6.3ZM45.27 173L29.61 150.05H48.6L64.35 173H45.27ZM24.12 150.68L16.2 142.49H34.02C37.74 142.49 40.5 141.68 42.3 140.06C44.16 138.44 45.09 136.19 45.09 133.31C45.09 130.37 44.16 128.09 42.3 126.47C40.5 124.85 37.74 124.04 34.02 124.04H16.2L24.12 115.85V150.68ZM97.6711 173.81C91.9111 173.81 86.8711 172.73 82.5511 170.57C78.2911 168.35 74.9611 165.35 72.5611 161.57C70.2211 157.73 69.0511 153.38 69.0511 148.52C69.0511 143.66 70.1911 139.34 72.4711 135.56C74.8111 131.72 78.0211 128.75 82.1011 126.65C86.1811 124.49 90.7711 123.41 95.8711 123.41C100.671 123.41 105.051 124.4 109.011 126.38C112.971 128.3 116.121 131.15 118.461 134.93C120.801 138.71 121.971 143.3 121.971 148.7C121.971 149.3 121.941 149.99 121.881 150.77C121.821 151.55 121.761 152.27 121.701 152.93H83.0911V143.93H112.611L106.131 146.45C106.191 144.23 105.771 142.31 104.871 140.69C104.031 139.07 102.831 137.81 101.271 136.91C99.7711 136.01 98.0011 135.56 95.9611 135.56C93.9211 135.56 92.1211 136.01 90.5611 136.91C89.0611 137.81 87.8911 139.1 87.0511 140.78C86.2111 142.4 85.7911 144.32 85.7911 146.54V149.15C85.7911 151.55 86.2711 153.62 87.2311 155.36C88.2511 157.1 89.6911 158.45 91.5511 159.41C93.4111 160.31 95.6311 160.76 98.2111 160.76C100.611 160.76 102.651 160.43 104.331 159.77C106.071 159.05 107.781 157.97 109.461 156.53L118.461 165.89C116.121 168.47 113.241 170.45 109.821 171.83C106.401 173.15 102.351 173.81 97.6711 173.81ZM153.705 191.27C149.025 191.27 144.555 190.73 140.295 189.65C136.095 188.57 132.495 186.98 129.495 184.88L135.705 172.91C137.745 174.53 140.265 175.79 143.265 176.69C146.325 177.65 149.295 178.13 152.175 178.13C156.795 178.13 160.125 177.11 162.165 175.07C164.205 173.09 165.225 170.18 165.225 166.34V160.58L166.125 146.9L166.035 133.13V124.22H182.325V164.09C182.325 173.33 179.835 180.17 174.855 184.61C169.875 189.05 162.825 191.27 153.705 191.27ZM150.735 170.48C146.415 170.48 142.425 169.52 138.765 167.6C135.165 165.62 132.255 162.89 130.035 159.41C127.875 155.87 126.795 151.7 126.795 146.9C126.795 142.1 127.875 137.96 130.035 134.48C132.255 130.94 135.165 128.21 138.765 126.29C142.425 124.37 146.415 123.41 150.735 123.41C154.875 123.41 158.415 124.25 161.355 125.93C164.295 127.55 166.515 130.1 168.015 133.58C169.575 137.06 170.355 141.5 170.355 146.9C170.355 152.3 169.575 156.74 168.015 160.22C166.515 163.7 164.295 166.28 161.355 167.96C158.415 169.64 154.875 170.48 150.735 170.48ZM154.785 156.89C156.825 156.89 158.625 156.47 160.185 155.63C161.805 154.79 163.065 153.62 163.965 152.12C164.925 150.62 165.405 148.88 165.405 146.9C165.405 144.92 164.925 143.18 163.965 141.68C163.065 140.18 161.805 139.04 160.185 138.26C158.625 137.42 156.825 137 154.785 137C152.745 137 150.915 137.42 149.295 138.26C147.675 139.04 146.385 140.18 145.425 141.68C144.525 143.18 144.075 144.92 144.075 146.9C144.075 148.88 144.525 150.62 145.425 152.12C146.385 153.62 147.675 154.79 149.295 155.63C150.915 156.47 152.745 156.89 154.785 156.89ZM193.312 173V124.22H210.412V173H193.312ZM201.862 118.82C198.742 118.82 196.222 117.95 194.302 116.21C192.382 114.47 191.422 112.31 191.422 109.73C191.422 107.15 192.382 104.99 194.302 103.25C196.222 101.51 198.742 100.64 201.862 100.64C204.982 100.64 207.502 101.48 209.422 103.16C211.342 104.78 212.302 106.88 212.302 109.46C212.302 112.16 211.342 114.41 209.422 116.21C207.562 117.95 205.042 118.82 201.862 118.82ZM239.255 173.81C235.115 173.81 231.065 173.33 227.105 172.37C223.205 171.41 220.055 170.21 217.655 168.77L222.785 157.07C225.065 158.45 227.735 159.56 230.795 160.4C233.855 161.18 236.855 161.57 239.795 161.57C242.675 161.57 244.655 161.27 245.735 160.67C246.875 160.07 247.445 159.26 247.445 158.24C247.445 157.28 246.905 156.59 245.825 156.17C244.805 155.69 243.425 155.33 241.685 155.09C240.005 154.85 238.145 154.58 236.105 154.28C234.065 153.98 231.995 153.59 229.895 153.11C227.855 152.57 225.965 151.79 224.225 150.77C222.545 149.69 221.195 148.25 220.175 146.45C219.155 144.65 218.645 142.37 218.645 139.61C218.645 136.49 219.545 133.73 221.345 131.33C223.205 128.87 225.905 126.95 229.445 125.57C232.985 124.13 237.305 123.41 242.405 123.41C245.825 123.41 249.275 123.77 252.755 124.49C256.295 125.15 259.265 126.17 261.665 127.55L256.535 139.16C254.135 137.78 251.735 136.85 249.335 136.37C246.935 135.83 244.655 135.56 242.495 135.56C239.615 135.56 237.575 135.89 236.375 136.55C235.235 137.21 234.665 138.02 234.665 138.98C234.665 139.94 235.175 140.69 236.195 141.23C237.215 141.71 238.565 142.1 240.245 142.4C241.985 142.64 243.875 142.91 245.915 143.21C247.955 143.45 249.995 143.84 252.035 144.38C254.135 144.92 256.025 145.73 257.705 146.81C259.445 147.83 260.825 149.24 261.845 151.04C262.865 152.78 263.375 155.03 263.375 157.79C263.375 160.79 262.445 163.49 260.585 165.89C258.785 168.29 256.085 170.21 252.485 171.65C248.945 173.09 244.535 173.81 239.255 173.81ZM27.27 283.81C21.03 283.81 16.17 282.28 12.69 279.22C9.21 276.1 7.47 271.42 7.47 265.18V223.33H24.57V265C24.57 266.74 25.05 268.12 26.01 269.14C26.97 270.1 28.2 270.58 29.7 270.58C31.74 270.58 33.48 270.07 34.92 269.05L39.15 281.02C37.71 281.98 35.94 282.67 33.84 283.09C31.74 283.57 29.55 283.81 27.27 283.81ZM0.36 248.8V236.02H35.73V248.8H0.36ZM45.7439 283V234.22H62.0339V248.44L59.6039 244.39C61.0439 240.73 63.3839 238 66.6239 236.2C69.8639 234.34 73.7939 233.41 78.4139 233.41V248.8C77.6339 248.68 76.9439 248.62 76.3439 248.62C75.8039 248.56 75.2039 248.53 74.5439 248.53C71.0639 248.53 68.2439 249.49 66.0839 251.41C63.9239 253.27 62.8439 256.33 62.8439 260.59V283H45.7439ZM109.511 283.81C104.171 283.81 99.431 282.73 95.291 280.57C91.151 278.41 87.881 275.44 85.481 271.66C83.141 267.82 81.971 263.44 81.971 258.52C81.971 253.6 83.141 249.25 85.481 245.47C87.881 241.69 91.151 238.75 95.291 236.65C99.431 234.49 104.171 233.41 109.511 233.41C114.851 233.41 119.591 234.49 123.731 236.65C127.931 238.75 131.201 241.69 133.541 245.47C135.881 249.25 137.051 253.6 137.051 258.52C137.051 263.44 135.881 267.82 133.541 271.66C131.201 275.44 127.931 278.41 123.731 280.57C119.591 282.73 114.851 283.81 109.511 283.81ZM109.511 270.22C111.491 270.22 113.231 269.77 114.731 268.87C116.291 267.97 117.521 266.65 118.421 264.91C119.321 263.11 119.771 260.98 119.771 258.52C119.771 256.06 119.321 253.99 118.421 252.31C117.521 250.57 116.291 249.25 114.731 248.35C113.231 247.45 111.491 247 109.511 247C107.591 247 105.851 247.45 104.291 248.35C102.791 249.25 101.561 250.57 100.601 252.31C99.701 253.99 99.251 256.06 99.251 258.52C99.251 260.98 99.701 263.11 100.601 264.91C101.561 266.65 102.791 267.97 104.291 268.87C105.851 269.77 107.591 270.22 109.511 270.22ZM162.702 283.81C158.562 283.81 154.512 283.33 150.552 282.37C146.652 281.41 143.502 280.21 141.102 278.77L146.232 267.07C148.512 268.45 151.182 269.56 154.242 270.4C157.302 271.18 160.302 271.57 163.242 271.57C166.122 271.57 168.102 271.27 169.182 270.67C170.322 270.07 170.892 269.26 170.892 268.24C170.892 267.28 170.352 266.59 169.272 266.17C168.252 265.69 166.872 265.33 165.132 265.09C163.452 264.85 161.592 264.58 159.552 264.28C157.512 263.98 155.442 263.59 153.342 263.11C151.302 262.57 149.412 261.79 147.672 260.77C145.992 259.69 144.642 258.25 143.622 256.45C142.602 254.65 142.092 252.37 142.092 249.61C142.092 246.49 142.992 243.73 144.792 241.33C146.652 238.87 149.352 236.95 152.892 235.57C156.432 234.13 160.752 233.41 165.852 233.41C169.272 233.41 172.722 233.77 176.202 234.49C179.742 235.15 182.712 236.17 185.112 237.55L179.982 249.16C177.582 247.78 175.182 246.85 172.782 246.37C170.382 245.83 168.102 245.56 165.942 245.56C163.062 245.56 161.022 245.89 159.822 246.55C158.682 247.21 158.112 248.02 158.112 248.98C158.112 249.94 158.622 250.69 159.642 251.23C160.662 251.71 162.012 252.1 163.692 252.4C165.432 252.64 167.322 252.91 169.362 253.21C171.402 253.45 173.442 253.84 175.482 254.38C177.582 254.92 179.472 255.73 181.152 256.81C182.892 257.83 184.272 259.24 185.292 261.04C186.312 262.78 186.822 265.03 186.822 267.79C186.822 270.79 185.892 273.49 184.032 275.89C182.232 278.29 179.532 280.21 175.932 281.65C172.392 283.09 167.982 283.81 162.702 283.81Z" fill="white"/>
</svg>
