<svg width="896" height="507" viewBox="0 0 896 507" fill="none" xmlns="http://www.w3.org/2000/svg">
<path d="M0.550001 138V33H35.95V110.55H83.35V138H0.550001ZM93.1281 138V33H128.528V138H93.1281ZM95.0781 24.45L114.878 0.449992H147.128L117.578 24.45H95.0781ZM145.57 138V33H174.67L228.07 96.9H214.57V33H249.07V138H219.97L166.57 74.1H180.07V138H145.57ZM320.576 140.4C312.076 140.4 304.226 139.1 297.026 136.5C289.926 133.8 283.726 130 278.426 125.1C273.226 120.2 269.176 114.4 266.276 107.7C263.376 101 261.926 93.6 261.926 85.5C261.926 77.4 263.376 70 266.276 63.3C269.176 56.6 273.276 50.8 278.576 45.9C283.876 41 290.126 37.25 297.326 34.65C304.626 31.95 312.626 30.6 321.326 30.6C331.726 30.6 340.976 32.35 349.076 35.85C357.276 39.35 364.026 44.35 369.326 50.85L346.676 70.8C343.376 67 339.776 64.15 335.876 62.25C332.076 60.25 327.826 59.25 323.126 59.25C319.226 59.25 315.676 59.85 312.476 61.05C309.376 62.25 306.726 64 304.526 66.3C302.326 68.6 300.626 71.35 299.426 74.55C298.226 77.75 297.626 81.4 297.626 85.5C297.626 89.4 298.226 93 299.426 96.3C300.626 99.5 302.326 102.25 304.526 104.55C306.726 106.85 309.326 108.65 312.326 109.95C315.426 111.15 318.876 111.75 322.676 111.75C326.676 111.75 330.576 111.1 334.376 109.8C338.176 108.4 342.226 106.05 346.526 102.75L366.326 127.05C359.926 131.35 352.626 134.65 344.426 136.95C336.226 139.25 328.276 140.4 320.576 140.4ZM335.576 122.55V82.65H366.326V127.05L335.576 122.55ZM431.659 140.4C415.559 140.4 403.009 136.05 394.009 127.35C385.009 118.65 380.509 106.45 380.509 90.75V33H415.909V89.7C415.909 97.7 417.359 103.4 420.259 106.8C423.159 110.1 427.059 111.75 431.959 111.75C436.959 111.75 440.859 110.1 443.659 106.8C446.559 103.4 448.009 97.7 448.009 89.7V33H482.809V90.75C482.809 106.45 478.309 118.65 469.309 127.35C460.309 136.05 447.759 140.4 431.659 140.4ZM485.439 138L531.339 33H566.139L612.039 138H575.439L541.539 49.8H555.339L521.439 138H485.439ZM512.739 119.7L521.739 94.2H570.039L579.039 119.7H512.739ZM656.839 140.4C648.039 140.4 639.539 139.4 631.339 137.4C623.139 135.4 616.389 132.8 611.089 129.6L622.489 103.8C627.489 106.7 633.039 109.05 639.139 110.85C645.339 112.55 651.339 113.4 657.139 113.4C660.539 113.4 663.189 113.2 665.089 112.8C667.089 112.3 668.539 111.65 669.439 110.85C670.339 109.95 670.789 108.9 670.789 107.7C670.789 105.8 669.739 104.3 667.639 103.2C665.539 102.1 662.739 101.2 659.239 100.5C655.839 99.7 652.089 98.9 647.989 98.1C643.889 97.2 639.739 96.05 635.539 94.65C631.439 93.25 627.639 91.4 624.139 89.1C620.739 86.8 617.989 83.8 615.889 80.1C613.789 76.3 612.739 71.6 612.739 66C612.739 59.5 614.539 53.6 618.139 48.3C621.839 42.9 627.289 38.6 634.489 35.4C641.789 32.2 650.839 30.6 661.639 30.6C668.739 30.6 675.739 31.35 682.639 32.85C689.539 34.35 695.739 36.65 701.239 39.75L690.589 65.4C685.389 62.8 680.339 60.85 675.439 59.55C670.639 58.25 665.939 57.6 661.339 57.6C657.939 57.6 655.239 57.9 653.239 58.5C651.239 59.1 649.789 59.9 648.889 60.9C648.089 61.9 647.689 63 647.689 64.2C647.689 66 648.739 67.45 650.839 68.55C652.939 69.55 655.689 70.4 659.089 71.1C662.589 71.8 666.389 72.55 670.489 73.35C674.689 74.15 678.839 75.25 682.939 76.65C687.039 78.05 690.789 79.9 694.189 82.2C697.689 84.5 700.489 87.5 702.589 91.2C704.689 94.9 705.739 99.5 705.739 105C705.739 111.4 703.889 117.3 700.189 122.7C696.589 128 691.189 132.3 683.989 135.6C676.789 138.8 667.739 140.4 656.839 140.4ZM0.550001 321V216H35.95V321H0.550001ZM52.9914 321V216H82.0914L135.491 279.9H121.991V216H156.491V321H127.391L73.9914 257.1H87.4914V321H52.9914ZM173.548 321V216H225.298C236.998 216 247.298 218.15 256.198 222.45C265.098 226.65 272.048 232.65 277.048 240.45C282.048 248.25 284.548 257.55 284.548 268.35C284.548 279.25 282.048 288.65 277.048 296.55C272.048 304.35 265.098 310.4 256.198 314.7C247.298 318.9 236.998 321 225.298 321H173.548ZM208.948 293.4H223.798C228.798 293.4 233.148 292.45 236.848 290.55C240.648 288.65 243.598 285.85 245.698 282.15C247.798 278.35 248.848 273.75 248.848 268.35C248.848 263.05 247.798 258.55 245.698 254.85C243.598 251.15 240.648 248.35 236.848 246.45C233.148 244.55 228.798 243.6 223.798 243.6H208.948V293.4ZM297.474 321V216H332.874V321H297.474ZM299.424 207.45L319.224 183.45H351.474L321.924 207.45H299.424ZM404.365 323.4C395.865 323.4 388.015 322.1 380.815 319.5C373.715 316.8 367.515 313 362.215 308.1C357.015 303.2 352.965 297.4 350.065 290.7C347.165 284 345.715 276.6 345.715 268.5C345.715 260.4 347.165 253 350.065 246.3C352.965 239.6 357.065 233.8 362.365 228.9C367.665 224 373.915 220.25 381.115 217.65C388.415 214.95 396.415 213.6 405.115 213.6C415.515 213.6 424.765 215.35 432.865 218.85C441.065 222.35 447.815 227.35 453.115 233.85L430.465 253.8C427.165 250 423.565 247.15 419.665 245.25C415.865 243.25 411.615 242.25 406.915 242.25C403.015 242.25 399.465 242.85 396.265 244.05C393.165 245.25 390.515 247 388.315 249.3C386.115 251.6 384.415 254.35 383.215 257.55C382.015 260.75 381.415 264.4 381.415 268.5C381.415 272.4 382.015 276 383.215 279.3C384.415 282.5 386.115 285.25 388.315 287.55C390.515 289.85 393.115 291.65 396.115 292.95C399.215 294.15 402.665 294.75 406.465 294.75C410.465 294.75 414.365 294.1 418.165 292.8C421.965 291.4 426.015 289.05 430.315 285.75L450.115 310.05C443.715 314.35 436.415 317.65 428.215 319.95C420.015 322.25 412.065 323.4 404.365 323.4ZM419.365 305.55V265.65H450.115V310.05L419.365 305.55ZM497.598 255H544.398V280.5H497.598V255ZM499.998 294.3H552.498V321H465.198V216H550.548V242.7H499.998V294.3ZM566.126 321V216H595.226L648.626 279.9H635.126V216H669.626V321H640.526L587.126 257.1H600.626V321H566.126ZM675.283 321L721.183 216H755.983L801.883 321H765.283L731.383 232.8H745.183L711.283 321H675.283ZM702.583 302.7L711.583 277.2H759.883L768.883 302.7H702.583ZM846.682 323.4C837.882 323.4 829.382 322.4 821.182 320.4C812.982 318.4 806.232 315.8 800.932 312.6L812.332 286.8C817.332 289.7 822.882 292.05 828.982 293.85C835.182 295.55 841.182 296.4 846.982 296.4C850.382 296.4 853.032 296.2 854.932 295.8C856.932 295.3 858.382 294.65 859.282 293.85C860.182 292.95 860.632 291.9 860.632 290.7C860.632 288.8 859.582 287.3 857.482 286.2C855.382 285.1 852.582 284.2 849.082 283.5C845.682 282.7 841.932 281.9 837.832 281.1C833.732 280.2 829.582 279.05 825.382 277.65C821.282 276.25 817.482 274.4 813.982 272.1C810.582 269.8 807.832 266.8 805.732 263.1C803.632 259.3 802.582 254.6 802.582 249C802.582 242.5 804.382 236.6 807.982 231.3C811.682 225.9 817.132 221.6 824.332 218.4C831.632 215.2 840.682 213.6 851.482 213.6C858.582 213.6 865.582 214.35 872.482 215.85C879.382 217.35 885.582 219.65 891.082 222.75L880.432 248.4C875.232 245.8 870.182 243.85 865.282 242.55C860.482 241.25 855.782 240.6 851.182 240.6C847.782 240.6 845.082 240.9 843.082 241.5C841.082 242.1 839.632 242.9 838.732 243.9C837.932 244.9 837.532 246 837.532 247.2C837.532 249 838.582 250.45 840.682 251.55C842.782 252.55 845.532 253.4 848.932 254.1C852.432 254.8 856.232 255.55 860.332 256.35C864.532 257.15 868.682 258.25 872.782 259.65C876.882 261.05 880.632 262.9 884.032 265.2C887.532 267.5 890.332 270.5 892.432 274.2C894.532 277.9 895.582 282.5 895.582 288C895.582 294.4 893.732 300.3 890.032 305.7C886.432 311 881.032 315.3 873.832 318.6C866.632 321.8 857.582 323.4 846.682 323.4ZM0.550001 504V399H29.65L71.65 467.55H56.35L97.15 399H126.25L126.55 504H94.3L94 447.6H99.1L71.2 494.55H55.6L26.5 447.6H32.8V504H0.550001ZM182.815 506.4C174.015 506.4 165.515 505.4 157.315 503.4C149.115 501.4 142.365 498.8 137.065 495.6L148.465 469.8C153.465 472.7 159.015 475.05 165.115 476.85C171.315 478.55 177.315 479.4 183.115 479.4C186.515 479.4 189.165 479.2 191.065 478.8C193.065 478.3 194.515 477.65 195.415 476.85C196.315 475.95 196.765 474.9 196.765 473.7C196.765 471.8 195.715 470.3 193.615 469.2C191.515 468.1 188.715 467.2 185.215 466.5C181.815 465.7 178.065 464.9 173.965 464.1C169.865 463.2 165.715 462.05 161.515 460.65C157.415 459.25 153.615 457.4 150.115 455.1C146.715 452.8 143.965 449.8 141.865 446.1C139.765 442.3 138.715 437.6 138.715 432C138.715 425.5 140.515 419.6 144.115 414.3C147.815 408.9 153.265 404.6 160.465 401.4C167.765 398.2 176.815 396.6 187.615 396.6C194.715 396.6 201.715 397.35 208.615 398.85C215.515 400.35 221.715 402.65 227.215 405.75L216.565 431.4C211.365 428.8 206.315 426.85 201.415 425.55C196.615 424.25 191.915 423.6 187.315 423.6C183.915 423.6 181.215 423.9 179.215 424.5C177.215 425.1 175.765 425.9 174.865 426.9C174.065 427.9 173.665 429 173.665 430.2C173.665 432 174.715 433.45 176.815 434.55C178.915 435.55 181.665 436.4 185.065 437.1C188.565 437.8 192.365 438.55 196.465 439.35C200.665 440.15 204.815 441.25 208.915 442.65C213.015 444.05 216.765 445.9 220.165 448.2C223.665 450.5 226.465 453.5 228.565 457.2C230.665 460.9 231.715 465.5 231.715 471C231.715 477.4 229.865 483.3 226.165 488.7C222.565 494 217.165 498.3 209.965 501.6C202.765 504.8 193.715 506.4 182.815 506.4Z" fill="#8A1D1B"/>
</svg>
