<svg width="1512" height="844" viewBox="0 0 1512 844" fill="none" xmlns="http://www.w3.org/2000/svg">
<rect width="1512" height="844" fill="#ECEAC3"/>
<circle cx="240" cy="422" r="156" fill="#534C4C"/>
<circle cx="1276" cy="473" r="23" fill="#534C4C"/>
<circle cx="756" cy="445" r="51" fill="#534C4C"/>
<path d="M35.15 165V130H43.25V158.4H60.8V165H35.15ZM77.4293 165.4C74.5626 165.4 72.0126 164.8 69.7793 163.6C67.5793 162.4 65.8293 160.767 64.5293 158.7C63.2626 156.6 62.6293 154.217 62.6293 151.55C62.6293 148.85 63.2626 146.467 64.5293 144.4C65.8293 142.3 67.5793 140.667 69.7793 139.5C72.0126 138.3 74.5626 137.7 77.4293 137.7C80.2626 137.7 82.796 138.3 85.0293 139.5C87.2626 140.667 89.0126 142.283 90.2793 144.35C91.546 146.417 92.1793 148.817 92.1793 151.55C92.1793 154.217 91.546 156.6 90.2793 158.7C89.0126 160.767 87.2626 162.4 85.0293 163.6C82.796 164.8 80.2626 165.4 77.4293 165.4ZM77.4293 159C78.7293 159 79.896 158.7 80.9293 158.1C81.9626 157.5 82.7793 156.65 83.3793 155.55C83.9793 154.417 84.2793 153.083 84.2793 151.55C84.2793 149.983 83.9793 148.65 83.3793 147.55C82.7793 146.45 81.9626 145.6 80.9293 145C79.896 144.4 78.7293 144.1 77.4293 144.1C76.1293 144.1 74.9626 144.4 73.9293 145C72.896 145.6 72.0626 146.45 71.4293 147.55C70.8293 148.65 70.5293 149.983 70.5293 151.55C70.5293 153.083 70.8293 154.417 71.4293 155.55C72.0626 156.65 72.896 157.5 73.9293 158.1C74.9626 158.7 76.1293 159 77.4293 159ZM110.393 165.4C107.493 165.4 104.91 164.817 102.643 163.65C100.376 162.45 98.593 160.8 97.293 158.7C96.0263 156.6 95.393 154.217 95.393 151.55C95.393 148.85 96.0263 146.467 97.293 144.4C98.593 142.3 100.376 140.667 102.643 139.5C104.91 138.3 107.493 137.7 110.393 137.7C113.226 137.7 115.693 138.3 117.793 139.5C119.893 140.667 121.443 142.35 122.443 144.55L116.393 147.8C115.693 146.533 114.81 145.6 113.743 145C112.71 144.4 111.576 144.1 110.343 144.1C109.01 144.1 107.81 144.4 106.743 145C105.676 145.6 104.826 146.45 104.193 147.55C103.593 148.65 103.293 149.983 103.293 151.55C103.293 153.117 103.593 154.45 104.193 155.55C104.826 156.65 105.676 157.5 106.743 158.1C107.81 158.7 109.01 159 110.343 159C111.576 159 112.71 158.717 113.743 158.15C114.81 157.55 115.693 156.6 116.393 155.3L122.443 158.6C121.443 160.767 119.893 162.45 117.793 163.65C115.693 164.817 113.226 165.4 110.393 165.4ZM143.434 165V159.75L142.934 158.6V149.2C142.934 147.533 142.417 146.233 141.384 145.3C140.384 144.367 138.834 143.9 136.734 143.9C135.301 143.9 133.884 144.133 132.484 144.6C131.117 145.033 129.951 145.633 128.984 146.4L126.184 140.95C127.651 139.917 129.417 139.117 131.484 138.55C133.551 137.983 135.651 137.7 137.784 137.7C141.884 137.7 145.067 138.667 147.334 140.6C149.601 142.533 150.734 145.55 150.734 149.65V165H143.434ZM135.234 165.4C133.134 165.4 131.334 165.05 129.834 164.35C128.334 163.617 127.184 162.633 126.384 161.4C125.584 160.167 125.184 158.783 125.184 157.25C125.184 155.65 125.567 154.25 126.334 153.05C127.134 151.85 128.384 150.917 130.084 150.25C131.784 149.55 134.001 149.2 136.734 149.2H143.884V153.75H137.584C135.751 153.75 134.484 154.05 133.784 154.65C133.117 155.25 132.784 156 132.784 156.9C132.784 157.9 133.167 158.7 133.934 159.3C134.734 159.867 135.817 160.15 137.184 160.15C138.484 160.15 139.651 159.85 140.684 159.25C141.717 158.617 142.467 157.7 142.934 156.5L144.134 160.1C143.567 161.833 142.534 163.15 141.034 164.05C139.534 164.95 137.601 165.4 135.234 165.4ZM157.793 165V127.9H165.593V165H157.793ZM172.832 165V138.1H180.632V165H172.832ZM176.732 134.35C175.299 134.35 174.132 133.933 173.232 133.1C172.332 132.267 171.882 131.233 171.882 130C171.882 128.767 172.332 127.733 173.232 126.9C174.132 126.067 175.299 125.65 176.732 125.65C178.166 125.65 179.332 126.05 180.232 126.85C181.132 127.617 181.582 128.617 181.582 129.85C181.582 131.15 181.132 132.233 180.232 133.1C179.366 133.933 178.199 134.35 176.732 134.35ZM186.021 165V160.3L201.921 141.5L203.271 144.1H186.371V138.1H209.571V142.8L193.671 161.6L192.271 159H210.021V165H186.021ZM231.52 165V159.75L231.02 158.6V149.2C231.02 147.533 230.503 146.233 229.47 145.3C228.47 144.367 226.92 143.9 224.82 143.9C223.387 143.9 221.97 144.133 220.57 144.6C219.203 145.033 218.037 145.633 217.07 146.4L214.27 140.95C215.737 139.917 217.503 139.117 219.57 138.55C221.637 137.983 223.737 137.7 225.87 137.7C229.97 137.7 233.153 138.667 235.42 140.6C237.687 142.533 238.82 145.55 238.82 149.65V165H231.52ZM223.32 165.4C221.22 165.4 219.42 165.05 217.92 164.35C216.42 163.617 215.27 162.633 214.47 161.4C213.67 160.167 213.27 158.783 213.27 157.25C213.27 155.65 213.653 154.25 214.42 153.05C215.22 151.85 216.47 150.917 218.17 150.25C219.87 149.55 222.087 149.2 224.82 149.2H231.97V153.75H225.67C223.837 153.75 222.57 154.05 221.87 154.65C221.203 155.25 220.87 156 220.87 156.9C220.87 157.9 221.253 158.7 222.02 159.3C222.82 159.867 223.903 160.15 225.27 160.15C226.57 160.15 227.737 159.85 228.77 159.25C229.803 158.617 230.553 157.7 231.02 156.5L232.22 160.1C231.653 161.833 230.62 163.15 229.12 164.05C227.62 164.95 225.687 165.4 223.32 165.4ZM259.075 165.4C256.175 165.4 253.591 164.817 251.325 163.65C249.058 162.45 247.275 160.8 245.975 158.7C244.708 156.6 244.075 154.217 244.075 151.55C244.075 148.85 244.708 146.467 245.975 144.4C247.275 142.3 249.058 140.667 251.325 139.5C253.591 138.3 256.175 137.7 259.075 137.7C261.908 137.7 264.375 138.3 266.475 139.5C268.575 140.667 270.125 142.35 271.125 144.55L265.075 147.8C264.375 146.533 263.491 145.6 262.425 145C261.391 144.4 260.258 144.1 259.025 144.1C257.691 144.1 256.491 144.4 255.425 145C254.358 145.6 253.508 146.45 252.875 147.55C252.275 148.65 251.975 149.983 251.975 151.55C251.975 153.117 252.275 154.45 252.875 155.55C253.508 156.65 254.358 157.5 255.425 158.1C256.491 158.7 257.691 159 259.025 159C260.258 159 261.391 158.717 262.425 158.15C263.491 157.55 264.375 156.6 265.075 155.3L271.125 158.6C270.125 160.767 268.575 162.45 266.475 163.65C264.375 164.817 261.908 165.4 259.075 165.4ZM256.225 176.6C255.358 176.6 254.508 176.5 253.675 176.3C252.875 176.1 252.175 175.85 251.575 175.55L252.775 172.2C253.275 172.433 253.791 172.617 254.325 172.75C254.858 172.883 255.425 172.95 256.025 172.95C256.958 172.95 257.625 172.8 258.025 172.5C258.425 172.2 258.625 171.817 258.625 171.35C258.625 170.917 258.425 170.567 258.025 170.3C257.658 170.033 257.041 169.9 256.175 169.9H254.475L255.775 164.6H259.925L259.225 167.5C260.725 167.667 261.825 168.133 262.525 168.9C263.225 169.7 263.575 170.617 263.575 171.65C263.575 173.15 262.908 174.35 261.575 175.25C260.241 176.15 258.458 176.6 256.225 176.6ZM292.116 165V159.75L291.616 158.6V149.2C291.616 147.533 291.099 146.233 290.066 145.3C289.066 144.367 287.516 143.9 285.416 143.9C283.982 143.9 282.566 144.133 281.166 144.6C279.799 145.033 278.632 145.633 277.666 146.4L274.866 140.95C276.332 139.917 278.099 139.117 280.166 138.55C282.232 137.983 284.332 137.7 286.466 137.7C290.566 137.7 293.749 138.667 296.016 140.6C298.282 142.533 299.416 145.55 299.416 149.65V165H292.116ZM283.916 165.4C281.816 165.4 280.016 165.05 278.516 164.35C277.016 163.617 275.866 162.633 275.066 161.4C274.266 160.167 273.866 158.783 273.866 157.25C273.866 155.65 274.249 154.25 275.016 153.05C275.816 151.85 277.066 150.917 278.766 150.25C280.466 149.55 282.682 149.2 285.416 149.2H292.566V153.75H286.266C284.432 153.75 283.166 154.05 282.466 154.65C281.799 155.25 281.466 156 281.466 156.9C281.466 157.9 281.849 158.7 282.616 159.3C283.416 159.867 284.499 160.15 285.866 160.15C287.166 160.15 288.332 159.85 289.366 159.25C290.399 158.617 291.149 157.7 291.616 156.5L292.816 160.1C292.249 161.833 291.216 163.15 289.716 164.05C288.216 164.95 286.282 165.4 283.916 165.4ZM291.016 134.8C290.149 134.8 289.382 134.65 288.716 134.35C288.049 134.017 287.449 133.65 286.916 133.25C286.382 132.817 285.882 132.45 285.416 132.15C284.949 131.817 284.482 131.65 284.016 131.65C283.349 131.65 282.799 131.9 282.366 132.4C281.932 132.867 281.682 133.55 281.616 134.45H277.666C277.732 132.217 278.282 130.45 279.316 129.15C280.349 127.817 281.749 127.15 283.516 127.15C284.382 127.15 285.149 127.317 285.816 127.65C286.482 127.95 287.082 128.317 287.616 128.75C288.182 129.183 288.699 129.567 289.166 129.9C289.632 130.2 290.082 130.35 290.516 130.35C291.216 130.35 291.782 130.117 292.216 129.65C292.649 129.15 292.882 128.483 292.916 127.65H296.866C296.832 129.783 296.282 131.517 295.216 132.85C294.182 134.15 292.782 134.8 291.016 134.8ZM319.47 165.4C316.604 165.4 314.054 164.8 311.82 163.6C309.62 162.4 307.87 160.767 306.57 158.7C305.304 156.6 304.67 154.217 304.67 151.55C304.67 148.85 305.304 146.467 306.57 144.4C307.87 142.3 309.62 140.667 311.82 139.5C314.054 138.3 316.604 137.7 319.47 137.7C322.304 137.7 324.837 138.3 327.07 139.5C329.304 140.667 331.054 142.283 332.32 144.35C333.587 146.417 334.22 148.817 334.22 151.55C334.22 154.217 333.587 156.6 332.32 158.7C331.054 160.767 329.304 162.4 327.07 163.6C324.837 164.8 322.304 165.4 319.47 165.4ZM319.47 159C320.77 159 321.937 158.7 322.97 158.1C324.004 157.5 324.82 156.65 325.42 155.55C326.02 154.417 326.32 153.083 326.32 151.55C326.32 149.983 326.02 148.65 325.42 147.55C324.82 146.45 324.004 145.6 322.97 145C321.937 144.4 320.77 144.1 319.47 144.1C318.17 144.1 317.004 144.4 315.97 145C314.937 145.6 314.104 146.45 313.47 147.55C312.87 148.65 312.57 149.983 312.57 151.55C312.57 153.083 312.87 154.417 313.47 155.55C314.104 156.65 314.937 157.5 315.97 158.1C317.004 158.7 318.17 159 319.47 159ZM354.144 165V130H362.244V158.4H379.794V165H354.144ZM383.77 165V138.1H391.57V165H383.77ZM387.67 134.35C386.237 134.35 385.07 133.933 384.17 133.1C383.27 132.267 382.82 131.233 382.82 130C382.82 128.767 383.27 127.733 384.17 126.9C385.07 126.067 386.237 125.65 387.67 125.65C389.103 125.65 390.27 126.05 391.17 126.85C392.07 127.617 392.52 128.617 392.52 129.85C392.52 131.15 392.07 132.233 391.17 133.1C390.303 133.933 389.137 134.35 387.67 134.35ZM415.159 137.7C417.292 137.7 419.192 138.133 420.859 139C422.559 139.833 423.892 141.133 424.859 142.9C425.826 144.633 426.309 146.867 426.309 149.6V165H418.509V150.8C418.509 148.633 418.026 147.033 417.059 146C416.126 144.967 414.792 144.45 413.059 144.45C411.826 144.45 410.709 144.717 409.709 145.25C408.742 145.75 407.976 146.533 407.409 147.6C406.876 148.667 406.609 150.033 406.609 151.7V165H398.809V138.1H406.259V145.55L404.859 143.3C405.826 141.5 407.209 140.117 409.009 139.15C410.809 138.183 412.859 137.7 415.159 137.7ZM446.225 175.1C443.691 175.1 441.241 174.783 438.875 174.15C436.541 173.55 434.591 172.633 433.025 171.4L436.125 165.8C437.258 166.733 438.691 167.467 440.425 168C442.191 168.567 443.925 168.85 445.625 168.85C448.391 168.85 450.391 168.233 451.625 167C452.891 165.767 453.525 163.933 453.525 161.5V157.45L454.025 150.7L453.925 143.9V138.1H461.325V160.5C461.325 165.5 460.025 169.183 457.425 171.55C454.825 173.917 451.091 175.1 446.225 175.1ZM445.025 163.7C442.525 163.7 440.258 163.167 438.225 162.1C436.225 161 434.608 159.483 433.375 157.55C432.175 155.583 431.575 153.3 431.575 150.7C431.575 148.067 432.175 145.783 433.375 143.85C434.608 141.883 436.225 140.367 438.225 139.3C440.258 138.233 442.525 137.7 445.025 137.7C447.291 137.7 449.291 138.167 451.025 139.1C452.758 140 454.108 141.417 455.075 143.35C456.041 145.25 456.525 147.7 456.525 150.7C456.525 153.667 456.041 156.117 455.075 158.05C454.108 159.95 452.758 161.367 451.025 162.3C449.291 163.233 447.291 163.7 445.025 163.7ZM446.575 157.3C447.941 157.3 449.158 157.033 450.225 156.5C451.291 155.933 452.125 155.15 452.725 154.15C453.325 153.15 453.625 152 453.625 150.7C453.625 149.367 453.325 148.217 452.725 147.25C452.125 146.25 451.291 145.483 450.225 144.95C449.158 144.383 447.941 144.1 446.575 144.1C445.208 144.1 443.991 144.383 442.925 144.95C441.858 145.483 441.008 146.25 440.375 147.25C439.775 148.217 439.475 149.367 439.475 150.7C439.475 152 439.775 153.15 440.375 154.15C441.008 155.15 441.858 155.933 442.925 156.5C443.991 157.033 445.208 157.3 446.575 157.3ZM479.934 165.4C477.701 165.4 475.701 164.967 473.934 164.1C472.201 163.233 470.851 161.917 469.884 160.15C468.918 158.35 468.434 156.067 468.434 153.3V138.1H476.234V152.15C476.234 154.383 476.701 156.033 477.634 157.1C478.601 158.133 479.951 158.65 481.684 158.65C482.884 158.65 483.951 158.4 484.884 157.9C485.818 157.367 486.551 156.567 487.084 155.5C487.618 154.4 487.884 153.033 487.884 151.4V138.1H495.684V165H488.284V157.6L489.634 159.75C488.734 161.617 487.401 163.033 485.634 164C483.901 164.933 482.001 165.4 479.934 165.4ZM502.911 165V138.1H510.711V165H502.911ZM502.261 134.65L509.011 127.45H517.411L508.361 134.65H502.261ZM527 165.4C524.7 165.4 522.483 165.133 520.35 164.6C518.25 164.033 516.583 163.333 515.35 162.5L517.95 156.9C519.183 157.667 520.633 158.3 522.3 158.8C524 159.267 525.666 159.5 527.3 159.5C529.1 159.5 530.366 159.283 531.1 158.85C531.866 158.417 532.25 157.817 532.25 157.05C532.25 156.417 531.95 155.95 531.35 155.65C530.783 155.317 530.016 155.067 529.05 154.9C528.083 154.733 527.016 154.567 525.85 154.4C524.716 154.233 523.566 154.017 522.4 153.75C521.233 153.45 520.166 153.017 519.2 152.45C518.233 151.883 517.45 151.117 516.85 150.15C516.283 149.183 516 147.933 516 146.4C516 144.7 516.483 143.2 517.45 141.9C518.45 140.6 519.883 139.583 521.75 138.85C523.616 138.083 525.85 137.7 528.45 137.7C530.283 137.7 532.15 137.9 534.05 138.3C535.95 138.7 537.533 139.283 538.8 140.05L536.2 145.6C534.9 144.833 533.583 144.317 532.25 144.05C530.95 143.75 529.683 143.6 528.45 143.6C526.716 143.6 525.45 143.833 524.65 144.3C523.85 144.767 523.45 145.367 523.45 146.1C523.45 146.767 523.733 147.267 524.3 147.6C524.9 147.933 525.683 148.2 526.65 148.4C527.616 148.6 528.666 148.783 529.8 148.95C530.966 149.083 532.133 149.3 533.3 149.6C534.466 149.9 535.516 150.333 536.45 150.9C537.416 151.433 538.2 152.183 538.8 153.15C539.4 154.083 539.7 155.317 539.7 156.85C539.7 158.517 539.2 160 538.2 161.3C537.2 162.567 535.75 163.567 533.85 164.3C531.983 165.033 529.7 165.4 527 165.4ZM555.512 165.4C552.345 165.4 549.879 164.6 548.112 163C546.345 161.367 545.462 158.95 545.462 155.75V132.15H553.262V155.65C553.262 156.783 553.562 157.667 554.162 158.3C554.762 158.9 555.579 159.2 556.612 159.2C557.845 159.2 558.895 158.867 559.762 158.2L561.862 163.7C561.062 164.267 560.095 164.7 558.962 165C557.862 165.267 556.712 165.4 555.512 165.4ZM541.312 144.7V138.7H559.962V144.7H541.312ZM566.241 165V138.1H574.041V165H566.241ZM570.141 134.35C568.707 134.35 567.541 133.933 566.641 133.1C565.741 132.267 565.291 131.233 565.291 130C565.291 128.767 565.741 127.733 566.641 126.9C567.541 126.067 568.707 125.65 570.141 125.65C571.574 125.65 572.741 126.05 573.641 126.85C574.541 127.617 574.991 128.617 574.991 129.85C574.991 131.15 574.541 132.233 573.641 133.1C572.774 133.933 571.607 134.35 570.141 134.35ZM594.28 165.4C591.38 165.4 588.796 164.817 586.53 163.65C584.263 162.45 582.48 160.8 581.18 158.7C579.913 156.6 579.28 154.217 579.28 151.55C579.28 148.85 579.913 146.467 581.18 144.4C582.48 142.3 584.263 140.667 586.53 139.5C588.796 138.3 591.38 137.7 594.28 137.7C597.113 137.7 599.58 138.3 601.68 139.5C603.78 140.667 605.33 142.35 606.33 144.55L600.28 147.8C599.58 146.533 598.696 145.6 597.63 145C596.596 144.4 595.463 144.1 594.23 144.1C592.896 144.1 591.696 144.4 590.63 145C589.563 145.6 588.713 146.45 588.08 147.55C587.48 148.65 587.18 149.983 587.18 151.55C587.18 153.117 587.48 154.45 588.08 155.55C588.713 156.65 589.563 157.5 590.63 158.1C591.696 158.7 592.896 159 594.23 159C595.463 159 596.596 158.717 597.63 158.15C598.696 157.55 599.58 156.6 600.28 155.3L606.33 158.6C605.33 160.767 603.78 162.45 601.68 163.65C599.58 164.817 597.113 165.4 594.28 165.4ZM627.321 165V159.75L626.821 158.6V149.2C626.821 147.533 626.304 146.233 625.271 145.3C624.271 144.367 622.721 143.9 620.621 143.9C619.187 143.9 617.771 144.133 616.371 144.6C615.004 145.033 613.837 145.633 612.871 146.4L610.071 140.95C611.537 139.917 613.304 139.117 615.371 138.55C617.437 137.983 619.537 137.7 621.671 137.7C625.771 137.7 628.954 138.667 631.221 140.6C633.487 142.533 634.621 145.55 634.621 149.65V165H627.321ZM619.121 165.4C617.021 165.4 615.221 165.05 613.721 164.35C612.221 163.617 611.071 162.633 610.271 161.4C609.471 160.167 609.071 158.783 609.071 157.25C609.071 155.65 609.454 154.25 610.221 153.05C611.021 151.85 612.271 150.917 613.971 150.25C615.671 149.55 617.887 149.2 620.621 149.2H627.771V153.75H621.471C619.637 153.75 618.371 154.05 617.671 154.65C617.004 155.25 616.671 156 616.671 156.9C616.671 157.9 617.054 158.7 617.821 159.3C618.621 159.867 619.704 160.15 621.071 160.15C622.371 160.15 623.537 159.85 624.571 159.25C625.604 158.617 626.354 157.7 626.821 156.5L628.021 160.1C627.454 161.833 626.421 163.15 624.921 164.05C623.421 164.95 621.487 165.4 619.121 165.4Z" fill="black"/>
<path d="M192.553 669V651.96H185.833V648H204.133V651.96H197.413V669H192.553ZM206.066 669V652.86H210.536V657.42L209.906 656.1C210.386 654.96 211.156 654.1 212.216 653.52C213.276 652.92 214.566 652.62 216.086 652.62V656.94C215.886 656.92 215.706 656.91 215.546 656.91C215.386 656.89 215.216 656.88 215.036 656.88C213.756 656.88 212.716 657.25 211.916 657.99C211.136 658.71 210.746 659.84 210.746 661.38V669H206.066ZM226.432 669.24C224.712 669.24 223.182 668.88 221.842 668.16C220.522 667.44 219.472 666.46 218.692 665.22C217.932 663.96 217.552 662.53 217.552 660.93C217.552 659.31 217.932 657.88 218.692 656.64C219.472 655.38 220.522 654.4 221.842 653.7C223.182 652.98 224.712 652.62 226.432 652.62C228.132 652.62 229.652 652.98 230.992 653.7C232.332 654.4 233.382 655.37 234.142 656.61C234.902 657.85 235.282 659.29 235.282 660.93C235.282 662.53 234.902 663.96 234.142 665.22C233.382 666.46 232.332 667.44 230.992 668.16C229.652 668.88 228.132 669.24 226.432 669.24ZM226.432 665.4C227.212 665.4 227.912 665.22 228.532 664.86C229.152 664.5 229.642 663.99 230.002 663.33C230.362 662.65 230.542 661.85 230.542 660.93C230.542 659.99 230.362 659.19 230.002 658.53C229.642 657.87 229.152 657.36 228.532 657C227.912 656.64 227.212 656.46 226.432 656.46C225.652 656.46 224.952 656.64 224.332 657C223.712 657.36 223.212 657.87 222.832 658.53C222.472 659.19 222.292 659.99 222.292 660.93C222.292 661.85 222.472 662.65 222.832 663.33C223.212 663.99 223.712 664.5 224.332 664.86C224.952 665.22 225.652 665.4 226.432 665.4ZM248.22 652.62C249.5 652.62 250.64 652.88 251.64 653.4C252.66 653.9 253.46 654.68 254.04 655.74C254.62 656.78 254.91 658.12 254.91 659.76V669H250.23V660.48C250.23 659.18 249.94 658.22 249.36 657.6C248.8 656.98 248 656.67 246.96 656.67C246.22 656.67 245.55 656.83 244.95 657.15C244.37 657.45 243.91 657.92 243.57 658.56C243.25 659.2 243.09 660.02 243.09 661.02V669H238.41V652.86H242.88V657.33L242.04 655.98C242.62 654.9 243.45 654.07 244.53 653.49C245.61 652.91 246.84 652.62 248.22 652.62ZM267.069 669.24C265.329 669.24 263.779 668.89 262.419 668.19C261.059 667.47 259.989 666.48 259.209 665.22C258.449 663.96 258.069 662.53 258.069 660.93C258.069 659.31 258.449 657.88 259.209 656.64C259.989 655.38 261.059 654.4 262.419 653.7C263.779 652.98 265.329 652.62 267.069 652.62C268.769 652.62 270.249 652.98 271.509 653.7C272.769 654.4 273.699 655.41 274.299 656.73L270.669 658.68C270.249 657.92 269.719 657.36 269.079 657C268.459 656.64 267.779 656.46 267.039 656.46C266.239 656.46 265.519 656.64 264.879 657C264.239 657.36 263.729 657.87 263.349 658.53C262.989 659.19 262.809 659.99 262.809 660.93C262.809 661.87 262.989 662.67 263.349 663.33C263.729 663.99 264.239 664.5 264.879 664.86C265.519 665.22 266.239 665.4 267.039 665.4C267.779 665.4 268.459 665.23 269.079 664.89C269.719 664.53 270.249 663.96 270.669 663.18L274.299 665.16C273.699 666.46 272.769 667.47 271.509 668.19C270.249 668.89 268.769 669.24 267.069 669.24ZM284.469 669.24C282.749 669.24 281.219 668.88 279.879 668.16C278.559 667.44 277.509 666.46 276.729 665.22C275.969 663.96 275.589 662.53 275.589 660.93C275.589 659.31 275.969 657.88 276.729 656.64C277.509 655.38 278.559 654.4 279.879 653.7C281.219 652.98 282.749 652.62 284.469 652.62C286.169 652.62 287.689 652.98 289.029 653.7C290.369 654.4 291.419 655.37 292.179 656.61C292.939 657.85 293.319 659.29 293.319 660.93C293.319 662.53 292.939 663.96 292.179 665.22C291.419 666.46 290.369 667.44 289.029 668.16C287.689 668.88 286.169 669.24 284.469 669.24ZM284.469 665.4C285.249 665.4 285.949 665.22 286.569 664.86C287.189 664.5 287.679 663.99 288.039 663.33C288.399 662.65 288.579 661.85 288.579 660.93C288.579 659.99 288.399 659.19 288.039 658.53C287.679 657.87 287.189 657.36 286.569 657C285.949 656.64 285.249 656.46 284.469 656.46C283.689 656.46 282.989 656.64 282.369 657C281.749 657.36 281.249 657.87 280.869 658.53C280.509 659.19 280.329 659.99 280.329 660.93C280.329 661.85 280.509 662.65 280.869 663.33C281.249 663.99 281.749 664.5 282.369 664.86C282.989 665.22 283.689 665.4 284.469 665.4Z" fill="black"/>
<path d="M708.861 657.45H718.941V661.35H708.861V657.45ZM709.221 669H704.361V648H720.231V651.9H709.221V669ZM732.623 669V665.85L732.323 665.16V659.52C732.323 658.52 732.013 657.74 731.393 657.18C730.793 656.62 729.863 656.34 728.603 656.34C727.743 656.34 726.893 656.48 726.053 656.76C725.233 657.02 724.533 657.38 723.953 657.84L722.273 654.57C723.153 653.95 724.213 653.47 725.453 653.13C726.693 652.79 727.953 652.62 729.233 652.62C731.693 652.62 733.603 653.2 734.963 654.36C736.323 655.52 737.003 657.33 737.003 659.79V669H732.623ZM727.703 669.24C726.443 669.24 725.363 669.03 724.463 668.61C723.563 668.17 722.873 667.58 722.393 666.84C721.913 666.1 721.673 665.27 721.673 664.35C721.673 663.39 721.903 662.55 722.363 661.83C722.843 661.11 723.593 660.55 724.613 660.15C725.633 659.73 726.963 659.52 728.603 659.52H732.893V662.25H729.113C728.013 662.25 727.253 662.43 726.833 662.79C726.433 663.15 726.233 663.6 726.233 664.14C726.233 664.74 726.463 665.22 726.923 665.58C727.403 665.92 728.053 666.09 728.873 666.09C729.653 666.09 730.353 665.91 730.973 665.55C731.593 665.17 732.043 664.62 732.323 663.9L733.043 666.06C732.703 667.1 732.083 667.89 731.183 668.43C730.283 668.97 729.123 669.24 727.703 669.24ZM761.908 652.62C763.188 652.62 764.318 652.88 765.298 653.4C766.298 653.9 767.078 654.68 767.638 655.74C768.218 656.78 768.508 658.12 768.508 659.76V669H763.828V660.48C763.828 659.18 763.558 658.22 763.018 657.6C762.478 656.98 761.718 656.67 760.738 656.67C760.058 656.67 759.448 656.83 758.908 657.15C758.368 657.45 757.948 657.91 757.648 658.53C757.348 659.15 757.198 659.94 757.198 660.9V669H752.518V660.48C752.518 659.18 752.248 658.22 751.708 657.6C751.188 656.98 750.438 656.67 749.458 656.67C748.778 656.67 748.168 656.83 747.628 657.15C747.088 657.45 746.668 657.91 746.368 658.53C746.068 659.15 745.918 659.94 745.918 660.9V669H741.238V652.86H745.708V657.27L744.868 655.98C745.428 654.88 746.218 654.05 747.238 653.49C748.278 652.91 749.458 652.62 750.778 652.62C752.258 652.62 753.548 653 754.648 653.76C755.768 654.5 756.508 655.64 756.868 657.18L755.218 656.73C755.758 655.47 756.618 654.47 757.798 653.73C758.998 652.99 760.368 652.62 761.908 652.62ZM772.703 669V652.86H777.383V669H772.703ZM772.313 650.79L776.363 646.47H781.403L775.973 650.79H772.313ZM781.726 669V646.74H786.406V669H781.726ZM790.75 669V652.86H795.43V669H790.75ZM793.09 650.61C792.23 650.61 791.53 650.36 790.99 649.86C790.45 649.36 790.18 648.74 790.18 648C790.18 647.26 790.45 646.64 790.99 646.14C791.53 645.64 792.23 645.39 793.09 645.39C793.95 645.39 794.65 645.63 795.19 646.11C795.73 646.57 796 647.17 796 647.91C796 648.69 795.73 649.34 795.19 649.86C794.67 650.36 793.97 650.61 793.09 650.61ZM809.673 669V665.85L809.373 665.16V659.52C809.373 658.52 809.063 657.74 808.443 657.18C807.843 656.62 806.913 656.34 805.653 656.34C804.793 656.34 803.943 656.48 803.103 656.76C802.283 657.02 801.583 657.38 801.003 657.84L799.323 654.57C800.203 653.95 801.263 653.47 802.503 653.13C803.743 652.79 805.003 652.62 806.283 652.62C808.743 652.62 810.653 653.2 812.013 654.36C813.373 655.52 814.053 657.33 814.053 659.79V669H809.673ZM804.753 669.24C803.493 669.24 802.413 669.03 801.513 668.61C800.613 668.17 799.923 667.58 799.443 666.84C798.963 666.1 798.723 665.27 798.723 664.35C798.723 663.39 798.953 662.55 799.413 661.83C799.893 661.11 800.643 660.55 801.663 660.15C802.683 659.73 804.013 659.52 805.653 659.52H809.943V662.25H806.163C805.063 662.25 804.303 662.43 803.883 662.79C803.483 663.15 803.283 663.6 803.283 664.14C803.283 664.74 803.513 665.22 803.973 665.58C804.453 665.92 805.103 666.09 805.923 666.09C806.703 666.09 807.403 665.91 808.023 665.55C808.643 665.17 809.093 664.62 809.373 663.9L810.093 666.06C809.753 667.1 809.133 667.89 808.233 668.43C807.333 668.97 806.173 669.24 804.753 669.24Z" fill="black"/>
<path d="M1182.4 656.46H1192.51V660.24H1182.4V656.46ZM1182.76 665.1H1194.19V669H1177.93V648H1193.8V651.9H1182.76V665.1ZM1204.15 669.24C1202.25 669.24 1200.77 668.76 1199.71 667.8C1198.65 666.82 1198.12 665.37 1198.12 663.45V649.29H1202.8V663.39C1202.8 664.07 1202.98 664.6 1203.34 664.98C1203.7 665.34 1204.19 665.52 1204.81 665.52C1205.55 665.52 1206.18 665.32 1206.7 664.92L1207.96 668.22C1207.48 668.56 1206.9 668.82 1206.22 669C1205.56 669.16 1204.87 669.24 1204.15 669.24ZM1195.63 656.82V653.22H1206.82V656.82H1195.63ZM1220.4 652.62C1221.68 652.62 1222.82 652.88 1223.82 653.4C1224.84 653.9 1225.64 654.68 1226.22 655.74C1226.8 656.78 1227.09 658.12 1227.09 659.76V669H1222.41V660.48C1222.41 659.18 1222.12 658.22 1221.54 657.6C1220.98 656.98 1220.18 656.67 1219.14 656.67C1218.4 656.67 1217.73 656.83 1217.13 657.15C1216.55 657.45 1216.09 657.92 1215.75 658.56C1215.43 659.2 1215.27 660.02 1215.27 661.02V669H1210.59V652.86H1215.06V657.33L1214.22 655.98C1214.8 654.9 1215.63 654.07 1216.71 653.49C1217.79 652.91 1219.02 652.62 1220.4 652.62ZM1231.33 669V652.86H1236.01V669H1231.33ZM1233.67 650.61C1232.81 650.61 1232.11 650.36 1231.57 649.86C1231.03 649.36 1230.76 648.74 1230.76 648C1230.76 647.26 1231.03 646.64 1231.57 646.14C1232.11 645.64 1232.81 645.39 1233.67 645.39C1234.53 645.39 1235.23 645.63 1235.77 646.11C1236.31 646.57 1236.58 647.17 1236.58 647.91C1236.58 648.69 1236.31 649.34 1235.77 649.86C1235.25 650.36 1234.55 650.61 1233.67 650.61ZM1250.25 669V665.85L1249.95 665.16V659.52C1249.95 658.52 1249.64 657.74 1249.02 657.18C1248.42 656.62 1247.49 656.34 1246.23 656.34C1245.37 656.34 1244.52 656.48 1243.68 656.76C1242.86 657.02 1242.16 657.38 1241.58 657.84L1239.9 654.57C1240.78 653.95 1241.84 653.47 1243.08 653.13C1244.32 652.79 1245.58 652.62 1246.86 652.62C1249.32 652.62 1251.23 653.2 1252.59 654.36C1253.95 655.52 1254.63 657.33 1254.63 659.79V669H1250.25ZM1245.33 669.24C1244.07 669.24 1242.99 669.03 1242.09 668.61C1241.19 668.17 1240.5 667.58 1240.02 666.84C1239.54 666.1 1239.3 665.27 1239.3 664.35C1239.3 663.39 1239.53 662.55 1239.99 661.83C1240.47 661.11 1241.22 660.55 1242.24 660.15C1243.26 659.73 1244.59 659.52 1246.23 659.52H1250.52V662.25H1246.74C1245.64 662.25 1244.88 662.43 1244.46 662.79C1244.06 663.15 1243.86 663.6 1243.86 664.14C1243.86 664.74 1244.09 665.22 1244.55 665.58C1245.03 665.92 1245.68 666.09 1246.5 666.09C1247.28 666.09 1247.98 665.91 1248.6 665.55C1249.22 665.17 1249.67 664.62 1249.95 663.9L1250.67 666.06C1250.33 667.1 1249.71 667.89 1248.81 668.43C1247.91 668.97 1246.75 669.24 1245.33 669.24ZM1255.72 672L1265.62 643.74H1269.79L1259.89 672H1255.72ZM1270.95 669V648H1275.81V665.04H1286.34V669H1270.95ZM1288.72 669V652.86H1293.4V669H1288.72ZM1288.33 650.79L1292.38 646.47H1297.42L1291.99 650.79H1288.33ZM1307.55 652.62C1308.83 652.62 1309.97 652.88 1310.97 653.4C1311.99 653.9 1312.79 654.68 1313.37 655.74C1313.95 656.78 1314.24 658.12 1314.24 659.76V669H1309.56V660.48C1309.56 659.18 1309.27 658.22 1308.69 657.6C1308.13 656.98 1307.33 656.67 1306.29 656.67C1305.55 656.67 1304.88 656.83 1304.28 657.15C1303.7 657.45 1303.24 657.92 1302.9 658.56C1302.58 659.2 1302.42 660.02 1302.42 661.02V669H1297.74V652.86H1302.21V657.33L1301.37 655.98C1301.95 654.9 1302.78 654.07 1303.86 653.49C1304.94 652.91 1306.17 652.62 1307.55 652.62ZM1326.19 675.06C1324.67 675.06 1323.2 674.87 1321.78 674.49C1320.38 674.13 1319.21 673.58 1318.27 672.84L1320.13 669.48C1320.81 670.04 1321.67 670.48 1322.71 670.8C1323.77 671.14 1324.81 671.31 1325.83 671.31C1327.49 671.31 1328.69 670.94 1329.43 670.2C1330.19 669.46 1330.57 668.36 1330.57 666.9V664.47L1330.87 660.42L1330.81 656.34V652.86H1335.25V666.3C1335.25 669.3 1334.47 671.51 1332.91 672.93C1331.35 674.35 1329.11 675.06 1326.19 675.06ZM1325.47 668.22C1323.97 668.22 1322.61 667.9 1321.39 667.26C1320.19 666.6 1319.22 665.69 1318.48 664.53C1317.76 663.35 1317.4 661.98 1317.4 660.42C1317.4 658.84 1317.76 657.47 1318.48 656.31C1319.22 655.13 1320.19 654.22 1321.39 653.58C1322.61 652.94 1323.97 652.62 1325.47 652.62C1326.83 652.62 1328.03 652.9 1329.07 653.46C1330.11 654 1330.92 654.85 1331.5 656.01C1332.08 657.15 1332.37 658.62 1332.37 660.42C1332.37 662.2 1332.08 663.67 1331.5 664.83C1330.92 665.97 1330.11 666.82 1329.07 667.38C1328.03 667.94 1326.83 668.22 1325.47 668.22ZM1326.4 664.38C1327.22 664.38 1327.95 664.22 1328.59 663.9C1329.23 663.56 1329.73 663.09 1330.09 662.49C1330.45 661.89 1330.63 661.2 1330.63 660.42C1330.63 659.62 1330.45 658.93 1330.09 658.35C1329.73 657.75 1329.23 657.29 1328.59 656.97C1327.95 656.63 1327.22 656.46 1326.4 656.46C1325.58 656.46 1324.85 656.63 1324.21 656.97C1323.57 657.29 1323.06 657.75 1322.68 658.35C1322.32 658.93 1322.14 659.62 1322.14 660.42C1322.14 661.2 1322.32 661.89 1322.68 662.49C1323.06 663.09 1323.57 663.56 1324.21 663.9C1324.85 664.22 1325.58 664.38 1326.4 664.38ZM1346.42 669.24C1345.08 669.24 1343.88 668.98 1342.82 668.46C1341.78 667.94 1340.97 667.15 1340.39 666.09C1339.81 665.01 1339.52 663.64 1339.52 661.98V652.86H1344.2V661.29C1344.2 662.63 1344.48 663.62 1345.04 664.26C1345.62 664.88 1346.43 665.19 1347.47 665.19C1348.19 665.19 1348.83 665.04 1349.39 664.74C1349.95 664.42 1350.39 663.94 1350.71 663.3C1351.03 662.64 1351.19 661.82 1351.19 660.84V652.86H1355.87V669H1351.43V664.56L1352.24 665.85C1351.7 666.97 1350.9 667.82 1349.84 668.4C1348.8 668.96 1347.66 669.24 1346.42 669.24ZM1370.11 669V665.85L1369.81 665.16V659.52C1369.81 658.52 1369.5 657.74 1368.88 657.18C1368.28 656.62 1367.35 656.34 1366.09 656.34C1365.23 656.34 1364.38 656.48 1363.54 656.76C1362.72 657.02 1362.02 657.38 1361.44 657.84L1359.76 654.57C1360.64 653.95 1361.7 653.47 1362.94 653.13C1364.18 652.79 1365.44 652.62 1366.72 652.62C1369.18 652.62 1371.09 653.2 1372.45 654.36C1373.81 655.52 1374.49 657.33 1374.49 659.79V669H1370.11ZM1365.19 669.24C1363.93 669.24 1362.85 669.03 1361.95 668.61C1361.05 668.17 1360.36 667.58 1359.88 666.84C1359.4 666.1 1359.16 665.27 1359.16 664.35C1359.16 663.39 1359.39 662.55 1359.85 661.83C1360.33 661.11 1361.08 660.55 1362.1 660.15C1363.12 659.73 1364.45 659.52 1366.09 659.52H1370.38V662.25H1366.6C1365.5 662.25 1364.74 662.43 1364.32 662.79C1363.92 663.15 1363.72 663.6 1363.72 664.14C1363.72 664.74 1363.95 665.22 1364.41 665.58C1364.89 665.92 1365.54 666.09 1366.36 666.09C1367.14 666.09 1367.84 665.91 1368.46 665.55C1369.08 665.17 1369.53 664.62 1369.81 663.9L1370.53 666.06C1370.19 667.1 1369.57 667.89 1368.67 668.43C1367.77 668.97 1366.61 669.24 1365.19 669.24Z" fill="black"/>
</svg>
