<svg width="338" height="334" viewBox="0 0 338 334" fill="none" xmlns="http://www.w3.org/2000/svg">
<path d="M104 7C104 7 128.323 31.5006 147.304 29.7524C156.482 28.907 160.932 17.8618 169.433 21.4612C173.76 23.2933 173.97 27.7188 178.208 29.7524C190.229 35.5208 206.442 10.4707 206.442 10.4707C206.442 10.4707 206.632 4.49318 202.436 41.8998C198.239 79.3064 323 109 323 109" stroke="white" stroke-width="15"/>
<path d="M329.574 113C329.574 113 331.683 131.029 326.515 140.505C321.383 149.915 312.505 149.904 305.294 157.816C290.44 174.114 292.213 189.814 281.589 209.171C276.117 219.14 274.216 225.682 266.677 234.176C256.525 245.612 245.502 245.651 234.177 255.911C222.867 266.156 221.05 276.35 209.324 286.108C204.535 290.093 200.556 290.764 196.324 295.341C188.264 304.057 186 324 186 324" stroke="white" stroke-width="15"/>
<path d="M101.444 8C101.444 8 81.1323 15.0672 74.4257 13.7301C67.719 12.3931 67.304 31.8727 57.18 36.8417C52.1481 39.3114 48.6689 41.2936 43.1919 40.0887C34.9492 38.2754 30.1618 22.8983 30.1618 22.8983C30.1618 22.8983 38.2181 41.7659 39.3595 54.6051C41.8839 82.9994 14.2575 123.176 14.2575 123.176C14.2575 123.176 26.6502 130.545 25.3714 137.501C24.148 144.155 11 147.242 11 147.242C11 147.242 35.5272 211.038 20.0061 229.756C4.48496 248.474 63.9819 232.925 90.9048 240.643C101.162 243.584 107.957 243.435 116.773 249.429C139.484 264.871 131.72 318 131.72 318" stroke="white" stroke-width="15"/>
<path d="M135 326.249C135 326.249 145.348 326.041 151.627 324.087C157.512 322.255 159.726 316.71 165.851 317.012C173.217 317.375 181 329 181 329" stroke="white" stroke-width="15"/>
<line x1="162.24" y1="71.2085" x2="162.24" y2="296" stroke="white" stroke-width="3"/>
<line x1="0.5" y1="-0.5" x2="57.1892" y2="-0.5" transform="matrix(0.783862 -0.620936 0.621854 0.783133 161.78 250.834)" stroke="white" stroke-linecap="round"/>
<line x1="0.5" y1="-0.5" x2="57.1892" y2="-0.5" transform="matrix(0.783862 -0.620936 0.621854 0.783133 161.78 249.796)" stroke="white" stroke-linecap="round"/>
<line x1="0.5" y1="-0.5" x2="57.1892" y2="-0.5" transform="matrix(0.783862 -0.620936 0.621854 0.783133 161.78 248.757)" stroke="white" stroke-linecap="round"/>
<line x1="0.5" y1="-0.5" x2="57.1892" y2="-0.5" transform="matrix(0.783862 -0.620936 0.621854 0.783133 161.78 247.719)" stroke="white" stroke-linecap="round"/>
<line x1="0.5" y1="-0.5" x2="57.1892" y2="-0.5" transform="matrix(0.783862 -0.620936 0.621854 0.783133 161.78 246.681)" stroke="white" stroke-linecap="round"/>
<line x1="0.5" y1="-0.5" x2="57.1892" y2="-0.5" transform="matrix(0.783862 -0.620936 0.621854 0.783133 161.78 245.643)" stroke="white" stroke-linecap="round"/>
<line x1="0.5" y1="-0.5" x2="57.1892" y2="-0.5" transform="matrix(0.783862 -0.620936 0.621854 0.783133 161.78 244.604)" stroke="white" stroke-linecap="round"/>
<line x1="0.5" y1="-0.5" x2="57.1892" y2="-0.5" transform="matrix(0.783861 -0.620936 0.621854 0.783134 161.78 243.566)" stroke="white" stroke-linecap="round"/>
<line x1="0.5" y1="-0.5" x2="57.1892" y2="-0.5" transform="matrix(0.783862 -0.620936 0.621854 0.783133 161.78 242.528)" stroke="white" stroke-linecap="round"/>
<line x1="0.5" y1="-0.5" x2="57.1892" y2="-0.5" transform="matrix(0.783862 -0.620936 0.621854 0.783133 161.78 241.489)" stroke="white" stroke-linecap="round"/>
<line x1="0.5" y1="-0.5" x2="57.1892" y2="-0.5" transform="matrix(0.783862 -0.620936 0.621854 0.783133 161.78 240.451)" stroke="white" stroke-linecap="round"/>
<line x1="0.5" y1="-0.5" x2="57.1892" y2="-0.5" transform="matrix(0.783862 -0.620936 0.621854 0.783133 161.78 239.413)" stroke="white" stroke-linecap="round"/>
<line x1="0.5" y1="-0.5" x2="57.1892" y2="-0.5" transform="matrix(0.783862 -0.620936 0.621854 0.783133 161.78 238.375)" stroke="white" stroke-linecap="round"/>
<line x1="0.5" y1="-0.5" x2="57.1892" y2="-0.5" transform="matrix(0.783862 -0.620936 0.621854 0.783133 161.78 237.336)" stroke="white" stroke-linecap="round"/>
<line x1="0.5" y1="-0.5" x2="57.1892" y2="-0.5" transform="matrix(0.783862 -0.620936 0.621854 0.783133 161.78 236.298)" stroke="white" stroke-linecap="round"/>
<line x1="0.5" y1="-0.5" x2="57.1892" y2="-0.5" transform="matrix(0.783862 -0.620936 0.621854 0.783133 161.78 235.26)" stroke="white" stroke-linecap="round"/>
<line x1="0.5" y1="-0.5" x2="57.1892" y2="-0.5" transform="matrix(0.783861 -0.620936 0.621854 0.783134 161.78 234.221)" stroke="white" stroke-linecap="round"/>
<line x1="0.5" y1="-0.5" x2="57.1892" y2="-0.5" transform="matrix(0.783862 -0.620936 0.621854 0.783133 161.78 233.183)" stroke="white" stroke-linecap="round"/>
<line x1="0.5" y1="-0.5" x2="57.1892" y2="-0.5" transform="matrix(0.783862 -0.620936 0.621854 0.783133 161.78 232.145)" stroke="white" stroke-linecap="round"/>
<line x1="0.5" y1="-0.5" x2="57.1892" y2="-0.5" transform="matrix(0.783862 -0.620936 0.621854 0.783133 161.78 231.106)" stroke="white" stroke-linecap="round"/>
<line x1="0.5" y1="-0.5" x2="57.1892" y2="-0.5" transform="matrix(0.783862 -0.620936 0.621854 0.783133 161.78 230.068)" stroke="white" stroke-linecap="round"/>
<line x1="0.5" y1="-0.5" x2="57.1892" y2="-0.5" transform="matrix(0.783862 -0.620936 0.621854 0.783133 161.78 229.03)" stroke="white" stroke-linecap="round"/>
<line x1="0.5" y1="-0.5" x2="57.1892" y2="-0.5" transform="matrix(0.783862 -0.620936 0.621854 0.783133 161.78 227.991)" stroke="white" stroke-linecap="round"/>
<line x1="0.5" y1="-0.5" x2="57.1892" y2="-0.5" transform="matrix(0.783862 -0.620936 0.621854 0.783133 161.78 226.953)" stroke="white" stroke-linecap="round"/>
<line x1="0.5" y1="-0.5" x2="57.1892" y2="-0.5" transform="matrix(0.783862 -0.620936 0.621854 0.783133 161.78 225.915)" stroke="white" stroke-linecap="round"/>
<line x1="0.5" y1="-0.5" x2="57.1892" y2="-0.5" transform="matrix(0.783861 -0.620936 0.621854 0.783134 161.78 224.877)" stroke="white" stroke-linecap="round"/>
<line x1="0.5" y1="-0.5" x2="57.1892" y2="-0.5" transform="matrix(0.783862 -0.620936 0.621854 0.783133 161.78 223.838)" stroke="white" stroke-linecap="round"/>
<line x1="0.5" y1="-0.5" x2="57.1892" y2="-0.5" transform="matrix(0.783862 -0.620936 0.621854 0.783133 161.78 222.8)" stroke="white" stroke-linecap="round"/>
<line x1="0.5" y1="-0.5" x2="57.1892" y2="-0.5" transform="matrix(0.783862 -0.620936 0.621854 0.783133 161.78 221.762)" stroke="white" stroke-linecap="round"/>
<line x1="0.5" y1="-0.5" x2="57.1892" y2="-0.5" transform="matrix(0.783862 -0.620936 0.621854 0.783133 161.78 220.723)" stroke="white" stroke-linecap="round"/>
<line x1="0.5" y1="-0.5" x2="57.1892" y2="-0.5" transform="matrix(0.783862 -0.620936 0.621854 0.783133 161.78 219.685)" stroke="white" stroke-linecap="round"/>
<line x1="0.5" y1="-0.5" x2="57.1892" y2="-0.5" transform="matrix(0.783862 -0.620936 0.621854 0.783133 161.78 218.647)" stroke="white" stroke-linecap="round"/>
<line x1="0.5" y1="-0.5" x2="57.1892" y2="-0.5" transform="matrix(0.783862 -0.620936 0.621854 0.783133 161.78 217.608)" stroke="white" stroke-linecap="round"/>
<line x1="0.5" y1="-0.5" x2="57.1892" y2="-0.5" transform="matrix(0.783862 -0.620936 0.621854 0.783133 161.78 216.57)" stroke="white" stroke-linecap="round"/>
<line x1="0.5" y1="-0.5" x2="57.1892" y2="-0.5" transform="matrix(0.783862 -0.620936 0.621854 0.783134 161.78 215.532)" stroke="white" stroke-linecap="round"/>
<line x1="0.5" y1="-0.5" x2="57.1892" y2="-0.5" transform="matrix(0.783862 -0.620936 0.621854 0.783134 161.78 214.494)" stroke="white" stroke-linecap="round"/>
<line x1="0.5" y1="-0.5" x2="57.1892" y2="-0.5" transform="matrix(0.783862 -0.620936 0.621854 0.783134 161.78 213.455)" stroke="white" stroke-linecap="round"/>
<line x1="0.5" y1="-0.5" x2="57.1892" y2="-0.5" transform="matrix(0.783862 -0.620936 0.621854 0.783134 161.78 212.417)" stroke="white" stroke-linecap="round"/>
<line x1="0.5" y1="-0.5" x2="57.1892" y2="-0.5" transform="matrix(0.783862 -0.620936 0.621854 0.783133 161.78 211.379)" stroke="white" stroke-linecap="round"/>
<line x1="0.5" y1="-0.5" x2="57.1892" y2="-0.5" transform="matrix(0.783862 -0.620936 0.621854 0.783133 161.78 210.34)" stroke="white" stroke-linecap="round"/>
<line x1="0.5" y1="-0.5" x2="57.1892" y2="-0.5" transform="matrix(0.783862 -0.620936 0.621854 0.783133 161.78 209.302)" stroke="white" stroke-linecap="round"/>
<line x1="0.5" y1="-0.5" x2="57.1892" y2="-0.5" transform="matrix(0.783862 -0.620936 0.621854 0.783133 161.78 208.264)" stroke="white" stroke-linecap="round"/>
<line x1="0.5" y1="-0.5" x2="57.1892" y2="-0.5" transform="matrix(0.783862 -0.620936 0.621854 0.783133 161.78 207.226)" stroke="white" stroke-linecap="round"/>
<line x1="0.5" y1="-0.5" x2="57.1892" y2="-0.5" transform="matrix(0.783862 -0.620936 0.621854 0.783134 161.78 206.187)" stroke="white" stroke-linecap="round"/>
<line x1="0.5" y1="-0.5" x2="57.1892" y2="-0.5" transform="matrix(0.783862 -0.620936 0.621854 0.783134 161.78 205.149)" stroke="white" stroke-linecap="round"/>
<line x1="0.5" y1="-0.5" x2="57.1892" y2="-0.5" transform="matrix(0.783862 -0.620936 0.621854 0.783134 161.78 204.111)" stroke="white" stroke-linecap="round"/>
<line x1="0.5" y1="-0.5" x2="57.1892" y2="-0.5" transform="matrix(0.783862 -0.620936 0.621854 0.783134 161.78 203.072)" stroke="white" stroke-linecap="round"/>
<line x1="0.5" y1="-0.5" x2="57.1892" y2="-0.5" transform="matrix(0.783862 -0.620936 0.621854 0.783133 161.78 202.034)" stroke="white" stroke-linecap="round"/>
<line x1="0.5" y1="-0.5" x2="57.1892" y2="-0.5" transform="matrix(0.783862 -0.620936 0.621854 0.783133 161.78 200.996)" stroke="white" stroke-linecap="round"/>
<line x1="0.5" y1="-0.5" x2="57.1892" y2="-0.5" transform="matrix(0.783862 -0.620936 0.621854 0.783133 161.78 199.958)" stroke="white" stroke-linecap="round"/>
<line x1="0.5" y1="-0.5" x2="57.1892" y2="-0.5" transform="matrix(0.783862 -0.620936 0.621854 0.783133 161.78 198.919)" stroke="white" stroke-linecap="round"/>
<line x1="0.5" y1="-0.5" x2="57.1892" y2="-0.5" transform="matrix(0.783862 -0.620936 0.621854 0.783133 161.78 197.881)" stroke="white" stroke-linecap="round"/>
<line x1="0.5" y1="-0.5" x2="57.1892" y2="-0.5" transform="matrix(0.783862 -0.620936 0.621854 0.783134 161.78 196.843)" stroke="white" stroke-linecap="round"/>
<line x1="0.5" y1="-0.5" x2="57.1892" y2="-0.5" transform="matrix(0.783862 -0.620936 0.621854 0.783134 161.78 195.804)" stroke="white" stroke-linecap="round"/>
<line x1="0.5" y1="-0.5" x2="57.1892" y2="-0.5" transform="matrix(0.783862 -0.620936 0.621854 0.783134 161.78 194.766)" stroke="white" stroke-linecap="round"/>
<line x1="0.5" y1="-0.5" x2="57.1892" y2="-0.5" transform="matrix(0.783862 -0.620936 0.621854 0.783134 161.78 193.728)" stroke="white" stroke-linecap="round"/>
<line x1="0.5" y1="-0.5" x2="57.1892" y2="-0.5" transform="matrix(0.783862 -0.620936 0.621854 0.783133 161.78 192.689)" stroke="white" stroke-linecap="round"/>
<line x1="0.5" y1="-0.5" x2="57.1892" y2="-0.5" transform="matrix(0.783862 -0.620936 0.621854 0.783133 161.78 191.651)" stroke="white" stroke-linecap="round"/>
<line x1="0.5" y1="-0.5" x2="57.1892" y2="-0.5" transform="matrix(0.783862 -0.620936 0.621854 0.783133 161.78 190.613)" stroke="white" stroke-linecap="round"/>
<line x1="0.5" y1="-0.5" x2="57.1892" y2="-0.5" transform="matrix(0.783862 -0.620936 0.621854 0.783133 161.78 189.574)" stroke="white" stroke-linecap="round"/>
<line x1="0.5" y1="-0.5" x2="57.1892" y2="-0.5" transform="matrix(0.783862 -0.620936 0.621854 0.783133 161.78 188.536)" stroke="white" stroke-linecap="round"/>
<line x1="0.5" y1="-0.5" x2="57.1892" y2="-0.5" transform="matrix(0.783862 -0.620936 0.621854 0.783134 161.78 187.498)" stroke="white" stroke-linecap="round"/>
<line x1="0.5" y1="-0.5" x2="57.1892" y2="-0.5" transform="matrix(0.783862 -0.620936 0.621854 0.783134 161.78 186.459)" stroke="white" stroke-linecap="round"/>
<line x1="0.5" y1="-0.5" x2="57.1892" y2="-0.5" transform="matrix(0.783862 -0.620936 0.621854 0.783134 161.78 185.421)" stroke="white" stroke-linecap="round"/>
<line x1="0.5" y1="-0.5" x2="57.1892" y2="-0.5" transform="matrix(0.783862 -0.620936 0.621854 0.783133 161.78 184.383)" stroke="white" stroke-linecap="round"/>
<line x1="0.5" y1="-0.5" x2="57.1892" y2="-0.5" transform="matrix(0.783862 -0.620936 0.621854 0.783133 161.78 183.345)" stroke="white" stroke-linecap="round"/>
<line x1="0.5" y1="-0.5" x2="57.1892" y2="-0.5" transform="matrix(0.783862 -0.620936 0.621854 0.783134 161.78 182.306)" stroke="white" stroke-linecap="round"/>
<line x1="0.5" y1="-0.5" x2="57.1892" y2="-0.5" transform="matrix(0.783862 -0.620936 0.621854 0.783134 161.78 181.268)" stroke="white" stroke-linecap="round"/>
<line x1="0.5" y1="-0.5" x2="50.1445" y2="-0.5" transform="matrix(0.800528 -0.599295 0.643293 0.76562 161.78 174.519)" stroke="white" stroke-linecap="round"/>
<line x1="0.5" y1="-0.5" x2="50.1445" y2="-0.5" transform="matrix(0.800528 -0.599295 0.643293 0.76562 161.78 173.639)" stroke="white" stroke-linecap="round"/>
<line x1="0.5" y1="-0.5" x2="50.1445" y2="-0.5" transform="matrix(0.800528 -0.599295 0.643293 0.76562 161.78 172.76)" stroke="white" stroke-linecap="round"/>
<line x1="0.5" y1="-0.5" x2="50.1445" y2="-0.5" transform="matrix(0.800528 -0.599295 0.643293 0.76562 161.78 171.88)" stroke="white" stroke-linecap="round"/>
<line x1="0.5" y1="-0.5" x2="50.1445" y2="-0.5" transform="matrix(0.800528 -0.599295 0.643293 0.76562 161.78 171)" stroke="white" stroke-linecap="round"/>
<line x1="0.5" y1="-0.5" x2="50.1445" y2="-0.5" transform="matrix(0.800528 -0.599295 0.643293 0.76562 161.78 170.12)" stroke="white" stroke-linecap="round"/>
<line x1="0.5" y1="-0.5" x2="50.1445" y2="-0.5" transform="matrix(0.800528 -0.599295 0.643293 0.76562 161.78 169.241)" stroke="white" stroke-linecap="round"/>
<line x1="0.5" y1="-0.5" x2="50.1445" y2="-0.5" transform="matrix(0.800528 -0.599295 0.643293 0.76562 161.78 168.361)" stroke="white" stroke-linecap="round"/>
<line x1="0.5" y1="-0.5" x2="50.1445" y2="-0.5" transform="matrix(0.800528 -0.599295 0.643293 0.76562 161.78 167.481)" stroke="white" stroke-linecap="round"/>
<line x1="0.5" y1="-0.5" x2="50.1445" y2="-0.5" transform="matrix(0.800528 -0.599295 0.643293 0.76562 161.78 166.602)" stroke="white" stroke-linecap="round"/>
<line x1="0.5" y1="-0.5" x2="50.1445" y2="-0.5" transform="matrix(0.800528 -0.599295 0.643293 0.76562 161.78 165.722)" stroke="white" stroke-linecap="round"/>
<line x1="0.5" y1="-0.5" x2="50.1445" y2="-0.5" transform="matrix(0.800528 -0.599295 0.643293 0.76562 161.78 164.842)" stroke="white" stroke-linecap="round"/>
<line x1="0.5" y1="-0.5" x2="50.1445" y2="-0.5" transform="matrix(0.800528 -0.599295 0.643293 0.76562 161.78 163.962)" stroke="white" stroke-linecap="round"/>
<line x1="0.5" y1="-0.5" x2="50.1445" y2="-0.5" transform="matrix(0.800528 -0.599295 0.643293 0.76562 161.78 163.083)" stroke="white" stroke-linecap="round"/>
<line x1="0.5" y1="-0.5" x2="50.1445" y2="-0.5" transform="matrix(0.800528 -0.599295 0.643293 0.76562 161.78 162.203)" stroke="white" stroke-linecap="round"/>
<line x1="0.5" y1="-0.5" x2="50.1445" y2="-0.5" transform="matrix(0.800528 -0.599295 0.643293 0.76562 161.78 161.323)" stroke="white" stroke-linecap="round"/>
<line x1="0.5" y1="-0.5" x2="50.1445" y2="-0.5" transform="matrix(0.800528 -0.599295 0.643293 0.76562 161.78 160.443)" stroke="white" stroke-linecap="round"/>
<line x1="0.5" y1="-0.5" x2="50.1445" y2="-0.5" transform="matrix(0.800528 -0.599295 0.643293 0.76562 161.78 159.563)" stroke="white" stroke-linecap="round"/>
<line x1="0.5" y1="-0.5" x2="50.1445" y2="-0.5" transform="matrix(0.800528 -0.599295 0.643293 0.76562 161.78 158.684)" stroke="white" stroke-linecap="round"/>
<line x1="0.5" y1="-0.5" x2="50.1445" y2="-0.5" transform="matrix(0.800528 -0.599295 0.643293 0.76562 161.78 157.804)" stroke="white" stroke-linecap="round"/>
<line x1="0.5" y1="-0.5" x2="50.1445" y2="-0.5" transform="matrix(0.800528 -0.599295 0.643293 0.76562 161.78 156.924)" stroke="white" stroke-linecap="round"/>
<line x1="0.5" y1="-0.5" x2="50.1445" y2="-0.5" transform="matrix(0.800528 -0.599295 0.643293 0.76562 161.78 156.045)" stroke="white" stroke-linecap="round"/>
<line x1="0.5" y1="-0.5" x2="50.1445" y2="-0.5" transform="matrix(0.800528 -0.599295 0.643293 0.76562 161.78 155.165)" stroke="white" stroke-linecap="round"/>
<line x1="0.5" y1="-0.5" x2="50.1445" y2="-0.5" transform="matrix(0.800528 -0.599295 0.643293 0.76562 161.78 154.285)" stroke="white" stroke-linecap="round"/>
<line x1="0.5" y1="-0.5" x2="50.1445" y2="-0.5" transform="matrix(0.800528 -0.599295 0.643293 0.76562 161.78 153.405)" stroke="white" stroke-linecap="round"/>
<line x1="0.5" y1="-0.5" x2="50.1445" y2="-0.5" transform="matrix(0.800528 -0.599295 0.643293 0.76562 161.78 152.526)" stroke="white" stroke-linecap="round"/>
<line x1="0.5" y1="-0.5" x2="50.1445" y2="-0.5" transform="matrix(0.800528 -0.599295 0.643293 0.76562 161.78 151.646)" stroke="white" stroke-linecap="round"/>
<line x1="0.5" y1="-0.5" x2="50.1445" y2="-0.5" transform="matrix(0.800528 -0.599295 0.643293 0.76562 161.78 150.766)" stroke="white" stroke-linecap="round"/>
<line x1="0.5" y1="-0.5" x2="50.1445" y2="-0.5" transform="matrix(0.800528 -0.599295 0.643293 0.76562 161.78 149.886)" stroke="white" stroke-linecap="round"/>
<line x1="0.5" y1="-0.5" x2="50.1445" y2="-0.5" transform="matrix(0.800528 -0.599295 0.643293 0.76562 161.78 149.007)" stroke="white" stroke-linecap="round"/>
<line x1="0.5" y1="-0.5" x2="50.1445" y2="-0.5" transform="matrix(0.800528 -0.599295 0.643293 0.76562 161.78 148.127)" stroke="white" stroke-linecap="round"/>
<line x1="0.5" y1="-0.5" x2="50.1445" y2="-0.5" transform="matrix(0.800528 -0.599295 0.643293 0.76562 161.78 147.247)" stroke="white" stroke-linecap="round"/>
<line x1="0.5" y1="-0.5" x2="50.1445" y2="-0.5" transform="matrix(0.800528 -0.599295 0.643293 0.76562 161.78 146.367)" stroke="white" stroke-linecap="round"/>
<line x1="0.5" y1="-0.5" x2="50.1445" y2="-0.5" transform="matrix(0.800528 -0.599295 0.643293 0.76562 161.78 145.488)" stroke="white" stroke-linecap="round"/>
<line x1="0.5" y1="-0.5" x2="50.1445" y2="-0.5" transform="matrix(0.800528 -0.599295 0.643293 0.76562 161.78 144.608)" stroke="white" stroke-linecap="round"/>
<line x1="0.5" y1="-0.5" x2="50.1445" y2="-0.5" transform="matrix(0.800528 -0.599295 0.643293 0.76562 161.78 143.728)" stroke="white" stroke-linecap="round"/>
<line x1="0.5" y1="-0.5" x2="50.1445" y2="-0.5" transform="matrix(0.800528 -0.599295 0.643293 0.76562 161.78 142.848)" stroke="white" stroke-linecap="round"/>
<line x1="0.5" y1="-0.5" x2="50.1445" y2="-0.5" transform="matrix(0.800528 -0.599295 0.643293 0.76562 161.78 141.969)" stroke="white" stroke-linecap="round"/>
<line x1="0.5" y1="-0.5" x2="50.1445" y2="-0.5" transform="matrix(0.800528 -0.599295 0.643293 0.76562 161.78 141.089)" stroke="white" stroke-linecap="round"/>
<line x1="0.5" y1="-0.5" x2="50.1445" y2="-0.5" transform="matrix(0.800528 -0.599295 0.643293 0.76562 161.78 140.209)" stroke="white" stroke-linecap="round"/>
<line x1="0.5" y1="-0.5" x2="50.1445" y2="-0.5" transform="matrix(0.800528 -0.599295 0.643293 0.76562 161.78 139.33)" stroke="white" stroke-linecap="round"/>
<line x1="0.5" y1="-0.5" x2="50.1445" y2="-0.5" transform="matrix(0.800528 -0.599295 0.643293 0.76562 161.78 138.45)" stroke="white" stroke-linecap="round"/>
<line x1="0.5" y1="-0.5" x2="50.1445" y2="-0.5" transform="matrix(0.800528 -0.599295 0.643293 0.76562 161.78 137.57)" stroke="white" stroke-linecap="round"/>
<line x1="0.5" y1="-0.5" x2="50.1445" y2="-0.5" transform="matrix(0.800528 -0.599295 0.643293 0.76562 161.78 136.69)" stroke="white" stroke-linecap="round"/>
<line x1="0.5" y1="-0.5" x2="50.1445" y2="-0.5" transform="matrix(0.800528 -0.599295 0.643293 0.76562 161.78 135.811)" stroke="white" stroke-linecap="round"/>
<line x1="0.5" y1="-0.5" x2="50.1445" y2="-0.5" transform="matrix(0.800528 -0.599295 0.643293 0.76562 161.78 134.931)" stroke="white" stroke-linecap="round"/>
<line x1="0.5" y1="-0.5" x2="50.1445" y2="-0.5" transform="matrix(0.800528 -0.599295 0.643293 0.76562 161.78 134.051)" stroke="white" stroke-linecap="round"/>
<line x1="0.5" y1="-0.5" x2="50.1445" y2="-0.5" transform="matrix(0.800528 -0.599295 0.643293 0.76562 161.78 133.171)" stroke="white" stroke-linecap="round"/>
<line x1="0.5" y1="-0.5" x2="50.1445" y2="-0.5" transform="matrix(0.800528 -0.599295 0.643293 0.76562 161.78 132.292)" stroke="white" stroke-linecap="round"/>
<line x1="0.5" y1="-0.5" x2="50.1445" y2="-0.5" transform="matrix(0.800528 -0.599295 0.643293 0.76562 161.78 131.412)" stroke="white" stroke-linecap="round"/>
<line x1="0.5" y1="-0.5" x2="50.1445" y2="-0.5" transform="matrix(0.800528 -0.599295 0.643293 0.76562 161.78 130.532)" stroke="white" stroke-linecap="round"/>
<line x1="0.5" y1="-0.5" x2="50.1445" y2="-0.5" transform="matrix(0.800528 -0.599295 0.643293 0.76562 161.78 129.652)" stroke="white" stroke-linecap="round"/>
<line x1="0.5" y1="-0.5" x2="50.1445" y2="-0.5" transform="matrix(0.800528 -0.599295 0.643293 0.76562 161.78 128.773)" stroke="white" stroke-linecap="round"/>
<line x1="0.5" y1="-0.5" x2="50.1445" y2="-0.5" transform="matrix(0.800528 -0.599295 0.643293 0.76562 161.78 127.893)" stroke="white" stroke-linecap="round"/>
<line x1="0.5" y1="-0.5" x2="50.1445" y2="-0.5" transform="matrix(0.800528 -0.599295 0.643293 0.76562 161.78 127.013)" stroke="white" stroke-linecap="round"/>
<line x1="0.5" y1="-0.5" x2="50.1445" y2="-0.5" transform="matrix(0.800528 -0.599295 0.643293 0.76562 161.78 126.134)" stroke="white" stroke-linecap="round"/>
<line x1="0.5" y1="-0.5" x2="50.1445" y2="-0.5" transform="matrix(0.800528 -0.599295 0.643293 0.76562 161.78 125.254)" stroke="white" stroke-linecap="round"/>
<line x1="0.5" y1="-0.5" x2="50.1445" y2="-0.5" transform="matrix(0.800528 -0.599295 0.643293 0.76562 161.78 124.374)" stroke="white" stroke-linecap="round"/>
<line x1="0.5" y1="-0.5" x2="50.1445" y2="-0.5" transform="matrix(0.800528 -0.599295 0.643293 0.76562 161.78 123.494)" stroke="white" stroke-linecap="round"/>
<line x1="0.5" y1="-0.5" x2="50.1445" y2="-0.5" transform="matrix(0.800528 -0.599295 0.643293 0.76562 161.78 122.615)" stroke="white" stroke-linecap="round"/>
<line x1="0.5" y1="-0.5" x2="50.1445" y2="-0.5" transform="matrix(0.800528 -0.599295 0.643293 0.76562 161.78 121.735)" stroke="white" stroke-linecap="round"/>
<line x1="0.5" y1="-0.5" x2="50.1445" y2="-0.5" transform="matrix(0.800528 -0.599295 0.643293 0.76562 161.78 120.855)" stroke="white" stroke-linecap="round"/>
<line x1="0.5" y1="-0.5" x2="50.1445" y2="-0.5" transform="matrix(0.800528 -0.599295 0.643293 0.76562 161.78 119.975)" stroke="white" stroke-linecap="round"/>
<line x1="0.5" y1="-0.5" x2="50.1445" y2="-0.5" transform="matrix(0.800528 -0.599295 0.643293 0.76562 161.78 119.095)" stroke="white" stroke-linecap="round"/>
<line x1="0.5" y1="-0.5" x2="50.1445" y2="-0.5" transform="matrix(0.800528 -0.599295 0.643293 0.76562 161.78 118.216)" stroke="white" stroke-linecap="round"/>
<line x1="0.5" y1="-0.5" x2="50.1445" y2="-0.5" transform="matrix(0.800528 -0.599295 0.643293 0.76562 161.78 117.336)" stroke="white" stroke-linecap="round"/>
<line x1="0.5" y1="-0.5" x2="50.1445" y2="-0.5" transform="matrix(0.800528 -0.599295 0.643293 0.76562 161.78 116.456)" stroke="white" stroke-linecap="round"/>
<line x1="0.5" y1="-0.5" x2="50.1445" y2="-0.5" transform="matrix(0.800528 -0.599295 0.643293 0.76562 161.78 115.577)" stroke="white" stroke-linecap="round"/>
<line x1="0.25" y1="-0.25" x2="34.7131" y2="-0.25" transform="matrix(0.802784 -0.59627 0.64626 0.763118 161.78 113.027)" stroke="white" stroke-width="0.5" stroke-linecap="round"/>
<line x1="0.25" y1="-0.25" x2="34.7131" y2="-0.25" transform="matrix(0.802784 -0.59627 0.64626 0.763118 161.78 112.423)" stroke="white" stroke-width="0.5" stroke-linecap="round"/>
<line x1="0.25" y1="-0.25" x2="34.7131" y2="-0.25" transform="matrix(0.802784 -0.59627 0.64626 0.763118 161.78 111.818)" stroke="white" stroke-width="0.5" stroke-linecap="round"/>
<line x1="0.25" y1="-0.25" x2="34.7131" y2="-0.25" transform="matrix(0.802784 -0.59627 0.64626 0.763118 161.78 111.214)" stroke="white" stroke-width="0.5" stroke-linecap="round"/>
<line x1="0.25" y1="-0.25" x2="34.7131" y2="-0.25" transform="matrix(0.802784 -0.59627 0.64626 0.763118 161.78 110.61)" stroke="white" stroke-width="0.5" stroke-linecap="round"/>
<line x1="0.25" y1="-0.25" x2="34.7131" y2="-0.25" transform="matrix(0.802784 -0.59627 0.64626 0.763118 161.78 110.005)" stroke="white" stroke-width="0.5" stroke-linecap="round"/>
<line x1="0.25" y1="-0.25" x2="34.7131" y2="-0.25" transform="matrix(0.802784 -0.59627 0.64626 0.763118 161.78 109.401)" stroke="white" stroke-width="0.5" stroke-linecap="round"/>
<line x1="0.25" y1="-0.25" x2="34.7131" y2="-0.25" transform="matrix(0.802784 -0.59627 0.64626 0.763118 161.78 108.797)" stroke="white" stroke-width="0.5" stroke-linecap="round"/>
<line x1="0.25" y1="-0.25" x2="34.7131" y2="-0.25" transform="matrix(0.802784 -0.59627 0.64626 0.763118 161.78 108.193)" stroke="white" stroke-width="0.5" stroke-linecap="round"/>
<line x1="0.25" y1="-0.25" x2="34.7131" y2="-0.25" transform="matrix(0.802784 -0.59627 0.64626 0.763118 161.78 107.588)" stroke="white" stroke-width="0.5" stroke-linecap="round"/>
<line x1="0.25" y1="-0.25" x2="34.7131" y2="-0.25" transform="matrix(0.802784 -0.59627 0.64626 0.763118 161.78 106.984)" stroke="white" stroke-width="0.5" stroke-linecap="round"/>
<line x1="0.25" y1="-0.25" x2="34.7131" y2="-0.25" transform="matrix(0.802784 -0.59627 0.64626 0.763118 161.78 106.38)" stroke="white" stroke-width="0.5" stroke-linecap="round"/>
<line x1="0.25" y1="-0.25" x2="34.7131" y2="-0.25" transform="matrix(0.802784 -0.59627 0.64626 0.763118 161.78 105.776)" stroke="white" stroke-width="0.5" stroke-linecap="round"/>
<line x1="0.25" y1="-0.25" x2="34.7131" y2="-0.25" transform="matrix(0.802784 -0.59627 0.64626 0.763118 161.78 105.171)" stroke="white" stroke-width="0.5" stroke-linecap="round"/>
<line x1="0.25" y1="-0.25" x2="34.7131" y2="-0.25" transform="matrix(0.802784 -0.59627 0.64626 0.763118 161.78 104.567)" stroke="white" stroke-width="0.5" stroke-linecap="round"/>
<line x1="0.25" y1="-0.25" x2="34.7131" y2="-0.25" transform="matrix(0.802784 -0.59627 0.64626 0.763118 161.78 103.963)" stroke="white" stroke-width="0.5" stroke-linecap="round"/>
<line x1="0.25" y1="-0.25" x2="34.7131" y2="-0.25" transform="matrix(0.802784 -0.59627 0.64626 0.763118 161.78 103.358)" stroke="white" stroke-width="0.5" stroke-linecap="round"/>
<line x1="0.25" y1="-0.25" x2="34.7131" y2="-0.25" transform="matrix(0.802784 -0.59627 0.64626 0.763118 161.78 102.754)" stroke="white" stroke-width="0.5" stroke-linecap="round"/>
<line x1="0.25" y1="-0.25" x2="34.7131" y2="-0.25" transform="matrix(0.802784 -0.59627 0.64626 0.763118 161.78 102.15)" stroke="white" stroke-width="0.5" stroke-linecap="round"/>
<line x1="0.25" y1="-0.25" x2="34.7131" y2="-0.25" transform="matrix(0.802784 -0.59627 0.64626 0.763118 161.78 101.546)" stroke="white" stroke-width="0.5" stroke-linecap="round"/>
<line x1="0.25" y1="-0.25" x2="34.7131" y2="-0.25" transform="matrix(0.802784 -0.59627 0.64626 0.763118 161.78 100.941)" stroke="white" stroke-width="0.5" stroke-linecap="round"/>
<line x1="0.25" y1="-0.25" x2="34.7131" y2="-0.25" transform="matrix(0.802784 -0.59627 0.64626 0.763118 161.78 100.337)" stroke="white" stroke-width="0.5" stroke-linecap="round"/>
<line x1="0.25" y1="-0.25" x2="34.7131" y2="-0.25" transform="matrix(0.802784 -0.59627 0.64626 0.763118 161.78 99.7329)" stroke="white" stroke-width="0.5" stroke-linecap="round"/>
<line x1="0.25" y1="-0.25" x2="34.7131" y2="-0.25" transform="matrix(0.802784 -0.59627 0.64626 0.763118 161.78 99.1287)" stroke="white" stroke-width="0.5" stroke-linecap="round"/>
<line x1="0.25" y1="-0.25" x2="34.7131" y2="-0.25" transform="matrix(0.802784 -0.59627 0.64626 0.763118 161.78 98.5242)" stroke="white" stroke-width="0.5" stroke-linecap="round"/>
<line x1="0.25" y1="-0.25" x2="34.7131" y2="-0.25" transform="matrix(0.802784 -0.59627 0.64626 0.763118 161.78 97.9199)" stroke="white" stroke-width="0.5" stroke-linecap="round"/>
<line x1="0.25" y1="-0.25" x2="34.7131" y2="-0.25" transform="matrix(0.802784 -0.59627 0.64626 0.763118 161.78 97.3157)" stroke="white" stroke-width="0.5" stroke-linecap="round"/>
<line x1="0.25" y1="-0.25" x2="34.7131" y2="-0.25" transform="matrix(0.802784 -0.59627 0.64626 0.763118 161.78 96.7114)" stroke="white" stroke-width="0.5" stroke-linecap="round"/>
<line x1="0.25" y1="-0.25" x2="34.7131" y2="-0.25" transform="matrix(0.802784 -0.59627 0.64626 0.763118 161.78 96.1072)" stroke="white" stroke-width="0.5" stroke-linecap="round"/>
<line x1="0.25" y1="-0.25" x2="34.7131" y2="-0.25" transform="matrix(0.802784 -0.59627 0.64626 0.763118 161.78 95.5029)" stroke="white" stroke-width="0.5" stroke-linecap="round"/>
<line x1="0.25" y1="-0.25" x2="34.7131" y2="-0.25" transform="matrix(0.802784 -0.59627 0.64626 0.763118 161.78 94.8987)" stroke="white" stroke-width="0.5" stroke-linecap="round"/>
<line x1="0.25" y1="-0.25" x2="34.7131" y2="-0.25" transform="matrix(0.802784 -0.59627 0.64626 0.763118 161.78 94.2944)" stroke="white" stroke-width="0.5" stroke-linecap="round"/>
<line x1="0.25" y1="-0.25" x2="34.7131" y2="-0.25" transform="matrix(0.802784 -0.59627 0.64626 0.763118 161.78 93.6902)" stroke="white" stroke-width="0.5" stroke-linecap="round"/>
<line x1="0.25" y1="-0.25" x2="34.7131" y2="-0.25" transform="matrix(0.802784 -0.59627 0.64626 0.763118 161.78 93.0859)" stroke="white" stroke-width="0.5" stroke-linecap="round"/>
<line x1="0.25" y1="-0.25" x2="34.7131" y2="-0.25" transform="matrix(0.802784 -0.59627 0.64626 0.763118 161.78 92.4814)" stroke="white" stroke-width="0.5" stroke-linecap="round"/>
<line x1="0.25" y1="-0.25" x2="34.7131" y2="-0.25" transform="matrix(0.802784 -0.59627 0.64626 0.763118 161.78 91.8772)" stroke="white" stroke-width="0.5" stroke-linecap="round"/>
<line x1="0.25" y1="-0.25" x2="34.7131" y2="-0.25" transform="matrix(0.802784 -0.59627 0.64626 0.763118 161.78 91.2729)" stroke="white" stroke-width="0.5" stroke-linecap="round"/>
<line x1="0.25" y1="-0.25" x2="34.7131" y2="-0.25" transform="matrix(0.802784 -0.59627 0.64626 0.763118 161.78 90.6687)" stroke="white" stroke-width="0.5" stroke-linecap="round"/>
<line x1="0.25" y1="-0.25" x2="34.7131" y2="-0.25" transform="matrix(0.802784 -0.59627 0.64626 0.763118 161.78 90.0645)" stroke="white" stroke-width="0.5" stroke-linecap="round"/>
<line x1="0.25" y1="-0.25" x2="34.7131" y2="-0.25" transform="matrix(0.802784 -0.59627 0.64626 0.763118 161.78 89.4602)" stroke="white" stroke-width="0.5" stroke-linecap="round"/>
<line x1="0.15" y1="-0.15" x2="28.4848" y2="-0.15" transform="matrix(0.500451 -0.865765 0.799045 0.601272 162.299 88.9973)" stroke="white" stroke-width="0.3" stroke-linecap="round"/>
<line x1="0.15" y1="-0.15" x2="28.4848" y2="-0.15" transform="matrix(0.500451 -0.865765 0.799045 0.601272 162.299 88.4424)" stroke="white" stroke-width="0.3" stroke-linecap="round"/>
<line x1="0.15" y1="-0.15" x2="28.4848" y2="-0.15" transform="matrix(0.500451 -0.865765 0.799045 0.601272 162.299 87.8877)" stroke="white" stroke-width="0.3" stroke-linecap="round"/>
<line x1="0.15" y1="-0.15" x2="28.4848" y2="-0.15" transform="matrix(0.500451 -0.865765 0.799045 0.601272 162.299 87.3328)" stroke="white" stroke-width="0.3" stroke-linecap="round"/>
<line x1="0.15" y1="-0.15" x2="28.4848" y2="-0.15" transform="matrix(0.500451 -0.865765 0.799045 0.601272 162.299 86.7778)" stroke="white" stroke-width="0.3" stroke-linecap="round"/>
<line x1="0.15" y1="-0.15" x2="28.4848" y2="-0.15" transform="matrix(0.500451 -0.865765 0.799045 0.601272 162.299 86.2231)" stroke="white" stroke-width="0.3" stroke-linecap="round"/>
<line x1="0.15" y1="-0.15" x2="28.4848" y2="-0.15" transform="matrix(0.500451 -0.865765 0.799045 0.601272 162.299 85.6682)" stroke="white" stroke-width="0.3" stroke-linecap="round"/>
<line x1="0.15" y1="-0.15" x2="28.4848" y2="-0.15" transform="matrix(0.500451 -0.865765 0.799045 0.601272 162.299 85.1135)" stroke="white" stroke-width="0.3" stroke-linecap="round"/>
<line x1="0.15" y1="-0.15" x2="28.4848" y2="-0.15" transform="matrix(0.500451 -0.865765 0.799045 0.601272 162.299 84.5586)" stroke="white" stroke-width="0.3" stroke-linecap="round"/>
<line x1="0.15" y1="-0.15" x2="28.4848" y2="-0.15" transform="matrix(0.500451 -0.865765 0.799045 0.601272 162.299 84.0037)" stroke="white" stroke-width="0.3" stroke-linecap="round"/>
<line x1="0.15" y1="-0.15" x2="28.4848" y2="-0.15" transform="matrix(0.500451 -0.865765 0.799045 0.601272 162.299 83.449)" stroke="white" stroke-width="0.3" stroke-linecap="round"/>
<line x1="0.15" y1="-0.15" x2="28.4848" y2="-0.15" transform="matrix(0.500451 -0.865765 0.799045 0.601272 162.299 82.894)" stroke="white" stroke-width="0.3" stroke-linecap="round"/>
<line x1="0.15" y1="-0.15" x2="28.4848" y2="-0.15" transform="matrix(0.500451 -0.865765 0.799045 0.601272 162.299 82.3394)" stroke="white" stroke-width="0.3" stroke-linecap="round"/>
<line x1="0.15" y1="-0.15" x2="28.4848" y2="-0.15" transform="matrix(0.500451 -0.865765 0.799045 0.601272 162.299 81.7844)" stroke="white" stroke-width="0.3" stroke-linecap="round"/>
<line x1="0.15" y1="-0.15" x2="28.4848" y2="-0.15" transform="matrix(0.500451 -0.865765 0.799045 0.601272 162.299 81.2297)" stroke="white" stroke-width="0.3" stroke-linecap="round"/>
<line x1="0.15" y1="-0.15" x2="28.4848" y2="-0.15" transform="matrix(0.500451 -0.865765 0.799045 0.601272 162.299 80.6748)" stroke="white" stroke-width="0.3" stroke-linecap="round"/>
<line x1="0.15" y1="-0.15" x2="28.4848" y2="-0.15" transform="matrix(0.500451 -0.865765 0.799045 0.601272 162.299 80.1199)" stroke="white" stroke-width="0.3" stroke-linecap="round"/>
<line x1="0.15" y1="-0.15" x2="28.4848" y2="-0.15" transform="matrix(0.500451 -0.865765 0.799045 0.601272 162.299 79.5652)" stroke="white" stroke-width="0.3" stroke-linecap="round"/>
<line x1="0.15" y1="-0.15" x2="28.4848" y2="-0.15" transform="matrix(0.500451 -0.865765 0.799045 0.601272 162.299 79.0103)" stroke="white" stroke-width="0.3" stroke-linecap="round"/>
<line x1="0.15" y1="-0.15" x2="28.4848" y2="-0.15" transform="matrix(0.500451 -0.865765 0.799045 0.601272 162.299 78.4556)" stroke="white" stroke-width="0.3" stroke-linecap="round"/>
<line x1="0.15" y1="-0.15" x2="28.4848" y2="-0.15" transform="matrix(0.500451 -0.865765 0.799045 0.601272 162.299 77.9006)" stroke="white" stroke-width="0.3" stroke-linecap="round"/>
<line x1="0.15" y1="-0.15" x2="28.4848" y2="-0.15" transform="matrix(0.500451 -0.865765 0.799045 0.601272 162.299 77.3457)" stroke="white" stroke-width="0.3" stroke-linecap="round"/>
<line x1="0.15" y1="-0.15" x2="28.4848" y2="-0.15" transform="matrix(0.500451 -0.865765 0.799045 0.601272 162.299 76.791)" stroke="white" stroke-width="0.3" stroke-linecap="round"/>
<line x1="0.5" y1="-0.5" x2="54.0068" y2="-0.5" transform="matrix(-0.839163 -0.54388 -0.696449 0.717607 160.74 249.222)" stroke="white" stroke-linecap="round"/>
<line x1="0.5" y1="-0.5" x2="54.0068" y2="-0.5" transform="matrix(-0.839163 -0.54388 -0.696449 0.717607 160.74 248.263)" stroke="white" stroke-linecap="round"/>
<line x1="0.5" y1="-0.5" x2="54.0068" y2="-0.5" transform="matrix(-0.839163 -0.54388 -0.696449 0.717607 160.74 247.304)" stroke="white" stroke-linecap="round"/>
<line x1="0.5" y1="-0.5" x2="54.0068" y2="-0.5" transform="matrix(-0.839163 -0.54388 -0.696449 0.717607 160.74 246.344)" stroke="white" stroke-linecap="round"/>
<line x1="0.5" y1="-0.5" x2="54.0068" y2="-0.5" transform="matrix(-0.839163 -0.54388 -0.696449 0.717607 160.74 245.385)" stroke="white" stroke-linecap="round"/>
<line x1="0.5" y1="-0.5" x2="54.0068" y2="-0.5" transform="matrix(-0.839163 -0.54388 -0.696449 0.717607 160.74 244.426)" stroke="white" stroke-linecap="round"/>
<line x1="0.5" y1="-0.5" x2="54.0068" y2="-0.5" transform="matrix(-0.839163 -0.54388 -0.696449 0.717607 160.74 243.467)" stroke="white" stroke-linecap="round"/>
<line x1="0.5" y1="-0.5" x2="54.0068" y2="-0.5" transform="matrix(-0.839163 -0.54388 -0.696449 0.717607 160.74 242.508)" stroke="white" stroke-linecap="round"/>
<line x1="0.5" y1="-0.5" x2="54.0068" y2="-0.5" transform="matrix(-0.839163 -0.54388 -0.696449 0.717607 160.74 241.548)" stroke="white" stroke-linecap="round"/>
<line x1="0.5" y1="-0.5" x2="54.0068" y2="-0.5" transform="matrix(-0.839163 -0.54388 -0.696449 0.717607 160.74 240.589)" stroke="white" stroke-linecap="round"/>
<line x1="0.5" y1="-0.5" x2="54.0068" y2="-0.5" transform="matrix(-0.839163 -0.54388 -0.696449 0.717607 160.74 239.63)" stroke="white" stroke-linecap="round"/>
<line x1="0.5" y1="-0.5" x2="54.0068" y2="-0.5" transform="matrix(-0.839163 -0.54388 -0.696449 0.717607 160.74 238.671)" stroke="white" stroke-linecap="round"/>
<line x1="0.5" y1="-0.5" x2="54.0068" y2="-0.5" transform="matrix(-0.839163 -0.54388 -0.696449 0.717607 160.74 237.712)" stroke="white" stroke-linecap="round"/>
<line x1="0.5" y1="-0.5" x2="54.0068" y2="-0.5" transform="matrix(-0.839163 -0.54388 -0.696449 0.717607 160.74 236.752)" stroke="white" stroke-linecap="round"/>
<line x1="0.5" y1="-0.5" x2="54.0068" y2="-0.5" transform="matrix(-0.839163 -0.54388 -0.696449 0.717607 160.74 235.793)" stroke="white" stroke-linecap="round"/>
<line x1="0.5" y1="-0.5" x2="54.0068" y2="-0.5" transform="matrix(-0.839163 -0.54388 -0.696449 0.717607 160.74 234.834)" stroke="white" stroke-linecap="round"/>
<line x1="0.5" y1="-0.5" x2="54.0068" y2="-0.5" transform="matrix(-0.839163 -0.54388 -0.696449 0.717607 160.74 233.875)" stroke="white" stroke-linecap="round"/>
<line x1="0.5" y1="-0.5" x2="54.0068" y2="-0.5" transform="matrix(-0.839163 -0.54388 -0.696449 0.717607 160.74 232.916)" stroke="white" stroke-linecap="round"/>
<line x1="0.5" y1="-0.5" x2="54.0068" y2="-0.5" transform="matrix(-0.839163 -0.54388 -0.696449 0.717607 160.74 231.957)" stroke="white" stroke-linecap="round"/>
<line x1="0.5" y1="-0.5" x2="54.0068" y2="-0.5" transform="matrix(-0.839163 -0.54388 -0.696449 0.717607 160.74 230.997)" stroke="white" stroke-linecap="round"/>
<line x1="0.5" y1="-0.5" x2="54.0068" y2="-0.5" transform="matrix(-0.839163 -0.54388 -0.696449 0.717607 160.74 230.038)" stroke="white" stroke-linecap="round"/>
<line x1="0.5" y1="-0.5" x2="54.0068" y2="-0.5" transform="matrix(-0.839163 -0.54388 -0.696449 0.717607 160.74 229.079)" stroke="white" stroke-linecap="round"/>
<line x1="0.5" y1="-0.5" x2="54.0068" y2="-0.5" transform="matrix(-0.839163 -0.54388 -0.696449 0.717607 160.74 228.12)" stroke="white" stroke-linecap="round"/>
<line x1="0.5" y1="-0.5" x2="54.0068" y2="-0.5" transform="matrix(-0.839163 -0.54388 -0.696449 0.717607 160.74 227.16)" stroke="white" stroke-linecap="round"/>
<line x1="0.5" y1="-0.5" x2="54.0068" y2="-0.5" transform="matrix(-0.839163 -0.54388 -0.696449 0.717607 160.74 226.201)" stroke="white" stroke-linecap="round"/>
<line x1="0.5" y1="-0.5" x2="54.0068" y2="-0.5" transform="matrix(-0.839163 -0.54388 -0.696449 0.717607 160.74 225.242)" stroke="white" stroke-linecap="round"/>
<line x1="0.5" y1="-0.5" x2="54.0068" y2="-0.5" transform="matrix(-0.839163 -0.54388 -0.696449 0.717607 160.74 224.283)" stroke="white" stroke-linecap="round"/>
<line x1="0.5" y1="-0.5" x2="54.0068" y2="-0.5" transform="matrix(-0.839163 -0.54388 -0.696449 0.717607 160.74 223.324)" stroke="white" stroke-linecap="round"/>
<line x1="0.5" y1="-0.5" x2="54.0068" y2="-0.5" transform="matrix(-0.839163 -0.54388 -0.696449 0.717607 160.74 222.365)" stroke="white" stroke-linecap="round"/>
<line x1="0.5" y1="-0.5" x2="54.0068" y2="-0.5" transform="matrix(-0.839163 -0.54388 -0.696449 0.717607 160.74 221.405)" stroke="white" stroke-linecap="round"/>
<line x1="0.5" y1="-0.5" x2="54.0068" y2="-0.5" transform="matrix(-0.839163 -0.54388 -0.696449 0.717607 160.74 220.446)" stroke="white" stroke-linecap="round"/>
<line x1="0.5" y1="-0.5" x2="54.0068" y2="-0.5" transform="matrix(-0.839163 -0.54388 -0.696449 0.717607 160.74 219.487)" stroke="white" stroke-linecap="round"/>
<line x1="0.5" y1="-0.5" x2="54.0068" y2="-0.5" transform="matrix(-0.839163 -0.54388 -0.696449 0.717607 160.74 218.528)" stroke="white" stroke-linecap="round"/>
<line x1="0.5" y1="-0.5" x2="54.0068" y2="-0.5" transform="matrix(-0.839163 -0.54388 -0.696449 0.717607 160.74 217.569)" stroke="white" stroke-linecap="round"/>
<line x1="0.5" y1="-0.5" x2="54.0068" y2="-0.5" transform="matrix(-0.839163 -0.54388 -0.696449 0.717607 160.74 216.609)" stroke="white" stroke-linecap="round"/>
<line x1="0.5" y1="-0.5" x2="54.0068" y2="-0.5" transform="matrix(-0.839163 -0.54388 -0.696449 0.717607 160.74 215.65)" stroke="white" stroke-linecap="round"/>
<line x1="0.5" y1="-0.5" x2="54.0068" y2="-0.5" transform="matrix(-0.839163 -0.54388 -0.696449 0.717607 160.74 214.691)" stroke="white" stroke-linecap="round"/>
<line x1="0.5" y1="-0.5" x2="54.0068" y2="-0.5" transform="matrix(-0.839163 -0.54388 -0.696449 0.717607 160.74 213.732)" stroke="white" stroke-linecap="round"/>
<line x1="0.5" y1="-0.5" x2="54.0068" y2="-0.5" transform="matrix(-0.839163 -0.54388 -0.696449 0.717607 160.74 212.772)" stroke="white" stroke-linecap="round"/>
<line x1="0.5" y1="-0.5" x2="54.0068" y2="-0.5" transform="matrix(-0.839163 -0.54388 -0.696449 0.717607 160.74 211.813)" stroke="white" stroke-linecap="round"/>
<line x1="0.5" y1="-0.5" x2="54.0068" y2="-0.5" transform="matrix(-0.839163 -0.54388 -0.696449 0.717607 160.74 210.854)" stroke="white" stroke-linecap="round"/>
<line x1="0.5" y1="-0.5" x2="54.0068" y2="-0.5" transform="matrix(-0.839163 -0.54388 -0.696449 0.717607 160.74 209.895)" stroke="white" stroke-linecap="round"/>
<line x1="0.5" y1="-0.5" x2="54.0068" y2="-0.5" transform="matrix(-0.839163 -0.54388 -0.696449 0.717607 160.74 208.936)" stroke="white" stroke-linecap="round"/>
<line x1="0.5" y1="-0.5" x2="54.0068" y2="-0.5" transform="matrix(-0.839163 -0.54388 -0.696449 0.717607 160.74 207.977)" stroke="white" stroke-linecap="round"/>
<line x1="0.5" y1="-0.5" x2="54.0068" y2="-0.5" transform="matrix(-0.839163 -0.54388 -0.696449 0.717607 160.74 207.017)" stroke="white" stroke-linecap="round"/>
<line x1="0.5" y1="-0.5" x2="54.0068" y2="-0.5" transform="matrix(-0.839163 -0.54388 -0.696449 0.717607 160.74 206.058)" stroke="white" stroke-linecap="round"/>
<line x1="0.5" y1="-0.5" x2="54.0068" y2="-0.5" transform="matrix(-0.839163 -0.54388 -0.696449 0.717607 160.74 205.099)" stroke="white" stroke-linecap="round"/>
<line x1="0.5" y1="-0.5" x2="54.0068" y2="-0.5" transform="matrix(-0.839163 -0.54388 -0.696449 0.717607 160.74 204.14)" stroke="white" stroke-linecap="round"/>
<line x1="0.5" y1="-0.5" x2="54.0068" y2="-0.5" transform="matrix(-0.839163 -0.54388 -0.696449 0.717607 160.74 203.181)" stroke="white" stroke-linecap="round"/>
<line x1="0.5" y1="-0.5" x2="54.0068" y2="-0.5" transform="matrix(-0.839163 -0.54388 -0.696449 0.717607 160.74 184.956)" stroke="white" stroke-linecap="round"/>
<line x1="0.5" y1="-0.5" x2="54.0068" y2="-0.5" transform="matrix(-0.839163 -0.54388 -0.696449 0.717607 160.74 202.221)" stroke="white" stroke-linecap="round"/>
<line x1="0.5" y1="-0.5" x2="54.0068" y2="-0.5" transform="matrix(-0.839163 -0.54388 -0.696449 0.717607 160.74 201.262)" stroke="white" stroke-linecap="round"/>
<line x1="0.5" y1="-0.5" x2="54.0068" y2="-0.5" transform="matrix(-0.839163 -0.54388 -0.696449 0.717607 160.74 200.303)" stroke="white" stroke-linecap="round"/>
<line x1="0.5" y1="-0.5" x2="54.0068" y2="-0.5" transform="matrix(-0.839163 -0.54388 -0.696449 0.717607 160.74 199.344)" stroke="white" stroke-linecap="round"/>
<line x1="0.5" y1="-0.5" x2="54.0068" y2="-0.5" transform="matrix(-0.839163 -0.54388 -0.696449 0.717607 160.74 198.385)" stroke="white" stroke-linecap="round"/>
<line x1="0.5" y1="-0.5" x2="54.0068" y2="-0.5" transform="matrix(-0.839163 -0.54388 -0.696449 0.717607 160.74 197.425)" stroke="white" stroke-linecap="round"/>
<line x1="0.5" y1="-0.5" x2="54.0068" y2="-0.5" transform="matrix(-0.839163 -0.54388 -0.696449 0.717607 160.74 196.466)" stroke="white" stroke-linecap="round"/>
<line x1="0.5" y1="-0.5" x2="54.0068" y2="-0.5" transform="matrix(-0.839163 -0.54388 -0.696449 0.717607 160.74 195.507)" stroke="white" stroke-linecap="round"/>
<line x1="0.5" y1="-0.5" x2="54.0068" y2="-0.5" transform="matrix(-0.839163 -0.54388 -0.696449 0.717607 160.74 194.548)" stroke="white" stroke-linecap="round"/>
<line x1="0.5" y1="-0.5" x2="54.0068" y2="-0.5" transform="matrix(-0.839163 -0.54388 -0.696449 0.717607 160.74 193.589)" stroke="white" stroke-linecap="round"/>
<line x1="0.5" y1="-0.5" x2="54.0068" y2="-0.5" transform="matrix(-0.839163 -0.54388 -0.696449 0.717607 160.74 192.629)" stroke="white" stroke-linecap="round"/>
<line x1="0.5" y1="-0.5" x2="54.0068" y2="-0.5" transform="matrix(-0.839163 -0.54388 -0.696449 0.717607 160.74 191.67)" stroke="white" stroke-linecap="round"/>
<line x1="0.5" y1="-0.5" x2="54.0068" y2="-0.5" transform="matrix(-0.839163 -0.54388 -0.696449 0.717607 160.74 190.711)" stroke="white" stroke-linecap="round"/>
<line x1="0.5" y1="-0.5" x2="54.0068" y2="-0.5" transform="matrix(-0.839163 -0.54388 -0.696449 0.717607 160.74 189.752)" stroke="white" stroke-linecap="round"/>
<line x1="0.5" y1="-0.5" x2="54.0068" y2="-0.5" transform="matrix(-0.839163 -0.54388 -0.696449 0.717607 160.74 188.792)" stroke="white" stroke-linecap="round"/>
<line x1="0.5" y1="-0.5" x2="54.0068" y2="-0.5" transform="matrix(-0.839163 -0.54388 -0.696449 0.717607 160.74 187.833)" stroke="white" stroke-linecap="round"/>
<line x1="0.5" y1="-0.5" x2="54.0068" y2="-0.5" transform="matrix(-0.839163 -0.54388 -0.696449 0.717607 160.74 186.874)" stroke="white" stroke-linecap="round"/>
<line x1="0.5" y1="-0.5" x2="54.0068" y2="-0.5" transform="matrix(-0.839163 -0.54388 -0.696449 0.717607 160.74 185.915)" stroke="white" stroke-linecap="round"/>
<line x1="0.5" y1="-0.5" x2="40.6798" y2="-0.5" transform="matrix(-0.850909 -0.525313 -0.71369 0.700462 160.956 176.596)" stroke="white" stroke-linecap="round"/>
<line x1="0.5" y1="-0.5" x2="40.6798" y2="-0.5" transform="matrix(-0.850909 -0.525313 -0.71369 0.700462 160.956 175.896)" stroke="white" stroke-linecap="round"/>
<line x1="0.5" y1="-0.5" x2="40.6798" y2="-0.5" transform="matrix(-0.850909 -0.525313 -0.71369 0.700462 160.956 175.196)" stroke="white" stroke-linecap="round"/>
<line x1="0.5" y1="-0.5" x2="40.6798" y2="-0.5" transform="matrix(-0.850909 -0.525313 -0.71369 0.700462 160.956 174.496)" stroke="white" stroke-linecap="round"/>
<line x1="0.5" y1="-0.5" x2="40.6798" y2="-0.5" transform="matrix(-0.850909 -0.525313 -0.71369 0.700462 160.956 173.796)" stroke="white" stroke-linecap="round"/>
<line x1="0.5" y1="-0.5" x2="40.6798" y2="-0.5" transform="matrix(-0.850909 -0.525313 -0.71369 0.700462 160.956 173.096)" stroke="white" stroke-linecap="round"/>
<line x1="0.5" y1="-0.5" x2="40.6798" y2="-0.5" transform="matrix(-0.850909 -0.525313 -0.71369 0.700462 160.956 172.396)" stroke="white" stroke-linecap="round"/>
<line x1="0.5" y1="-0.5" x2="40.6798" y2="-0.5" transform="matrix(-0.850909 -0.525313 -0.71369 0.700462 160.956 171.696)" stroke="white" stroke-linecap="round"/>
<line x1="0.5" y1="-0.5" x2="40.6798" y2="-0.5" transform="matrix(-0.850909 -0.525313 -0.71369 0.700462 160.956 170.996)" stroke="white" stroke-linecap="round"/>
<line x1="0.5" y1="-0.5" x2="40.6798" y2="-0.5" transform="matrix(-0.850909 -0.525313 -0.71369 0.700462 160.956 170.296)" stroke="white" stroke-linecap="round"/>
<line x1="0.5" y1="-0.5" x2="40.6798" y2="-0.5" transform="matrix(-0.850909 -0.525313 -0.71369 0.700462 160.956 169.596)" stroke="white" stroke-linecap="round"/>
<line x1="0.5" y1="-0.5" x2="40.6798" y2="-0.5" transform="matrix(-0.850909 -0.525313 -0.71369 0.700462 160.956 168.896)" stroke="white" stroke-linecap="round"/>
<line x1="0.5" y1="-0.5" x2="40.6798" y2="-0.5" transform="matrix(-0.850909 -0.525313 -0.71369 0.700462 160.956 168.197)" stroke="white" stroke-linecap="round"/>
<line x1="0.5" y1="-0.5" x2="40.6798" y2="-0.5" transform="matrix(-0.850909 -0.525313 -0.71369 0.700462 160.956 167.497)" stroke="white" stroke-linecap="round"/>
<line x1="0.5" y1="-0.5" x2="40.6798" y2="-0.5" transform="matrix(-0.850909 -0.525313 -0.71369 0.700462 160.956 166.797)" stroke="white" stroke-linecap="round"/>
<line x1="0.5" y1="-0.5" x2="40.6798" y2="-0.5" transform="matrix(-0.850909 -0.525313 -0.71369 0.700462 160.956 166.097)" stroke="white" stroke-linecap="round"/>
<line x1="0.5" y1="-0.5" x2="40.6798" y2="-0.5" transform="matrix(-0.850909 -0.525313 -0.71369 0.700462 160.956 165.397)" stroke="white" stroke-linecap="round"/>
<line x1="0.5" y1="-0.5" x2="40.6798" y2="-0.5" transform="matrix(-0.850909 -0.525313 -0.71369 0.700462 160.956 164.697)" stroke="white" stroke-linecap="round"/>
<line x1="0.5" y1="-0.5" x2="40.6798" y2="-0.5" transform="matrix(-0.850909 -0.525313 -0.71369 0.700462 160.956 163.997)" stroke="white" stroke-linecap="round"/>
<line x1="0.5" y1="-0.5" x2="40.6798" y2="-0.5" transform="matrix(-0.850909 -0.525313 -0.71369 0.700462 160.956 163.297)" stroke="white" stroke-linecap="round"/>
<line x1="0.5" y1="-0.5" x2="40.6798" y2="-0.5" transform="matrix(-0.850909 -0.525313 -0.71369 0.700462 160.956 162.597)" stroke="white" stroke-linecap="round"/>
<line x1="0.5" y1="-0.5" x2="40.6798" y2="-0.5" transform="matrix(-0.850909 -0.525313 -0.71369 0.700462 160.956 161.897)" stroke="white" stroke-linecap="round"/>
<line x1="0.5" y1="-0.5" x2="40.6798" y2="-0.5" transform="matrix(-0.850909 -0.525313 -0.71369 0.700462 160.956 161.197)" stroke="white" stroke-linecap="round"/>
<line x1="0.5" y1="-0.5" x2="40.6798" y2="-0.5" transform="matrix(-0.850909 -0.525313 -0.71369 0.700462 160.956 160.497)" stroke="white" stroke-linecap="round"/>
<line x1="0.5" y1="-0.5" x2="40.6798" y2="-0.5" transform="matrix(-0.850909 -0.525313 -0.71369 0.700462 160.956 159.797)" stroke="white" stroke-linecap="round"/>
<line x1="0.5" y1="-0.5" x2="40.6798" y2="-0.5" transform="matrix(-0.850909 -0.525313 -0.71369 0.700462 160.956 159.097)" stroke="white" stroke-linecap="round"/>
<line x1="0.5" y1="-0.5" x2="40.6798" y2="-0.5" transform="matrix(-0.850909 -0.525313 -0.71369 0.700462 160.956 158.397)" stroke="white" stroke-linecap="round"/>
<line x1="0.5" y1="-0.5" x2="40.6798" y2="-0.5" transform="matrix(-0.850909 -0.525313 -0.71369 0.700462 160.956 157.698)" stroke="white" stroke-linecap="round"/>
<line x1="0.5" y1="-0.5" x2="40.6798" y2="-0.5" transform="matrix(-0.850909 -0.525313 -0.71369 0.700462 160.956 156.998)" stroke="white" stroke-linecap="round"/>
<line x1="0.5" y1="-0.5" x2="40.6798" y2="-0.5" transform="matrix(-0.850909 -0.525313 -0.71369 0.700462 160.956 156.298)" stroke="white" stroke-linecap="round"/>
<line x1="0.5" y1="-0.5" x2="40.6798" y2="-0.5" transform="matrix(-0.850909 -0.525313 -0.71369 0.700462 160.956 155.598)" stroke="white" stroke-linecap="round"/>
<line x1="0.5" y1="-0.5" x2="40.6798" y2="-0.5" transform="matrix(-0.850909 -0.525313 -0.71369 0.700462 160.956 154.898)" stroke="white" stroke-linecap="round"/>
<line x1="0.5" y1="-0.5" x2="40.6798" y2="-0.5" transform="matrix(-0.850909 -0.525313 -0.71369 0.700462 160.956 154.198)" stroke="white" stroke-linecap="round"/>
<line x1="0.5" y1="-0.5" x2="40.6798" y2="-0.5" transform="matrix(-0.850909 -0.525313 -0.71369 0.700462 160.956 153.498)" stroke="white" stroke-linecap="round"/>
<line x1="0.5" y1="-0.5" x2="40.6798" y2="-0.5" transform="matrix(-0.850909 -0.525313 -0.71369 0.700462 160.956 152.798)" stroke="white" stroke-linecap="round"/>
<line x1="0.5" y1="-0.5" x2="40.6798" y2="-0.5" transform="matrix(-0.850909 -0.525313 -0.71369 0.700462 160.956 152.098)" stroke="white" stroke-linecap="round"/>
<line x1="0.5" y1="-0.5" x2="40.6798" y2="-0.5" transform="matrix(-0.850909 -0.525313 -0.71369 0.700462 160.956 151.398)" stroke="white" stroke-linecap="round"/>
<line x1="0.5" y1="-0.5" x2="40.6798" y2="-0.5" transform="matrix(-0.850909 -0.525313 -0.71369 0.700462 160.956 150.698)" stroke="white" stroke-linecap="round"/>
<line x1="0.5" y1="-0.5" x2="40.6798" y2="-0.5" transform="matrix(-0.850909 -0.525313 -0.71369 0.700462 160.956 149.998)" stroke="white" stroke-linecap="round"/>
<line x1="0.5" y1="-0.5" x2="40.6798" y2="-0.5" transform="matrix(-0.850909 -0.525313 -0.71369 0.700462 160.956 149.298)" stroke="white" stroke-linecap="round"/>
<line x1="0.5" y1="-0.5" x2="40.6798" y2="-0.5" transform="matrix(-0.850909 -0.525313 -0.71369 0.700462 160.956 148.598)" stroke="white" stroke-linecap="round"/>
<line x1="0.5" y1="-0.5" x2="40.6798" y2="-0.5" transform="matrix(-0.850909 -0.525313 -0.71369 0.700462 160.956 147.898)" stroke="white" stroke-linecap="round"/>
<line x1="0.5" y1="-0.5" x2="40.6798" y2="-0.5" transform="matrix(-0.850909 -0.525313 -0.71369 0.700462 160.956 147.199)" stroke="white" stroke-linecap="round"/>
<line x1="0.5" y1="-0.5" x2="40.6798" y2="-0.5" transform="matrix(-0.850909 -0.525313 -0.71369 0.700462 160.956 146.499)" stroke="white" stroke-linecap="round"/>
<line x1="0.5" y1="-0.5" x2="40.6798" y2="-0.5" transform="matrix(-0.850909 -0.525313 -0.71369 0.700462 160.956 145.799)" stroke="white" stroke-linecap="round"/>
<line x1="0.5" y1="-0.5" x2="40.6798" y2="-0.5" transform="matrix(-0.850909 -0.525313 -0.71369 0.700462 160.956 145.099)" stroke="white" stroke-linecap="round"/>
<line x1="0.5" y1="-0.5" x2="40.6798" y2="-0.5" transform="matrix(-0.850909 -0.525313 -0.71369 0.700462 160.956 144.399)" stroke="white" stroke-linecap="round"/>
<line x1="0.5" y1="-0.5" x2="40.6798" y2="-0.5" transform="matrix(-0.850909 -0.525313 -0.71369 0.700462 160.956 143.699)" stroke="white" stroke-linecap="round"/>
<line x1="0.5" y1="-0.5" x2="40.6798" y2="-0.5" transform="matrix(-0.850909 -0.525313 -0.71369 0.700462 160.956 142.999)" stroke="white" stroke-linecap="round"/>
<line x1="0.5" y1="-0.5" x2="40.6798" y2="-0.5" transform="matrix(-0.850909 -0.525313 -0.71369 0.700462 160.956 129.7)" stroke="white" stroke-linecap="round"/>
<line x1="0.5" y1="-0.5" x2="40.6798" y2="-0.5" transform="matrix(-0.850909 -0.525313 -0.71369 0.700462 160.956 142.299)" stroke="white" stroke-linecap="round"/>
<line x1="0.5" y1="-0.5" x2="40.6798" y2="-0.5" transform="matrix(-0.850909 -0.525313 -0.71369 0.700462 160.956 141.599)" stroke="white" stroke-linecap="round"/>
<line x1="0.5" y1="-0.5" x2="40.6798" y2="-0.5" transform="matrix(-0.850909 -0.525313 -0.71369 0.700462 160.956 140.899)" stroke="white" stroke-linecap="round"/>
<line x1="0.5" y1="-0.5" x2="40.6798" y2="-0.5" transform="matrix(-0.850909 -0.525313 -0.71369 0.700462 160.956 140.199)" stroke="white" stroke-linecap="round"/>
<line x1="0.5" y1="-0.5" x2="40.6798" y2="-0.5" transform="matrix(-0.850909 -0.525313 -0.71369 0.700462 160.956 139.499)" stroke="white" stroke-linecap="round"/>
<line x1="0.5" y1="-0.5" x2="40.6798" y2="-0.5" transform="matrix(-0.850909 -0.525313 -0.71369 0.700462 160.956 138.8)" stroke="white" stroke-linecap="round"/>
<line x1="0.5" y1="-0.5" x2="40.6798" y2="-0.5" transform="matrix(-0.850909 -0.525313 -0.71369 0.700462 160.956 138.1)" stroke="white" stroke-linecap="round"/>
<line x1="0.5" y1="-0.5" x2="40.6798" y2="-0.5" transform="matrix(-0.850909 -0.525313 -0.71369 0.700462 160.956 137.4)" stroke="white" stroke-linecap="round"/>
<line x1="0.5" y1="-0.5" x2="40.6798" y2="-0.5" transform="matrix(-0.850909 -0.525313 -0.71369 0.700462 160.956 136.7)" stroke="white" stroke-linecap="round"/>
<line x1="0.5" y1="-0.5" x2="40.6798" y2="-0.5" transform="matrix(-0.850909 -0.525313 -0.71369 0.700462 160.956 136)" stroke="white" stroke-linecap="round"/>
<line x1="0.5" y1="-0.5" x2="40.6798" y2="-0.5" transform="matrix(-0.850909 -0.525313 -0.71369 0.700462 160.956 135.3)" stroke="white" stroke-linecap="round"/>
<line x1="0.5" y1="-0.5" x2="40.6798" y2="-0.5" transform="matrix(-0.850909 -0.525313 -0.71369 0.700462 160.956 134.6)" stroke="white" stroke-linecap="round"/>
<line x1="0.5" y1="-0.5" x2="40.6798" y2="-0.5" transform="matrix(-0.850909 -0.525313 -0.71369 0.700462 160.956 133.9)" stroke="white" stroke-linecap="round"/>
<line x1="0.5" y1="-0.5" x2="40.6798" y2="-0.5" transform="matrix(-0.850909 -0.525313 -0.71369 0.700462 160.956 133.2)" stroke="white" stroke-linecap="round"/>
<line x1="0.5" y1="-0.5" x2="40.6798" y2="-0.5" transform="matrix(-0.850909 -0.525313 -0.71369 0.700462 160.956 132.5)" stroke="white" stroke-linecap="round"/>
<line x1="0.5" y1="-0.5" x2="40.6798" y2="-0.5" transform="matrix(-0.850909 -0.525313 -0.71369 0.700462 160.956 131.8)" stroke="white" stroke-linecap="round"/>
<line x1="0.5" y1="-0.5" x2="40.6798" y2="-0.5" transform="matrix(-0.850909 -0.525313 -0.71369 0.700462 160.956 131.1)" stroke="white" stroke-linecap="round"/>
<line x1="0.5" y1="-0.5" x2="40.6798" y2="-0.5" transform="matrix(-0.850909 -0.525313 -0.71369 0.700462 160.956 130.4)" stroke="white" stroke-linecap="round"/>
<line x1="0.25" y1="-0.25" x2="36.0479" y2="-0.25" transform="matrix(-0.844861 -0.534986 -0.704744 0.709462 161.26 124.695)" stroke="white" stroke-width="0.5" stroke-linecap="round"/>
<line x1="0.25" y1="-0.25" x2="36.0479" y2="-0.25" transform="matrix(-0.844861 -0.534986 -0.704744 0.709461 161.26 124.066)" stroke="white" stroke-width="0.5" stroke-linecap="round"/>
<line x1="0.25" y1="-0.25" x2="36.0479" y2="-0.25" transform="matrix(-0.844861 -0.534986 -0.704744 0.709462 161.26 123.438)" stroke="white" stroke-width="0.5" stroke-linecap="round"/>
<line x1="0.25" y1="-0.25" x2="36.0479" y2="-0.25" transform="matrix(-0.844861 -0.534986 -0.704744 0.709462 161.26 122.81)" stroke="white" stroke-width="0.5" stroke-linecap="round"/>
<line x1="0.25" y1="-0.25" x2="36.0479" y2="-0.25" transform="matrix(-0.844861 -0.534986 -0.704744 0.709462 161.26 122.181)" stroke="white" stroke-width="0.5" stroke-linecap="round"/>
<line x1="0.25" y1="-0.25" x2="36.0479" y2="-0.25" transform="matrix(-0.844861 -0.534986 -0.704744 0.709462 161.26 121.553)" stroke="white" stroke-width="0.5" stroke-linecap="round"/>
<line x1="0.25" y1="-0.25" x2="36.0479" y2="-0.25" transform="matrix(-0.844861 -0.534986 -0.704744 0.709462 161.26 120.925)" stroke="white" stroke-width="0.5" stroke-linecap="round"/>
<line x1="0.25" y1="-0.25" x2="36.0479" y2="-0.25" transform="matrix(-0.844861 -0.534986 -0.704744 0.709462 161.26 120.296)" stroke="white" stroke-width="0.5" stroke-linecap="round"/>
<line x1="0.25" y1="-0.25" x2="36.0479" y2="-0.25" transform="matrix(-0.844861 -0.534986 -0.704744 0.709462 161.26 119.668)" stroke="white" stroke-width="0.5" stroke-linecap="round"/>
<line x1="0.25" y1="-0.25" x2="36.0479" y2="-0.25" transform="matrix(-0.844861 -0.534986 -0.704744 0.709462 161.26 119.04)" stroke="white" stroke-width="0.5" stroke-linecap="round"/>
<line x1="0.25" y1="-0.25" x2="36.0479" y2="-0.25" transform="matrix(-0.844861 -0.534986 -0.704744 0.709462 161.26 118.411)" stroke="white" stroke-width="0.5" stroke-linecap="round"/>
<line x1="0.25" y1="-0.25" x2="36.0479" y2="-0.25" transform="matrix(-0.844861 -0.534986 -0.704744 0.709462 161.26 117.783)" stroke="white" stroke-width="0.5" stroke-linecap="round"/>
<line x1="0.25" y1="-0.25" x2="36.0479" y2="-0.25" transform="matrix(-0.844861 -0.534986 -0.704744 0.709462 161.26 117.155)" stroke="white" stroke-width="0.5" stroke-linecap="round"/>
<line x1="0.25" y1="-0.25" x2="36.0479" y2="-0.25" transform="matrix(-0.844861 -0.534986 -0.704744 0.709462 161.26 116.527)" stroke="white" stroke-width="0.5" stroke-linecap="round"/>
<line x1="0.25" y1="-0.25" x2="36.0479" y2="-0.25" transform="matrix(-0.844861 -0.534986 -0.704744 0.709462 161.26 115.898)" stroke="white" stroke-width="0.5" stroke-linecap="round"/>
<line x1="0.25" y1="-0.25" x2="36.0479" y2="-0.25" transform="matrix(-0.844861 -0.534986 -0.704744 0.709462 161.26 115.27)" stroke="white" stroke-width="0.5" stroke-linecap="round"/>
<line x1="0.25" y1="-0.25" x2="36.0479" y2="-0.25" transform="matrix(-0.844861 -0.534986 -0.704744 0.709462 161.26 114.642)" stroke="white" stroke-width="0.5" stroke-linecap="round"/>
<line x1="0.25" y1="-0.25" x2="36.0479" y2="-0.25" transform="matrix(-0.844861 -0.534986 -0.704744 0.709462 161.26 114.013)" stroke="white" stroke-width="0.5" stroke-linecap="round"/>
<line x1="0.25" y1="-0.25" x2="36.0479" y2="-0.25" transform="matrix(-0.844861 -0.534986 -0.704744 0.709462 161.26 113.385)" stroke="white" stroke-width="0.5" stroke-linecap="round"/>
<line x1="0.25" y1="-0.25" x2="36.0479" y2="-0.25" transform="matrix(-0.844861 -0.534986 -0.704744 0.709462 161.26 112.757)" stroke="white" stroke-width="0.5" stroke-linecap="round"/>
<line x1="0.25" y1="-0.25" x2="36.0479" y2="-0.25" transform="matrix(-0.844861 -0.534986 -0.704744 0.709462 161.26 112.128)" stroke="white" stroke-width="0.5" stroke-linecap="round"/>
<line x1="0.25" y1="-0.25" x2="36.0479" y2="-0.25" transform="matrix(-0.844861 -0.534986 -0.704744 0.709462 161.26 111.5)" stroke="white" stroke-width="0.5" stroke-linecap="round"/>
<line x1="0.25" y1="-0.25" x2="36.0479" y2="-0.25" transform="matrix(-0.844861 -0.534986 -0.704744 0.709462 161.26 110.872)" stroke="white" stroke-width="0.5" stroke-linecap="round"/>
<line x1="0.25" y1="-0.25" x2="36.0479" y2="-0.25" transform="matrix(-0.844861 -0.534986 -0.704744 0.709462 161.26 98.9338)" stroke="white" stroke-width="0.5" stroke-linecap="round"/>
<line x1="0.25" y1="-0.25" x2="36.0479" y2="-0.25" transform="matrix(-0.844861 -0.534986 -0.704744 0.709462 161.26 110.243)" stroke="white" stroke-width="0.5" stroke-linecap="round"/>
<line x1="0.25" y1="-0.25" x2="36.0479" y2="-0.25" transform="matrix(-0.844861 -0.534986 -0.704744 0.709462 161.26 109.615)" stroke="white" stroke-width="0.5" stroke-linecap="round"/>
<line x1="0.25" y1="-0.25" x2="36.0479" y2="-0.25" transform="matrix(-0.844861 -0.534986 -0.704744 0.709462 161.26 108.987)" stroke="white" stroke-width="0.5" stroke-linecap="round"/>
<line x1="0.25" y1="-0.25" x2="36.0479" y2="-0.25" transform="matrix(-0.844861 -0.534986 -0.704744 0.709462 161.26 108.358)" stroke="white" stroke-width="0.5" stroke-linecap="round"/>
<line x1="0.25" y1="-0.25" x2="36.0479" y2="-0.25" transform="matrix(-0.844861 -0.534986 -0.704744 0.709462 161.26 107.73)" stroke="white" stroke-width="0.5" stroke-linecap="round"/>
<line x1="0.25" y1="-0.25" x2="36.0479" y2="-0.25" transform="matrix(-0.844861 -0.534986 -0.704744 0.709462 161.26 107.102)" stroke="white" stroke-width="0.5" stroke-linecap="round"/>
<line x1="0.25" y1="-0.25" x2="36.0479" y2="-0.25" transform="matrix(-0.844861 -0.534986 -0.704744 0.709462 161.26 106.473)" stroke="white" stroke-width="0.5" stroke-linecap="round"/>
<line x1="0.25" y1="-0.25" x2="36.0479" y2="-0.25" transform="matrix(-0.844861 -0.534986 -0.704744 0.709462 161.26 105.845)" stroke="white" stroke-width="0.5" stroke-linecap="round"/>
<line x1="0.25" y1="-0.25" x2="36.0479" y2="-0.25" transform="matrix(-0.844861 -0.534986 -0.704744 0.709462 161.26 105.217)" stroke="white" stroke-width="0.5" stroke-linecap="round"/>
<line x1="0.25" y1="-0.25" x2="36.0479" y2="-0.25" transform="matrix(-0.844861 -0.534986 -0.704744 0.709462 161.26 104.589)" stroke="white" stroke-width="0.5" stroke-linecap="round"/>
<line x1="0.25" y1="-0.25" x2="36.0479" y2="-0.25" transform="matrix(-0.844861 -0.534986 -0.704744 0.709462 161.26 103.96)" stroke="white" stroke-width="0.5" stroke-linecap="round"/>
<line x1="0.25" y1="-0.25" x2="36.0479" y2="-0.25" transform="matrix(-0.844861 -0.534986 -0.704744 0.709462 161.26 103.332)" stroke="white" stroke-width="0.5" stroke-linecap="round"/>
<line x1="0.25" y1="-0.25" x2="36.0479" y2="-0.25" transform="matrix(-0.844861 -0.534986 -0.704744 0.709462 161.26 102.704)" stroke="white" stroke-width="0.5" stroke-linecap="round"/>
<line x1="0.25" y1="-0.25" x2="36.0479" y2="-0.25" transform="matrix(-0.844861 -0.534986 -0.704744 0.709462 161.26 102.075)" stroke="white" stroke-width="0.5" stroke-linecap="round"/>
<line x1="0.25" y1="-0.25" x2="36.0479" y2="-0.25" transform="matrix(-0.844861 -0.534986 -0.704744 0.709462 161.26 101.447)" stroke="white" stroke-width="0.5" stroke-linecap="round"/>
<line x1="0.25" y1="-0.25" x2="36.0479" y2="-0.25" transform="matrix(-0.844861 -0.534986 -0.704744 0.709462 161.26 100.819)" stroke="white" stroke-width="0.5" stroke-linecap="round"/>
<line x1="0.25" y1="-0.25" x2="36.0479" y2="-0.25" transform="matrix(-0.844861 -0.534986 -0.704744 0.709462 161.26 100.19)" stroke="white" stroke-width="0.5" stroke-linecap="round"/>
<line x1="0.25" y1="-0.25" x2="36.0479" y2="-0.25" transform="matrix(-0.844861 -0.534986 -0.704744 0.709462 161.26 99.562)" stroke="white" stroke-width="0.5" stroke-linecap="round"/>
<path d="M161.52 100.262C163.397 100.262 164.918 101.782 164.918 103.655C164.918 105.529 163.397 107.049 161.52 107.049C159.643 107.049 158.122 105.529 158.122 103.655C158.122 101.782 159.643 100.262 161.52 100.262Z" fill="#1C1C1C" stroke="#1C1C1C"/>
<path d="M161.52 145.947C163.397 145.947 164.918 147.467 164.918 149.34C164.918 151.214 163.397 152.734 161.52 152.734C159.643 152.734 158.122 151.214 158.122 149.34C158.122 147.467 159.643 145.947 161.52 145.947Z" fill="#1C1C1C" stroke="#1C1C1C"/>
<path d="M161.52 193.189C163.397 193.19 164.918 194.709 164.918 196.583C164.918 198.457 163.397 199.976 161.52 199.977C159.643 199.977 158.122 198.457 158.122 196.583C158.122 194.709 159.643 193.189 161.52 193.189Z" fill="#1C1C1C" stroke="#1C1C1C"/>
<path d="M161.52 218.628C163.397 218.628 164.918 220.148 164.918 222.021C164.918 223.895 163.397 225.415 161.52 225.415C159.643 225.415 158.122 223.895 158.122 222.021C158.122 220.148 159.643 218.628 161.52 218.628Z" fill="#1C1C1C" stroke="#1C1C1C"/>
<path d="M161.52 267.947C163.397 267.947 164.918 269.467 164.918 271.34C164.918 273.214 163.397 274.734 161.52 274.734C159.643 274.734 158.122 273.214 158.122 271.34C158.122 269.467 159.643 267.947 161.52 267.947Z" fill="#1C1C1C" stroke="#1C1C1C"/>
</svg>
