<svg width="337" height="333" viewBox="0 0 337 333" fill="none" xmlns="http://www.w3.org/2000/svg">
<path d="M103.087 6.08398C103.087 6.08398 127.41 30.5846 146.391 28.8363C155.569 27.9909 160.019 16.9458 168.52 20.5452C172.846 22.3773 173.057 26.8028 177.295 28.8363C189.316 34.6048 205.528 9.55468 205.528 9.55468C205.528 9.55468 205.719 3.57716 201.522 40.9838C197.325 78.3904 322.087 108.084 322.087 108.084" stroke="white" stroke-width="15"/>
<path d="M328.661 112.084C328.661 112.084 330.77 130.113 325.602 139.589C320.469 148.999 311.592 148.988 304.381 156.9C289.527 173.198 291.3 188.898 280.675 208.255C275.204 218.224 273.303 224.766 265.763 233.26C255.612 244.696 244.589 244.735 233.263 254.995C221.954 265.24 220.137 275.434 208.41 285.192C203.622 289.177 199.643 289.848 195.41 294.425C187.351 303.141 185.087 323.084 185.087 323.084" stroke="white" stroke-width="15"/>
<path d="M100.531 7.08398C100.531 7.08398 80.2189 14.1511 73.5123 12.8141C66.8057 11.4771 66.3906 30.9567 56.2667 35.9256C51.2347 38.3954 47.7556 40.3776 42.2785 39.1727C34.0359 37.3594 29.2485 21.9823 29.2485 21.9823C29.2485 21.9823 37.3047 40.8498 38.4462 53.689C40.9705 82.0834 13.3442 122.26 13.3442 122.26C13.3442 122.26 25.7369 129.629 24.458 136.585C23.2347 143.239 10.0867 146.326 10.0867 146.326C10.0867 146.326 34.6138 210.122 19.0927 228.84C3.57163 247.558 63.0686 232.009 89.9915 239.727C100.248 242.668 107.043 242.519 115.86 248.513C138.571 263.955 130.806 317.084 130.806 317.084" stroke="white" stroke-width="15"/>
<path d="M134.087 325.333C134.087 325.333 144.435 325.125 150.713 323.171C156.599 321.339 158.812 315.794 164.938 316.096C172.303 316.459 180.087 328.084 180.087 328.084" stroke="white" stroke-width="15"/>
<line x1="166.818" y1="63.9224" x2="166.818" y2="296.084" stroke="white" stroke-width="3"/>
<line x1="0.5" y1="-0.5" x2="59.0743" y2="-0.5" transform="matrix(0.783809 -0.621001 0.621788 0.783186 166.392 249.437)" stroke="white" stroke-linecap="round"/>
<line x1="0.5" y1="-0.5" x2="59.0743" y2="-0.5" transform="matrix(0.783809 -0.621001 0.621788 0.783186 166.392 248.365)" stroke="white" stroke-linecap="round"/>
<line x1="0.5" y1="-0.5" x2="59.0743" y2="-0.5" transform="matrix(0.783809 -0.621001 0.621788 0.783186 166.392 247.292)" stroke="white" stroke-linecap="round"/>
<line x1="0.5" y1="-0.5" x2="59.0743" y2="-0.5" transform="matrix(0.783809 -0.621001 0.621788 0.783186 166.392 246.22)" stroke="white" stroke-linecap="round"/>
<line x1="0.5" y1="-0.5" x2="59.0743" y2="-0.5" transform="matrix(0.783809 -0.621001 0.621788 0.783186 166.392 245.148)" stroke="white" stroke-linecap="round"/>
<line x1="0.5" y1="-0.5" x2="59.0743" y2="-0.5" transform="matrix(0.783809 -0.621001 0.621788 0.783186 166.392 244.075)" stroke="white" stroke-linecap="round"/>
<line x1="0.5" y1="-0.5" x2="59.0743" y2="-0.5" transform="matrix(0.783809 -0.621001 0.621788 0.783186 166.392 243.003)" stroke="white" stroke-linecap="round"/>
<line x1="0.5" y1="-0.5" x2="59.0743" y2="-0.5" transform="matrix(0.783809 -0.621001 0.621788 0.783186 166.392 241.931)" stroke="white" stroke-linecap="round"/>
<line x1="0.5" y1="-0.5" x2="59.0743" y2="-0.5" transform="matrix(0.783809 -0.621001 0.621788 0.783186 166.392 240.858)" stroke="white" stroke-linecap="round"/>
<line x1="0.5" y1="-0.5" x2="59.0743" y2="-0.5" transform="matrix(0.783809 -0.621001 0.621788 0.783186 166.392 239.786)" stroke="white" stroke-linecap="round"/>
<line x1="0.5" y1="-0.5" x2="59.0743" y2="-0.5" transform="matrix(0.783809 -0.621001 0.621788 0.783186 166.392 238.714)" stroke="white" stroke-linecap="round"/>
<line x1="0.5" y1="-0.5" x2="59.0743" y2="-0.5" transform="matrix(0.783809 -0.621001 0.621788 0.783186 166.392 237.641)" stroke="white" stroke-linecap="round"/>
<line x1="0.5" y1="-0.5" x2="59.0743" y2="-0.5" transform="matrix(0.783809 -0.621001 0.621788 0.783186 166.392 236.569)" stroke="white" stroke-linecap="round"/>
<line x1="0.5" y1="-0.5" x2="59.0743" y2="-0.5" transform="matrix(0.783809 -0.621001 0.621788 0.783186 166.392 235.497)" stroke="white" stroke-linecap="round"/>
<line x1="0.5" y1="-0.5" x2="59.0743" y2="-0.5" transform="matrix(0.783809 -0.621001 0.621788 0.783186 166.392 234.424)" stroke="white" stroke-linecap="round"/>
<line x1="0.5" y1="-0.5" x2="59.0743" y2="-0.5" transform="matrix(0.783809 -0.621001 0.621788 0.783186 166.392 233.352)" stroke="white" stroke-linecap="round"/>
<line x1="0.5" y1="-0.5" x2="59.0743" y2="-0.5" transform="matrix(0.783809 -0.621001 0.621788 0.783186 166.392 232.28)" stroke="white" stroke-linecap="round"/>
<line x1="0.5" y1="-0.5" x2="59.0743" y2="-0.5" transform="matrix(0.783809 -0.621001 0.621788 0.783186 166.392 231.207)" stroke="white" stroke-linecap="round"/>
<line x1="0.5" y1="-0.5" x2="59.0743" y2="-0.5" transform="matrix(0.783809 -0.621001 0.621788 0.783186 166.392 230.135)" stroke="white" stroke-linecap="round"/>
<line x1="0.5" y1="-0.5" x2="59.0743" y2="-0.5" transform="matrix(0.783809 -0.621001 0.621788 0.783186 166.392 229.063)" stroke="white" stroke-linecap="round"/>
<line x1="0.5" y1="-0.5" x2="59.0743" y2="-0.5" transform="matrix(0.783809 -0.621001 0.621788 0.783186 166.392 227.99)" stroke="white" stroke-linecap="round"/>
<line x1="0.5" y1="-0.5" x2="59.0743" y2="-0.5" transform="matrix(0.783809 -0.621001 0.621788 0.783186 166.392 226.918)" stroke="white" stroke-linecap="round"/>
<line x1="0.5" y1="-0.5" x2="59.0743" y2="-0.5" transform="matrix(0.783809 -0.621001 0.621788 0.783186 166.392 225.846)" stroke="white" stroke-linecap="round"/>
<line x1="0.5" y1="-0.5" x2="59.0743" y2="-0.5" transform="matrix(0.783809 -0.621001 0.621788 0.783186 166.392 224.773)" stroke="white" stroke-linecap="round"/>
<line x1="0.5" y1="-0.5" x2="59.0743" y2="-0.5" transform="matrix(0.783809 -0.621001 0.621788 0.783186 166.392 223.701)" stroke="white" stroke-linecap="round"/>
<line x1="0.5" y1="-0.5" x2="59.0743" y2="-0.5" transform="matrix(0.783809 -0.621001 0.621788 0.783186 166.392 222.629)" stroke="white" stroke-linecap="round"/>
<line x1="0.5" y1="-0.5" x2="59.0743" y2="-0.5" transform="matrix(0.783809 -0.621001 0.621788 0.783186 166.392 221.556)" stroke="white" stroke-linecap="round"/>
<line x1="0.5" y1="-0.5" x2="59.0743" y2="-0.5" transform="matrix(0.783809 -0.621001 0.621788 0.783186 166.392 220.484)" stroke="white" stroke-linecap="round"/>
<line x1="0.5" y1="-0.5" x2="59.0743" y2="-0.5" transform="matrix(0.783809 -0.621001 0.621788 0.783186 166.392 219.412)" stroke="white" stroke-linecap="round"/>
<line x1="0.5" y1="-0.5" x2="59.0743" y2="-0.5" transform="matrix(0.783809 -0.621001 0.621788 0.783186 166.392 218.339)" stroke="white" stroke-linecap="round"/>
<line x1="0.5" y1="-0.5" x2="59.0743" y2="-0.5" transform="matrix(0.783809 -0.621001 0.621788 0.783186 166.392 217.267)" stroke="white" stroke-linecap="round"/>
<line x1="0.5" y1="-0.5" x2="59.0743" y2="-0.5" transform="matrix(0.783809 -0.621001 0.621788 0.783186 166.392 216.195)" stroke="white" stroke-linecap="round"/>
<line x1="0.5" y1="-0.5" x2="59.0743" y2="-0.5" transform="matrix(0.783809 -0.621001 0.621788 0.783186 166.392 215.122)" stroke="white" stroke-linecap="round"/>
<line x1="0.5" y1="-0.5" x2="59.0743" y2="-0.5" transform="matrix(0.783809 -0.621001 0.621788 0.783186 166.392 214.05)" stroke="white" stroke-linecap="round"/>
<line x1="0.5" y1="-0.5" x2="59.0743" y2="-0.5" transform="matrix(0.783809 -0.621001 0.621788 0.783186 166.392 212.978)" stroke="white" stroke-linecap="round"/>
<line x1="0.5" y1="-0.5" x2="59.0743" y2="-0.5" transform="matrix(0.783809 -0.621001 0.621788 0.783186 166.392 211.905)" stroke="white" stroke-linecap="round"/>
<line x1="0.5" y1="-0.5" x2="59.0743" y2="-0.5" transform="matrix(0.783809 -0.621001 0.621788 0.783186 166.392 210.833)" stroke="white" stroke-linecap="round"/>
<line x1="0.5" y1="-0.5" x2="59.0743" y2="-0.5" transform="matrix(0.783809 -0.621001 0.621788 0.783186 166.392 209.76)" stroke="white" stroke-linecap="round"/>
<line x1="0.5" y1="-0.5" x2="59.0743" y2="-0.5" transform="matrix(0.783809 -0.621001 0.621788 0.783186 166.392 208.688)" stroke="white" stroke-linecap="round"/>
<line x1="0.5" y1="-0.5" x2="59.0743" y2="-0.5" transform="matrix(0.783809 -0.621001 0.621788 0.783186 166.392 207.616)" stroke="white" stroke-linecap="round"/>
<line x1="0.5" y1="-0.5" x2="59.0743" y2="-0.5" transform="matrix(0.783809 -0.621001 0.621788 0.783186 166.392 206.543)" stroke="white" stroke-linecap="round"/>
<line x1="0.5" y1="-0.5" x2="59.0743" y2="-0.5" transform="matrix(0.783809 -0.621001 0.621788 0.783186 166.392 205.471)" stroke="white" stroke-linecap="round"/>
<line x1="0.5" y1="-0.5" x2="59.0743" y2="-0.5" transform="matrix(0.783809 -0.621001 0.621788 0.783186 166.392 204.399)" stroke="white" stroke-linecap="round"/>
<line x1="0.5" y1="-0.5" x2="59.0743" y2="-0.5" transform="matrix(0.783809 -0.621001 0.621788 0.783186 166.392 203.327)" stroke="white" stroke-linecap="round"/>
<line x1="0.5" y1="-0.5" x2="59.0743" y2="-0.5" transform="matrix(0.783809 -0.621001 0.621788 0.783186 166.392 202.254)" stroke="white" stroke-linecap="round"/>
<line x1="0.5" y1="-0.5" x2="59.0743" y2="-0.5" transform="matrix(0.783809 -0.621001 0.621788 0.783186 166.392 201.182)" stroke="white" stroke-linecap="round"/>
<line x1="0.5" y1="-0.5" x2="59.0743" y2="-0.5" transform="matrix(0.783809 -0.621001 0.621788 0.783186 166.392 200.11)" stroke="white" stroke-linecap="round"/>
<line x1="0.5" y1="-0.5" x2="59.0743" y2="-0.5" transform="matrix(0.783809 -0.621001 0.621788 0.783186 166.392 199.037)" stroke="white" stroke-linecap="round"/>
<line x1="0.5" y1="-0.5" x2="59.0743" y2="-0.5" transform="matrix(0.783809 -0.621001 0.621788 0.783186 166.392 197.965)" stroke="white" stroke-linecap="round"/>
<line x1="0.5" y1="-0.5" x2="59.0743" y2="-0.5" transform="matrix(0.783809 -0.621001 0.621788 0.783186 166.392 196.893)" stroke="white" stroke-linecap="round"/>
<line x1="0.5" y1="-0.5" x2="59.0743" y2="-0.5" transform="matrix(0.783809 -0.621001 0.621788 0.783186 166.392 195.82)" stroke="white" stroke-linecap="round"/>
<line x1="0.5" y1="-0.5" x2="59.0743" y2="-0.5" transform="matrix(0.783809 -0.621001 0.621788 0.783186 166.392 194.748)" stroke="white" stroke-linecap="round"/>
<line x1="0.5" y1="-0.5" x2="59.0743" y2="-0.5" transform="matrix(0.783809 -0.621001 0.621788 0.783186 166.392 193.676)" stroke="white" stroke-linecap="round"/>
<line x1="0.5" y1="-0.5" x2="59.0743" y2="-0.5" transform="matrix(0.783809 -0.621001 0.621788 0.783186 166.392 192.603)" stroke="white" stroke-linecap="round"/>
<line x1="0.5" y1="-0.5" x2="59.0743" y2="-0.5" transform="matrix(0.783809 -0.621001 0.621788 0.783186 166.392 191.531)" stroke="white" stroke-linecap="round"/>
<line x1="0.5" y1="-0.5" x2="59.0743" y2="-0.5" transform="matrix(0.783809 -0.621001 0.621788 0.783186 166.392 190.458)" stroke="white" stroke-linecap="round"/>
<line x1="0.5" y1="-0.5" x2="59.0743" y2="-0.5" transform="matrix(0.783809 -0.621001 0.621788 0.783186 166.392 189.386)" stroke="white" stroke-linecap="round"/>
<line x1="0.5" y1="-0.5" x2="59.0743" y2="-0.5" transform="matrix(0.783809 -0.621001 0.621788 0.783186 166.392 188.314)" stroke="white" stroke-linecap="round"/>
<line x1="0.5" y1="-0.5" x2="59.0743" y2="-0.5" transform="matrix(0.783809 -0.621001 0.621788 0.783186 166.392 187.241)" stroke="white" stroke-linecap="round"/>
<line x1="0.5" y1="-0.5" x2="59.0743" y2="-0.5" transform="matrix(0.783809 -0.621001 0.621788 0.783186 166.392 186.169)" stroke="white" stroke-linecap="round"/>
<line x1="0.5" y1="-0.5" x2="59.0743" y2="-0.5" transform="matrix(0.783809 -0.621001 0.621788 0.783186 166.392 185.097)" stroke="white" stroke-linecap="round"/>
<line x1="0.5" y1="-0.5" x2="59.0743" y2="-0.5" transform="matrix(0.783809 -0.621001 0.621788 0.783186 166.392 184.024)" stroke="white" stroke-linecap="round"/>
<line x1="0.5" y1="-0.5" x2="59.0743" y2="-0.5" transform="matrix(0.783809 -0.621001 0.621788 0.783186 166.392 182.952)" stroke="white" stroke-linecap="round"/>
<line x1="0.5" y1="-0.5" x2="59.0743" y2="-0.5" transform="matrix(0.783809 -0.621001 0.621788 0.783186 166.392 181.88)" stroke="white" stroke-linecap="round"/>
<line x1="0.5" y1="-0.5" x2="59.0743" y2="-0.5" transform="matrix(0.783809 -0.621001 0.621788 0.783186 166.392 180.807)" stroke="white" stroke-linecap="round"/>
<line x1="0.5" y1="-0.5" x2="59.0743" y2="-0.5" transform="matrix(0.783809 -0.621001 0.621788 0.783186 166.392 179.735)" stroke="white" stroke-linecap="round"/>
<line x1="0.5" y1="-0.5" x2="59.0743" y2="-0.5" transform="matrix(0.783809 -0.621001 0.621788 0.783186 166.392 178.663)" stroke="white" stroke-linecap="round"/>
<line x1="0.5" y1="-0.5" x2="59.0743" y2="-0.5" transform="matrix(0.783809 -0.621001 0.621788 0.783186 166.392 177.59)" stroke="white" stroke-linecap="round"/>
<line x1="0.5" y1="-0.5" x2="51.7992" y2="-0.5" transform="matrix(0.800478 -0.599362 0.643228 0.765675 166.392 170.62)" stroke="white" stroke-linecap="round"/>
<line x1="0.5" y1="-0.5" x2="51.7992" y2="-0.5" transform="matrix(0.800478 -0.599362 0.643228 0.765675 166.392 169.712)" stroke="white" stroke-linecap="round"/>
<line x1="0.5" y1="-0.5" x2="51.7992" y2="-0.5" transform="matrix(0.800478 -0.599362 0.643228 0.765675 166.392 168.803)" stroke="white" stroke-linecap="round"/>
<line x1="0.5" y1="-0.5" x2="51.7992" y2="-0.5" transform="matrix(0.800478 -0.599362 0.643228 0.765675 166.392 167.894)" stroke="white" stroke-linecap="round"/>
<line x1="0.5" y1="-0.5" x2="51.7992" y2="-0.5" transform="matrix(0.800478 -0.599362 0.643228 0.765675 166.392 166.986)" stroke="white" stroke-linecap="round"/>
<line x1="0.5" y1="-0.5" x2="51.7992" y2="-0.5" transform="matrix(0.800478 -0.599362 0.643228 0.765675 166.392 166.077)" stroke="white" stroke-linecap="round"/>
<line x1="0.5" y1="-0.5" x2="51.7992" y2="-0.5" transform="matrix(0.800478 -0.599362 0.643228 0.765675 166.392 165.169)" stroke="white" stroke-linecap="round"/>
<line x1="0.5" y1="-0.5" x2="51.7992" y2="-0.5" transform="matrix(0.800478 -0.599362 0.643228 0.765675 166.392 164.26)" stroke="white" stroke-linecap="round"/>
<line x1="0.5" y1="-0.5" x2="51.7992" y2="-0.5" transform="matrix(0.800478 -0.599362 0.643228 0.765675 166.392 163.352)" stroke="white" stroke-linecap="round"/>
<line x1="0.5" y1="-0.5" x2="51.7992" y2="-0.5" transform="matrix(0.800478 -0.599362 0.643228 0.765675 166.392 162.443)" stroke="white" stroke-linecap="round"/>
<line x1="0.5" y1="-0.5" x2="51.7992" y2="-0.5" transform="matrix(0.800478 -0.599362 0.643228 0.765675 166.392 161.534)" stroke="white" stroke-linecap="round"/>
<line x1="0.5" y1="-0.5" x2="51.7992" y2="-0.5" transform="matrix(0.800478 -0.599362 0.643228 0.765675 166.392 160.626)" stroke="white" stroke-linecap="round"/>
<line x1="0.5" y1="-0.5" x2="51.7992" y2="-0.5" transform="matrix(0.800478 -0.599362 0.643228 0.765675 166.392 159.717)" stroke="white" stroke-linecap="round"/>
<line x1="0.5" y1="-0.5" x2="51.7992" y2="-0.5" transform="matrix(0.800478 -0.599362 0.643228 0.765675 166.392 158.809)" stroke="white" stroke-linecap="round"/>
<line x1="0.5" y1="-0.5" x2="51.7992" y2="-0.5" transform="matrix(0.800478 -0.599362 0.643228 0.765675 166.392 157.9)" stroke="white" stroke-linecap="round"/>
<line x1="0.5" y1="-0.5" x2="51.7992" y2="-0.5" transform="matrix(0.800478 -0.599362 0.643228 0.765675 166.392 156.991)" stroke="white" stroke-linecap="round"/>
<line x1="0.5" y1="-0.5" x2="51.7992" y2="-0.5" transform="matrix(0.800478 -0.599362 0.643228 0.765675 166.392 156.083)" stroke="white" stroke-linecap="round"/>
<line x1="0.5" y1="-0.5" x2="51.7992" y2="-0.5" transform="matrix(0.800478 -0.599362 0.643228 0.765675 166.392 155.174)" stroke="white" stroke-linecap="round"/>
<line x1="0.5" y1="-0.5" x2="51.7992" y2="-0.5" transform="matrix(0.800478 -0.599362 0.643228 0.765675 166.392 154.266)" stroke="white" stroke-linecap="round"/>
<line x1="0.5" y1="-0.5" x2="51.7992" y2="-0.5" transform="matrix(0.800478 -0.599362 0.643228 0.765675 166.392 153.357)" stroke="white" stroke-linecap="round"/>
<line x1="0.5" y1="-0.5" x2="51.7992" y2="-0.5" transform="matrix(0.800478 -0.599362 0.643228 0.765675 166.392 152.448)" stroke="white" stroke-linecap="round"/>
<line x1="0.5" y1="-0.5" x2="51.7992" y2="-0.5" transform="matrix(0.800478 -0.599362 0.643228 0.765675 166.392 151.54)" stroke="white" stroke-linecap="round"/>
<line x1="0.5" y1="-0.5" x2="51.7992" y2="-0.5" transform="matrix(0.800478 -0.599362 0.643228 0.765675 166.392 150.631)" stroke="white" stroke-linecap="round"/>
<line x1="0.5" y1="-0.5" x2="51.7992" y2="-0.5" transform="matrix(0.800478 -0.599362 0.643228 0.765675 166.392 149.723)" stroke="white" stroke-linecap="round"/>
<line x1="0.5" y1="-0.5" x2="51.7992" y2="-0.5" transform="matrix(0.800478 -0.599362 0.643228 0.765675 166.392 148.814)" stroke="white" stroke-linecap="round"/>
<line x1="0.5" y1="-0.5" x2="51.7992" y2="-0.5" transform="matrix(0.800478 -0.599362 0.643228 0.765675 166.392 147.906)" stroke="white" stroke-linecap="round"/>
<line x1="0.5" y1="-0.5" x2="51.7992" y2="-0.5" transform="matrix(0.800478 -0.599362 0.643228 0.765675 166.392 146.997)" stroke="white" stroke-linecap="round"/>
<line x1="0.5" y1="-0.5" x2="51.7992" y2="-0.5" transform="matrix(0.800478 -0.599362 0.643228 0.765675 166.392 146.088)" stroke="white" stroke-linecap="round"/>
<line x1="0.5" y1="-0.5" x2="51.7992" y2="-0.5" transform="matrix(0.800478 -0.599362 0.643228 0.765675 166.392 145.18)" stroke="white" stroke-linecap="round"/>
<line x1="0.5" y1="-0.5" x2="51.7992" y2="-0.5" transform="matrix(0.800478 -0.599362 0.643228 0.765675 166.392 144.271)" stroke="white" stroke-linecap="round"/>
<line x1="0.5" y1="-0.5" x2="51.7992" y2="-0.5" transform="matrix(0.800478 -0.599362 0.643228 0.765675 166.392 143.363)" stroke="white" stroke-linecap="round"/>
<line x1="0.5" y1="-0.5" x2="51.7992" y2="-0.5" transform="matrix(0.800478 -0.599362 0.643228 0.765675 166.392 142.454)" stroke="white" stroke-linecap="round"/>
<line x1="0.5" y1="-0.5" x2="51.7992" y2="-0.5" transform="matrix(0.800478 -0.599362 0.643228 0.765675 166.392 141.545)" stroke="white" stroke-linecap="round"/>
<line x1="0.5" y1="-0.5" x2="51.7992" y2="-0.5" transform="matrix(0.800478 -0.599362 0.643228 0.765675 166.392 140.637)" stroke="white" stroke-linecap="round"/>
<line x1="0.5" y1="-0.5" x2="51.7992" y2="-0.5" transform="matrix(0.800478 -0.599362 0.643228 0.765675 166.392 139.728)" stroke="white" stroke-linecap="round"/>
<line x1="0.5" y1="-0.5" x2="51.7992" y2="-0.5" transform="matrix(0.800478 -0.599362 0.643228 0.765675 166.392 138.82)" stroke="white" stroke-linecap="round"/>
<line x1="0.5" y1="-0.5" x2="51.7992" y2="-0.5" transform="matrix(0.800478 -0.599362 0.643228 0.765675 166.392 137.911)" stroke="white" stroke-linecap="round"/>
<line x1="0.5" y1="-0.5" x2="51.7992" y2="-0.5" transform="matrix(0.800478 -0.599362 0.643228 0.765675 166.392 137.002)" stroke="white" stroke-linecap="round"/>
<line x1="0.5" y1="-0.5" x2="51.7992" y2="-0.5" transform="matrix(0.800478 -0.599362 0.643228 0.765675 166.392 136.094)" stroke="white" stroke-linecap="round"/>
<line x1="0.5" y1="-0.5" x2="51.7992" y2="-0.5" transform="matrix(0.800478 -0.599362 0.643228 0.765675 166.392 135.185)" stroke="white" stroke-linecap="round"/>
<line x1="0.5" y1="-0.5" x2="51.7992" y2="-0.5" transform="matrix(0.800478 -0.599362 0.643228 0.765675 166.392 134.277)" stroke="white" stroke-linecap="round"/>
<line x1="0.5" y1="-0.5" x2="51.7992" y2="-0.5" transform="matrix(0.800478 -0.599362 0.643228 0.765675 166.392 133.368)" stroke="white" stroke-linecap="round"/>
<line x1="0.5" y1="-0.5" x2="51.7992" y2="-0.5" transform="matrix(0.800478 -0.599362 0.643228 0.765675 166.392 132.46)" stroke="white" stroke-linecap="round"/>
<line x1="0.5" y1="-0.5" x2="51.7992" y2="-0.5" transform="matrix(0.800478 -0.599362 0.643228 0.765675 166.392 131.551)" stroke="white" stroke-linecap="round"/>
<line x1="0.5" y1="-0.5" x2="51.7992" y2="-0.5" transform="matrix(0.800478 -0.599362 0.643228 0.765675 166.392 130.642)" stroke="white" stroke-linecap="round"/>
<line x1="0.5" y1="-0.5" x2="51.7992" y2="-0.5" transform="matrix(0.800478 -0.599362 0.643228 0.765675 166.392 129.734)" stroke="white" stroke-linecap="round"/>
<line x1="0.5" y1="-0.5" x2="51.7992" y2="-0.5" transform="matrix(0.800478 -0.599362 0.643228 0.765675 166.392 128.825)" stroke="white" stroke-linecap="round"/>
<line x1="0.5" y1="-0.5" x2="51.7992" y2="-0.5" transform="matrix(0.800478 -0.599362 0.643228 0.765675 166.392 127.917)" stroke="white" stroke-linecap="round"/>
<line x1="0.5" y1="-0.5" x2="51.7992" y2="-0.5" transform="matrix(0.800478 -0.599362 0.643228 0.765675 166.392 127.008)" stroke="white" stroke-linecap="round"/>
<line x1="0.5" y1="-0.5" x2="51.7992" y2="-0.5" transform="matrix(0.800478 -0.599362 0.643228 0.765675 166.392 126.1)" stroke="white" stroke-linecap="round"/>
<line x1="0.5" y1="-0.5" x2="51.7992" y2="-0.5" transform="matrix(0.800478 -0.599362 0.643228 0.765675 166.392 125.191)" stroke="white" stroke-linecap="round"/>
<line x1="0.5" y1="-0.5" x2="51.7992" y2="-0.5" transform="matrix(0.800478 -0.599362 0.643228 0.765675 166.392 124.282)" stroke="white" stroke-linecap="round"/>
<line x1="0.5" y1="-0.5" x2="51.7992" y2="-0.5" transform="matrix(0.800478 -0.599362 0.643228 0.765675 166.392 123.374)" stroke="white" stroke-linecap="round"/>
<line x1="0.5" y1="-0.5" x2="51.7992" y2="-0.5" transform="matrix(0.800478 -0.599362 0.643228 0.765675 166.392 122.465)" stroke="white" stroke-linecap="round"/>
<line x1="0.5" y1="-0.5" x2="51.7992" y2="-0.5" transform="matrix(0.800478 -0.599362 0.643228 0.765675 166.392 121.557)" stroke="white" stroke-linecap="round"/>
<line x1="0.5" y1="-0.5" x2="51.7992" y2="-0.5" transform="matrix(0.800478 -0.599362 0.643228 0.765675 166.392 120.648)" stroke="white" stroke-linecap="round"/>
<line x1="0.5" y1="-0.5" x2="51.7992" y2="-0.5" transform="matrix(0.800478 -0.599362 0.643228 0.765675 166.392 119.74)" stroke="white" stroke-linecap="round"/>
<line x1="0.5" y1="-0.5" x2="51.7992" y2="-0.5" transform="matrix(0.800478 -0.599362 0.643228 0.765675 166.392 118.831)" stroke="white" stroke-linecap="round"/>
<line x1="0.5" y1="-0.5" x2="51.7992" y2="-0.5" transform="matrix(0.800478 -0.599362 0.643228 0.765675 166.392 117.922)" stroke="white" stroke-linecap="round"/>
<line x1="0.5" y1="-0.5" x2="51.7992" y2="-0.5" transform="matrix(0.800478 -0.599362 0.643228 0.765675 166.392 117.014)" stroke="white" stroke-linecap="round"/>
<line x1="0.5" y1="-0.5" x2="51.7992" y2="-0.5" transform="matrix(0.800478 -0.599362 0.643228 0.765675 166.392 116.105)" stroke="white" stroke-linecap="round"/>
<line x1="0.5" y1="-0.5" x2="51.7992" y2="-0.5" transform="matrix(0.800478 -0.599362 0.643228 0.765675 166.392 115.197)" stroke="white" stroke-linecap="round"/>
<line x1="0.5" y1="-0.5" x2="51.7992" y2="-0.5" transform="matrix(0.800478 -0.599362 0.643228 0.765675 166.392 114.288)" stroke="white" stroke-linecap="round"/>
<line x1="0.5" y1="-0.5" x2="51.7992" y2="-0.5" transform="matrix(0.800478 -0.599362 0.643228 0.765675 166.392 113.379)" stroke="white" stroke-linecap="round"/>
<line x1="0.5" y1="-0.5" x2="51.7992" y2="-0.5" transform="matrix(0.800478 -0.599362 0.643228 0.765675 166.392 112.471)" stroke="white" stroke-linecap="round"/>
<line x1="0.5" y1="-0.5" x2="51.7992" y2="-0.5" transform="matrix(0.800478 -0.599362 0.643228 0.765675 166.392 111.562)" stroke="white" stroke-linecap="round"/>
<line x1="0.5" y1="-0.5" x2="51.7992" y2="-0.5" transform="matrix(0.800478 -0.599362 0.643228 0.765675 166.392 110.654)" stroke="white" stroke-linecap="round"/>
<line x1="0.5" y1="-0.5" x2="51.7992" y2="-0.5" transform="matrix(0.800478 -0.599362 0.643228 0.765675 166.392 109.745)" stroke="white" stroke-linecap="round"/>
<line x1="0.25" y1="-0.25" x2="35.8554" y2="-0.25" transform="matrix(0.802735 -0.596336 0.646195 0.763173 166.392 107.112)" stroke="white" stroke-width="0.5" stroke-linecap="round"/>
<line x1="0.25" y1="-0.25" x2="35.8554" y2="-0.25" transform="matrix(0.802735 -0.596336 0.646195 0.763173 166.392 106.488)" stroke="white" stroke-width="0.5" stroke-linecap="round"/>
<line x1="0.25" y1="-0.25" x2="35.8554" y2="-0.25" transform="matrix(0.802735 -0.596336 0.646195 0.763173 166.392 105.864)" stroke="white" stroke-width="0.5" stroke-linecap="round"/>
<line x1="0.25" y1="-0.25" x2="35.8554" y2="-0.25" transform="matrix(0.802735 -0.596336 0.646195 0.763173 166.392 105.24)" stroke="white" stroke-width="0.5" stroke-linecap="round"/>
<line x1="0.25" y1="-0.25" x2="35.8554" y2="-0.25" transform="matrix(0.802735 -0.596336 0.646195 0.763173 166.392 104.615)" stroke="white" stroke-width="0.5" stroke-linecap="round"/>
<line x1="0.25" y1="-0.25" x2="35.8554" y2="-0.25" transform="matrix(0.802735 -0.596336 0.646195 0.763173 166.392 103.991)" stroke="white" stroke-width="0.5" stroke-linecap="round"/>
<line x1="0.25" y1="-0.25" x2="35.8554" y2="-0.25" transform="matrix(0.802735 -0.596336 0.646195 0.763173 166.392 103.367)" stroke="white" stroke-width="0.5" stroke-linecap="round"/>
<line x1="0.25" y1="-0.25" x2="35.8554" y2="-0.25" transform="matrix(0.802735 -0.596336 0.646195 0.763173 166.392 102.743)" stroke="white" stroke-width="0.5" stroke-linecap="round"/>
<line x1="0.25" y1="-0.25" x2="35.8554" y2="-0.25" transform="matrix(0.802735 -0.596336 0.646195 0.763173 166.392 102.119)" stroke="white" stroke-width="0.5" stroke-linecap="round"/>
<line x1="0.25" y1="-0.25" x2="35.8554" y2="-0.25" transform="matrix(0.802735 -0.596336 0.646195 0.763173 166.392 101.495)" stroke="white" stroke-width="0.5" stroke-linecap="round"/>
<line x1="0.25" y1="-0.25" x2="35.8554" y2="-0.25" transform="matrix(0.802735 -0.596336 0.646195 0.763173 166.392 100.871)" stroke="white" stroke-width="0.5" stroke-linecap="round"/>
<line x1="0.25" y1="-0.25" x2="35.8554" y2="-0.25" transform="matrix(0.802735 -0.596336 0.646195 0.763173 166.392 100.247)" stroke="white" stroke-width="0.5" stroke-linecap="round"/>
<line x1="0.25" y1="-0.25" x2="35.8554" y2="-0.25" transform="matrix(0.802735 -0.596336 0.646195 0.763173 166.392 99.6226)" stroke="white" stroke-width="0.5" stroke-linecap="round"/>
<line x1="0.25" y1="-0.25" x2="35.8554" y2="-0.25" transform="matrix(0.802735 -0.596336 0.646195 0.763173 166.392 98.9985)" stroke="white" stroke-width="0.5" stroke-linecap="round"/>
<line x1="0.25" y1="-0.25" x2="35.8554" y2="-0.25" transform="matrix(0.802735 -0.596336 0.646195 0.763173 166.392 98.3745)" stroke="white" stroke-width="0.5" stroke-linecap="round"/>
<line x1="0.25" y1="-0.25" x2="35.8554" y2="-0.25" transform="matrix(0.802735 -0.596336 0.646195 0.763173 166.392 97.7505)" stroke="white" stroke-width="0.5" stroke-linecap="round"/>
<line x1="0.25" y1="-0.25" x2="35.8554" y2="-0.25" transform="matrix(0.802735 -0.596336 0.646195 0.763173 166.392 97.1262)" stroke="white" stroke-width="0.5" stroke-linecap="round"/>
<line x1="0.25" y1="-0.25" x2="35.8554" y2="-0.25" transform="matrix(0.802735 -0.596336 0.646195 0.763173 166.392 96.5022)" stroke="white" stroke-width="0.5" stroke-linecap="round"/>
<line x1="0.25" y1="-0.25" x2="35.8554" y2="-0.25" transform="matrix(0.802735 -0.596336 0.646195 0.763173 166.392 95.8782)" stroke="white" stroke-width="0.5" stroke-linecap="round"/>
<line x1="0.25" y1="-0.25" x2="35.8554" y2="-0.25" transform="matrix(0.802735 -0.596336 0.646195 0.763173 166.392 95.2542)" stroke="white" stroke-width="0.5" stroke-linecap="round"/>
<line x1="0.25" y1="-0.25" x2="35.8554" y2="-0.25" transform="matrix(0.802735 -0.596336 0.646195 0.763173 166.392 94.6299)" stroke="white" stroke-width="0.5" stroke-linecap="round"/>
<line x1="0.25" y1="-0.25" x2="35.8554" y2="-0.25" transform="matrix(0.802735 -0.596336 0.646195 0.763173 166.392 94.0059)" stroke="white" stroke-width="0.5" stroke-linecap="round"/>
<line x1="0.25" y1="-0.25" x2="35.8554" y2="-0.25" transform="matrix(0.802735 -0.596336 0.646195 0.763173 166.392 93.3818)" stroke="white" stroke-width="0.5" stroke-linecap="round"/>
<line x1="0.25" y1="-0.25" x2="35.8554" y2="-0.25" transform="matrix(0.802735 -0.596336 0.646195 0.763173 166.392 92.7578)" stroke="white" stroke-width="0.5" stroke-linecap="round"/>
<line x1="0.25" y1="-0.25" x2="35.8554" y2="-0.25" transform="matrix(0.802735 -0.596336 0.646195 0.763173 166.392 92.1335)" stroke="white" stroke-width="0.5" stroke-linecap="round"/>
<line x1="0.25" y1="-0.25" x2="35.8554" y2="-0.25" transform="matrix(0.802735 -0.596336 0.646195 0.763173 166.392 91.5095)" stroke="white" stroke-width="0.5" stroke-linecap="round"/>
<line x1="0.25" y1="-0.25" x2="35.8554" y2="-0.25" transform="matrix(0.802735 -0.596336 0.646195 0.763173 166.392 90.8855)" stroke="white" stroke-width="0.5" stroke-linecap="round"/>
<line x1="0.25" y1="-0.25" x2="35.8554" y2="-0.25" transform="matrix(0.802735 -0.596336 0.646195 0.763173 166.392 90.2615)" stroke="white" stroke-width="0.5" stroke-linecap="round"/>
<line x1="0.25" y1="-0.25" x2="35.8554" y2="-0.25" transform="matrix(0.802735 -0.596336 0.646195 0.763173 166.392 89.6375)" stroke="white" stroke-width="0.5" stroke-linecap="round"/>
<line x1="0.25" y1="-0.25" x2="35.8554" y2="-0.25" transform="matrix(0.802735 -0.596336 0.646195 0.763173 166.392 89.0132)" stroke="white" stroke-width="0.5" stroke-linecap="round"/>
<line x1="0.25" y1="-0.25" x2="35.8554" y2="-0.25" transform="matrix(0.802735 -0.596336 0.646195 0.763173 166.392 88.3892)" stroke="white" stroke-width="0.5" stroke-linecap="round"/>
<line x1="0.25" y1="-0.25" x2="35.8554" y2="-0.25" transform="matrix(0.802735 -0.596336 0.646195 0.763173 166.392 87.7651)" stroke="white" stroke-width="0.5" stroke-linecap="round"/>
<line x1="0.25" y1="-0.25" x2="35.8554" y2="-0.25" transform="matrix(0.802735 -0.596336 0.646195 0.763173 166.392 87.1411)" stroke="white" stroke-width="0.5" stroke-linecap="round"/>
<line x1="0.25" y1="-0.25" x2="35.8554" y2="-0.25" transform="matrix(0.802735 -0.596336 0.646195 0.763173 166.392 86.5168)" stroke="white" stroke-width="0.5" stroke-linecap="round"/>
<line x1="0.5" y1="-0.5" x2="55.7871" y2="-0.5" transform="matrix(-0.83912 -0.543946 -0.696387 0.717667 165.318 247.772)" stroke="white" stroke-linecap="round"/>
<line x1="0.5" y1="-0.5" x2="55.7871" y2="-0.5" transform="matrix(-0.83912 -0.543946 -0.696387 0.717667 165.318 246.782)" stroke="white" stroke-linecap="round"/>
<line x1="0.5" y1="-0.5" x2="55.7871" y2="-0.5" transform="matrix(-0.83912 -0.543946 -0.696387 0.717667 165.318 245.791)" stroke="white" stroke-linecap="round"/>
<line x1="0.5" y1="-0.5" x2="55.7871" y2="-0.5" transform="matrix(-0.83912 -0.543946 -0.696387 0.717667 165.318 244.8)" stroke="white" stroke-linecap="round"/>
<line x1="0.5" y1="-0.5" x2="55.7871" y2="-0.5" transform="matrix(-0.83912 -0.543946 -0.696387 0.717667 165.318 243.81)" stroke="white" stroke-linecap="round"/>
<line x1="0.5" y1="-0.5" x2="55.7871" y2="-0.5" transform="matrix(-0.83912 -0.543946 -0.696387 0.717667 165.318 242.819)" stroke="white" stroke-linecap="round"/>
<line x1="0.5" y1="-0.5" x2="55.7871" y2="-0.5" transform="matrix(-0.83912 -0.543946 -0.696387 0.717667 165.318 241.828)" stroke="white" stroke-linecap="round"/>
<line x1="0.5" y1="-0.5" x2="55.7871" y2="-0.5" transform="matrix(-0.83912 -0.543946 -0.696387 0.717667 165.318 240.838)" stroke="white" stroke-linecap="round"/>
<line x1="0.5" y1="-0.5" x2="55.7871" y2="-0.5" transform="matrix(-0.83912 -0.543946 -0.696387 0.717667 165.318 239.847)" stroke="white" stroke-linecap="round"/>
<line x1="0.5" y1="-0.5" x2="55.7871" y2="-0.5" transform="matrix(-0.83912 -0.543946 -0.696387 0.717667 165.318 238.856)" stroke="white" stroke-linecap="round"/>
<line x1="0.5" y1="-0.5" x2="55.7871" y2="-0.5" transform="matrix(-0.83912 -0.543946 -0.696387 0.717667 165.318 237.866)" stroke="white" stroke-linecap="round"/>
<line x1="0.5" y1="-0.5" x2="55.7871" y2="-0.5" transform="matrix(-0.83912 -0.543946 -0.696387 0.717667 165.318 236.875)" stroke="white" stroke-linecap="round"/>
<line x1="0.5" y1="-0.5" x2="55.7871" y2="-0.5" transform="matrix(-0.83912 -0.543946 -0.696387 0.717667 165.318 235.885)" stroke="white" stroke-linecap="round"/>
<line x1="0.5" y1="-0.5" x2="55.7871" y2="-0.5" transform="matrix(-0.83912 -0.543946 -0.696387 0.717667 165.318 234.894)" stroke="white" stroke-linecap="round"/>
<line x1="0.5" y1="-0.5" x2="55.7871" y2="-0.5" transform="matrix(-0.83912 -0.543946 -0.696387 0.717667 165.318 233.903)" stroke="white" stroke-linecap="round"/>
<line x1="0.5" y1="-0.5" x2="55.7871" y2="-0.5" transform="matrix(-0.83912 -0.543946 -0.696387 0.717667 165.318 232.913)" stroke="white" stroke-linecap="round"/>
<line x1="0.5" y1="-0.5" x2="55.7871" y2="-0.5" transform="matrix(-0.83912 -0.543946 -0.696387 0.717667 165.318 231.922)" stroke="white" stroke-linecap="round"/>
<line x1="0.5" y1="-0.5" x2="55.7871" y2="-0.5" transform="matrix(-0.83912 -0.543946 -0.696387 0.717667 165.318 230.931)" stroke="white" stroke-linecap="round"/>
<line x1="0.5" y1="-0.5" x2="55.7871" y2="-0.5" transform="matrix(-0.83912 -0.543946 -0.696387 0.717667 165.318 229.941)" stroke="white" stroke-linecap="round"/>
<line x1="0.5" y1="-0.5" x2="55.7871" y2="-0.5" transform="matrix(-0.83912 -0.543946 -0.696387 0.717667 165.318 228.95)" stroke="white" stroke-linecap="round"/>
<line x1="0.5" y1="-0.5" x2="55.7871" y2="-0.5" transform="matrix(-0.83912 -0.543946 -0.696387 0.717667 165.318 227.959)" stroke="white" stroke-linecap="round"/>
<line x1="0.5" y1="-0.5" x2="55.7871" y2="-0.5" transform="matrix(-0.83912 -0.543946 -0.696387 0.717667 165.318 226.969)" stroke="white" stroke-linecap="round"/>
<line x1="0.5" y1="-0.5" x2="55.7871" y2="-0.5" transform="matrix(-0.83912 -0.543946 -0.696387 0.717667 165.318 225.978)" stroke="white" stroke-linecap="round"/>
<line x1="0.5" y1="-0.5" x2="55.7871" y2="-0.5" transform="matrix(-0.83912 -0.543946 -0.696387 0.717667 165.318 224.988)" stroke="white" stroke-linecap="round"/>
<line x1="0.5" y1="-0.5" x2="55.7871" y2="-0.5" transform="matrix(-0.83912 -0.543946 -0.696387 0.717667 165.318 223.997)" stroke="white" stroke-linecap="round"/>
<line x1="0.5" y1="-0.5" x2="55.7871" y2="-0.5" transform="matrix(-0.83912 -0.543946 -0.696387 0.717667 165.318 223.006)" stroke="white" stroke-linecap="round"/>
<line x1="0.5" y1="-0.5" x2="55.7871" y2="-0.5" transform="matrix(-0.83912 -0.543946 -0.696387 0.717667 165.318 222.015)" stroke="white" stroke-linecap="round"/>
<line x1="0.5" y1="-0.5" x2="55.7871" y2="-0.5" transform="matrix(-0.83912 -0.543946 -0.696387 0.717667 165.318 221.025)" stroke="white" stroke-linecap="round"/>
<line x1="0.5" y1="-0.5" x2="55.7871" y2="-0.5" transform="matrix(-0.83912 -0.543946 -0.696387 0.717667 165.318 220.034)" stroke="white" stroke-linecap="round"/>
<line x1="0.5" y1="-0.5" x2="55.7871" y2="-0.5" transform="matrix(-0.83912 -0.543946 -0.696387 0.717667 165.318 219.043)" stroke="white" stroke-linecap="round"/>
<line x1="0.5" y1="-0.5" x2="55.7871" y2="-0.5" transform="matrix(-0.83912 -0.543946 -0.696387 0.717667 165.318 218.053)" stroke="white" stroke-linecap="round"/>
<line x1="0.5" y1="-0.5" x2="55.7871" y2="-0.5" transform="matrix(-0.83912 -0.543946 -0.696387 0.717667 165.318 217.062)" stroke="white" stroke-linecap="round"/>
<line x1="0.5" y1="-0.5" x2="55.7871" y2="-0.5" transform="matrix(-0.83912 -0.543946 -0.696387 0.717667 165.318 216.072)" stroke="white" stroke-linecap="round"/>
<line x1="0.5" y1="-0.5" x2="55.7871" y2="-0.5" transform="matrix(-0.83912 -0.543946 -0.696387 0.717667 165.318 215.081)" stroke="white" stroke-linecap="round"/>
<line x1="0.5" y1="-0.5" x2="55.7871" y2="-0.5" transform="matrix(-0.83912 -0.543946 -0.696387 0.717667 165.318 214.09)" stroke="white" stroke-linecap="round"/>
<line x1="0.5" y1="-0.5" x2="55.7871" y2="-0.5" transform="matrix(-0.83912 -0.543946 -0.696387 0.717667 165.318 213.1)" stroke="white" stroke-linecap="round"/>
<line x1="0.5" y1="-0.5" x2="55.7871" y2="-0.5" transform="matrix(-0.83912 -0.543946 -0.696387 0.717667 165.318 212.109)" stroke="white" stroke-linecap="round"/>
<line x1="0.5" y1="-0.5" x2="55.7871" y2="-0.5" transform="matrix(-0.83912 -0.543946 -0.696387 0.717667 165.318 211.118)" stroke="white" stroke-linecap="round"/>
<line x1="0.5" y1="-0.5" x2="55.7871" y2="-0.5" transform="matrix(-0.83912 -0.543946 -0.696387 0.717667 165.318 210.128)" stroke="white" stroke-linecap="round"/>
<line x1="0.5" y1="-0.5" x2="55.7871" y2="-0.5" transform="matrix(-0.83912 -0.543946 -0.696387 0.717667 165.318 209.137)" stroke="white" stroke-linecap="round"/>
<line x1="0.5" y1="-0.5" x2="55.7871" y2="-0.5" transform="matrix(-0.83912 -0.543946 -0.696387 0.717667 165.318 208.146)" stroke="white" stroke-linecap="round"/>
<line x1="0.5" y1="-0.5" x2="55.7871" y2="-0.5" transform="matrix(-0.83912 -0.543946 -0.696387 0.717667 165.318 207.156)" stroke="white" stroke-linecap="round"/>
<line x1="0.5" y1="-0.5" x2="55.7871" y2="-0.5" transform="matrix(-0.83912 -0.543946 -0.696387 0.717667 165.318 206.165)" stroke="white" stroke-linecap="round"/>
<line x1="0.5" y1="-0.5" x2="55.7871" y2="-0.5" transform="matrix(-0.83912 -0.543946 -0.696387 0.717667 165.318 205.175)" stroke="white" stroke-linecap="round"/>
<line x1="0.5" y1="-0.5" x2="55.7871" y2="-0.5" transform="matrix(-0.83912 -0.543946 -0.696387 0.717667 165.318 204.184)" stroke="white" stroke-linecap="round"/>
<line x1="0.5" y1="-0.5" x2="55.7871" y2="-0.5" transform="matrix(-0.83912 -0.543946 -0.696387 0.717667 165.318 203.193)" stroke="white" stroke-linecap="round"/>
<line x1="0.5" y1="-0.5" x2="55.7871" y2="-0.5" transform="matrix(-0.83912 -0.543946 -0.696387 0.717667 165.318 202.203)" stroke="white" stroke-linecap="round"/>
<line x1="0.5" y1="-0.5" x2="55.7871" y2="-0.5" transform="matrix(-0.83912 -0.543946 -0.696387 0.717667 165.318 201.212)" stroke="white" stroke-linecap="round"/>
<line x1="0.5" y1="-0.5" x2="55.7871" y2="-0.5" transform="matrix(-0.83912 -0.543946 -0.696387 0.717667 165.318 200.221)" stroke="white" stroke-linecap="round"/>
<line x1="0.5" y1="-0.5" x2="55.7871" y2="-0.5" transform="matrix(-0.83912 -0.543946 -0.696387 0.717667 165.318 181.399)" stroke="white" stroke-linecap="round"/>
<line x1="0.5" y1="-0.5" x2="55.7871" y2="-0.5" transform="matrix(-0.83912 -0.543946 -0.696387 0.717667 165.318 199.231)" stroke="white" stroke-linecap="round"/>
<line x1="0.5" y1="-0.5" x2="55.7871" y2="-0.5" transform="matrix(-0.83912 -0.543946 -0.696387 0.717667 165.318 198.24)" stroke="white" stroke-linecap="round"/>
<line x1="0.5" y1="-0.5" x2="55.7871" y2="-0.5" transform="matrix(-0.83912 -0.543946 -0.696387 0.717667 165.318 197.249)" stroke="white" stroke-linecap="round"/>
<line x1="0.5" y1="-0.5" x2="55.7871" y2="-0.5" transform="matrix(-0.83912 -0.543946 -0.696387 0.717667 165.318 196.259)" stroke="white" stroke-linecap="round"/>
<line x1="0.5" y1="-0.5" x2="55.7871" y2="-0.5" transform="matrix(-0.83912 -0.543946 -0.696387 0.717667 165.318 195.268)" stroke="white" stroke-linecap="round"/>
<line x1="0.5" y1="-0.5" x2="55.7871" y2="-0.5" transform="matrix(-0.83912 -0.543946 -0.696387 0.717667 165.318 194.277)" stroke="white" stroke-linecap="round"/>
<line x1="0.5" y1="-0.5" x2="55.7871" y2="-0.5" transform="matrix(-0.83912 -0.543946 -0.696387 0.717667 165.318 193.287)" stroke="white" stroke-linecap="round"/>
<line x1="0.5" y1="-0.5" x2="55.7871" y2="-0.5" transform="matrix(-0.83912 -0.543946 -0.696387 0.717667 165.318 192.296)" stroke="white" stroke-linecap="round"/>
<line x1="0.5" y1="-0.5" x2="55.7871" y2="-0.5" transform="matrix(-0.83912 -0.543946 -0.696387 0.717667 165.318 191.305)" stroke="white" stroke-linecap="round"/>
<line x1="0.5" y1="-0.5" x2="55.7871" y2="-0.5" transform="matrix(-0.83912 -0.543946 -0.696387 0.717667 165.318 190.315)" stroke="white" stroke-linecap="round"/>
<line x1="0.5" y1="-0.5" x2="55.7871" y2="-0.5" transform="matrix(-0.83912 -0.543946 -0.696387 0.717667 165.318 189.324)" stroke="white" stroke-linecap="round"/>
<line x1="0.5" y1="-0.5" x2="55.7871" y2="-0.5" transform="matrix(-0.83912 -0.543946 -0.696387 0.717667 165.318 188.333)" stroke="white" stroke-linecap="round"/>
<line x1="0.5" y1="-0.5" x2="55.7871" y2="-0.5" transform="matrix(-0.83912 -0.543946 -0.696387 0.717667 165.318 187.343)" stroke="white" stroke-linecap="round"/>
<line x1="0.5" y1="-0.5" x2="55.7871" y2="-0.5" transform="matrix(-0.83912 -0.543946 -0.696387 0.717667 165.318 186.352)" stroke="white" stroke-linecap="round"/>
<line x1="0.5" y1="-0.5" x2="55.7871" y2="-0.5" transform="matrix(-0.83912 -0.543946 -0.696387 0.717667 165.318 185.362)" stroke="white" stroke-linecap="round"/>
<line x1="0.5" y1="-0.5" x2="55.7871" y2="-0.5" transform="matrix(-0.83912 -0.543946 -0.696387 0.717667 165.318 184.371)" stroke="white" stroke-linecap="round"/>
<line x1="0.5" y1="-0.5" x2="55.7871" y2="-0.5" transform="matrix(-0.83912 -0.543946 -0.696387 0.717667 165.318 183.38)" stroke="white" stroke-linecap="round"/>
<line x1="0.5" y1="-0.5" x2="55.7871" y2="-0.5" transform="matrix(-0.83912 -0.543946 -0.696387 0.717667 165.318 182.39)" stroke="white" stroke-linecap="round"/>
<line x1="0.5" y1="-0.5" x2="42.0246" y2="-0.5" transform="matrix(-0.850869 -0.525379 -0.713629 0.700524 165.541 172.765)" stroke="white" stroke-linecap="round"/>
<line x1="0.5" y1="-0.5" x2="42.0246" y2="-0.5" transform="matrix(-0.850869 -0.525379 -0.713629 0.700524 165.541 172.042)" stroke="white" stroke-linecap="round"/>
<line x1="0.5" y1="-0.5" x2="42.0246" y2="-0.5" transform="matrix(-0.850869 -0.525379 -0.713629 0.700524 165.541 171.319)" stroke="white" stroke-linecap="round"/>
<line x1="0.5" y1="-0.5" x2="42.0246" y2="-0.5" transform="matrix(-0.850869 -0.525379 -0.713629 0.700524 165.541 170.596)" stroke="white" stroke-linecap="round"/>
<line x1="0.5" y1="-0.5" x2="42.0246" y2="-0.5" transform="matrix(-0.850869 -0.525379 -0.713629 0.700524 165.541 169.873)" stroke="white" stroke-linecap="round"/>
<line x1="0.5" y1="-0.5" x2="42.0246" y2="-0.5" transform="matrix(-0.850869 -0.525379 -0.713629 0.700524 165.541 169.15)" stroke="white" stroke-linecap="round"/>
<line x1="0.5" y1="-0.5" x2="42.0246" y2="-0.5" transform="matrix(-0.850869 -0.525379 -0.713629 0.700524 165.541 168.427)" stroke="white" stroke-linecap="round"/>
<line x1="0.5" y1="-0.5" x2="42.0246" y2="-0.5" transform="matrix(-0.850869 -0.525379 -0.713629 0.700524 165.541 167.705)" stroke="white" stroke-linecap="round"/>
<line x1="0.5" y1="-0.5" x2="42.0246" y2="-0.5" transform="matrix(-0.850869 -0.525379 -0.713629 0.700524 165.541 166.982)" stroke="white" stroke-linecap="round"/>
<line x1="0.5" y1="-0.5" x2="42.0246" y2="-0.5" transform="matrix(-0.850869 -0.525379 -0.713629 0.700524 165.541 166.259)" stroke="white" stroke-linecap="round"/>
<line x1="0.5" y1="-0.5" x2="42.0246" y2="-0.5" transform="matrix(-0.850869 -0.525379 -0.713629 0.700524 165.541 165.536)" stroke="white" stroke-linecap="round"/>
<line x1="0.5" y1="-0.5" x2="42.0246" y2="-0.5" transform="matrix(-0.850869 -0.525379 -0.713629 0.700524 165.541 164.813)" stroke="white" stroke-linecap="round"/>
<line x1="0.5" y1="-0.5" x2="42.0246" y2="-0.5" transform="matrix(-0.850869 -0.525379 -0.713629 0.700524 165.541 164.09)" stroke="white" stroke-linecap="round"/>
<line x1="0.5" y1="-0.5" x2="42.0246" y2="-0.5" transform="matrix(-0.850869 -0.525379 -0.713629 0.700524 165.541 163.367)" stroke="white" stroke-linecap="round"/>
<line x1="0.5" y1="-0.5" x2="42.0246" y2="-0.5" transform="matrix(-0.850869 -0.525379 -0.713629 0.700524 165.541 162.645)" stroke="white" stroke-linecap="round"/>
<line x1="0.5" y1="-0.5" x2="42.0246" y2="-0.5" transform="matrix(-0.850869 -0.525379 -0.713629 0.700524 165.541 161.922)" stroke="white" stroke-linecap="round"/>
<line x1="0.5" y1="-0.5" x2="42.0246" y2="-0.5" transform="matrix(-0.850869 -0.525379 -0.713629 0.700524 165.541 161.199)" stroke="white" stroke-linecap="round"/>
<line x1="0.5" y1="-0.5" x2="42.0246" y2="-0.5" transform="matrix(-0.850869 -0.525379 -0.713629 0.700524 165.541 160.476)" stroke="white" stroke-linecap="round"/>
<line x1="0.5" y1="-0.5" x2="42.0246" y2="-0.5" transform="matrix(-0.850869 -0.525379 -0.713629 0.700524 165.541 159.753)" stroke="white" stroke-linecap="round"/>
<line x1="0.5" y1="-0.5" x2="42.0246" y2="-0.5" transform="matrix(-0.850869 -0.525379 -0.713629 0.700524 165.541 159.03)" stroke="white" stroke-linecap="round"/>
<line x1="0.5" y1="-0.5" x2="42.0246" y2="-0.5" transform="matrix(-0.850869 -0.525379 -0.713629 0.700524 165.541 158.307)" stroke="white" stroke-linecap="round"/>
<line x1="0.5" y1="-0.5" x2="42.0246" y2="-0.5" transform="matrix(-0.850869 -0.525379 -0.713629 0.700524 165.541 157.584)" stroke="white" stroke-linecap="round"/>
<line x1="0.5" y1="-0.5" x2="42.0246" y2="-0.5" transform="matrix(-0.850869 -0.525379 -0.713629 0.700524 165.541 156.861)" stroke="white" stroke-linecap="round"/>
<line x1="0.5" y1="-0.5" x2="42.0246" y2="-0.5" transform="matrix(-0.850869 -0.525379 -0.713629 0.700524 165.541 156.139)" stroke="white" stroke-linecap="round"/>
<line x1="0.5" y1="-0.5" x2="42.0246" y2="-0.5" transform="matrix(-0.850869 -0.525379 -0.713629 0.700524 165.541 155.416)" stroke="white" stroke-linecap="round"/>
<line x1="0.5" y1="-0.5" x2="42.0246" y2="-0.5" transform="matrix(-0.850869 -0.525379 -0.713629 0.700524 165.541 154.693)" stroke="white" stroke-linecap="round"/>
<line x1="0.5" y1="-0.5" x2="42.0246" y2="-0.5" transform="matrix(-0.850869 -0.525379 -0.713629 0.700524 165.541 153.97)" stroke="white" stroke-linecap="round"/>
<line x1="0.5" y1="-0.5" x2="42.0246" y2="-0.5" transform="matrix(-0.850869 -0.525379 -0.713629 0.700524 165.541 153.247)" stroke="white" stroke-linecap="round"/>
<line x1="0.5" y1="-0.5" x2="42.0246" y2="-0.5" transform="matrix(-0.850869 -0.525379 -0.713629 0.700524 165.541 152.524)" stroke="white" stroke-linecap="round"/>
<line x1="0.5" y1="-0.5" x2="42.0246" y2="-0.5" transform="matrix(-0.850869 -0.525379 -0.713629 0.700524 165.541 151.801)" stroke="white" stroke-linecap="round"/>
<line x1="0.5" y1="-0.5" x2="42.0246" y2="-0.5" transform="matrix(-0.850869 -0.525379 -0.713629 0.700524 165.541 151.078)" stroke="white" stroke-linecap="round"/>
<line x1="0.5" y1="-0.5" x2="42.0246" y2="-0.5" transform="matrix(-0.850869 -0.525379 -0.713629 0.700524 165.541 150.355)" stroke="white" stroke-linecap="round"/>
<line x1="0.5" y1="-0.5" x2="42.0246" y2="-0.5" transform="matrix(-0.850869 -0.525379 -0.713629 0.700524 165.541 149.633)" stroke="white" stroke-linecap="round"/>
<line x1="0.5" y1="-0.5" x2="42.0246" y2="-0.5" transform="matrix(-0.850869 -0.525379 -0.713629 0.700524 165.541 148.91)" stroke="white" stroke-linecap="round"/>
<line x1="0.5" y1="-0.5" x2="42.0246" y2="-0.5" transform="matrix(-0.850869 -0.525379 -0.713629 0.700524 165.541 148.187)" stroke="white" stroke-linecap="round"/>
<line x1="0.5" y1="-0.5" x2="42.0246" y2="-0.5" transform="matrix(-0.850869 -0.525379 -0.713629 0.700524 165.541 147.464)" stroke="white" stroke-linecap="round"/>
<line x1="0.5" y1="-0.5" x2="42.0246" y2="-0.5" transform="matrix(-0.850869 -0.525379 -0.713629 0.700524 165.541 146.741)" stroke="white" stroke-linecap="round"/>
<line x1="0.5" y1="-0.5" x2="42.0246" y2="-0.5" transform="matrix(-0.850869 -0.525379 -0.713629 0.700524 165.541 146.018)" stroke="white" stroke-linecap="round"/>
<line x1="0.5" y1="-0.5" x2="42.0246" y2="-0.5" transform="matrix(-0.850869 -0.525379 -0.713629 0.700524 165.541 145.295)" stroke="white" stroke-linecap="round"/>
<line x1="0.5" y1="-0.5" x2="42.0246" y2="-0.5" transform="matrix(-0.850869 -0.525379 -0.713629 0.700524 165.541 144.573)" stroke="white" stroke-linecap="round"/>
<line x1="0.5" y1="-0.5" x2="42.0246" y2="-0.5" transform="matrix(-0.850869 -0.525379 -0.713629 0.700524 165.541 143.85)" stroke="white" stroke-linecap="round"/>
<line x1="0.5" y1="-0.5" x2="42.0246" y2="-0.5" transform="matrix(-0.850869 -0.525379 -0.713629 0.700524 165.541 143.127)" stroke="white" stroke-linecap="round"/>
<line x1="0.5" y1="-0.5" x2="42.0246" y2="-0.5" transform="matrix(-0.850869 -0.525379 -0.713629 0.700524 165.541 142.404)" stroke="white" stroke-linecap="round"/>
<line x1="0.5" y1="-0.5" x2="42.0246" y2="-0.5" transform="matrix(-0.850869 -0.525379 -0.713629 0.700524 165.541 141.681)" stroke="white" stroke-linecap="round"/>
<line x1="0.5" y1="-0.5" x2="42.0246" y2="-0.5" transform="matrix(-0.850869 -0.525379 -0.713629 0.700524 165.541 140.958)" stroke="white" stroke-linecap="round"/>
<line x1="0.5" y1="-0.5" x2="42.0246" y2="-0.5" transform="matrix(-0.850869 -0.525379 -0.713629 0.700524 165.541 140.235)" stroke="white" stroke-linecap="round"/>
<line x1="0.5" y1="-0.5" x2="42.0246" y2="-0.5" transform="matrix(-0.850869 -0.525379 -0.713629 0.700524 165.541 139.512)" stroke="white" stroke-linecap="round"/>
<line x1="0.5" y1="-0.5" x2="42.0246" y2="-0.5" transform="matrix(-0.850869 -0.525379 -0.713629 0.700524 165.541 138.79)" stroke="white" stroke-linecap="round"/>
<line x1="0.5" y1="-0.5" x2="42.0246" y2="-0.5" transform="matrix(-0.850869 -0.525379 -0.713629 0.700524 165.541 138.067)" stroke="white" stroke-linecap="round"/>
<line x1="0.5" y1="-0.5" x2="42.0246" y2="-0.5" transform="matrix(-0.850869 -0.525379 -0.713629 0.700524 165.541 124.332)" stroke="white" stroke-linecap="round"/>
<line x1="0.5" y1="-0.5" x2="42.0246" y2="-0.5" transform="matrix(-0.850869 -0.525379 -0.713629 0.700524 165.541 137.344)" stroke="white" stroke-linecap="round"/>
<line x1="0.5" y1="-0.5" x2="42.0246" y2="-0.5" transform="matrix(-0.850869 -0.525379 -0.713629 0.700524 165.541 136.621)" stroke="white" stroke-linecap="round"/>
<line x1="0.5" y1="-0.5" x2="42.0246" y2="-0.5" transform="matrix(-0.850869 -0.525379 -0.713629 0.700524 165.541 135.898)" stroke="white" stroke-linecap="round"/>
<line x1="0.5" y1="-0.5" x2="42.0246" y2="-0.5" transform="matrix(-0.850869 -0.525379 -0.713629 0.700524 165.541 135.175)" stroke="white" stroke-linecap="round"/>
<line x1="0.5" y1="-0.5" x2="42.0246" y2="-0.5" transform="matrix(-0.850869 -0.525379 -0.713629 0.700524 165.541 134.452)" stroke="white" stroke-linecap="round"/>
<line x1="0.5" y1="-0.5" x2="42.0246" y2="-0.5" transform="matrix(-0.850869 -0.525379 -0.713629 0.700524 165.541 133.729)" stroke="white" stroke-linecap="round"/>
<line x1="0.5" y1="-0.5" x2="42.0246" y2="-0.5" transform="matrix(-0.850869 -0.525379 -0.713629 0.700524 165.541 133.006)" stroke="white" stroke-linecap="round"/>
<line x1="0.5" y1="-0.5" x2="42.0246" y2="-0.5" transform="matrix(-0.850869 -0.525379 -0.713629 0.700524 165.541 132.283)" stroke="white" stroke-linecap="round"/>
<line x1="0.5" y1="-0.5" x2="42.0246" y2="-0.5" transform="matrix(-0.850869 -0.525379 -0.713629 0.700524 165.541 131.561)" stroke="white" stroke-linecap="round"/>
<line x1="0.5" y1="-0.5" x2="42.0246" y2="-0.5" transform="matrix(-0.850869 -0.525379 -0.713629 0.700524 165.541 130.838)" stroke="white" stroke-linecap="round"/>
<line x1="0.5" y1="-0.5" x2="42.0246" y2="-0.5" transform="matrix(-0.850869 -0.525379 -0.713629 0.700524 165.541 130.115)" stroke="white" stroke-linecap="round"/>
<line x1="0.5" y1="-0.5" x2="42.0246" y2="-0.5" transform="matrix(-0.850869 -0.525379 -0.713629 0.700524 165.541 129.392)" stroke="white" stroke-linecap="round"/>
<line x1="0.5" y1="-0.5" x2="42.0246" y2="-0.5" transform="matrix(-0.850869 -0.525379 -0.713629 0.700524 165.541 128.669)" stroke="white" stroke-linecap="round"/>
<line x1="0.5" y1="-0.5" x2="42.0246" y2="-0.5" transform="matrix(-0.850869 -0.525379 -0.713629 0.700524 165.541 127.946)" stroke="white" stroke-linecap="round"/>
<line x1="0.5" y1="-0.5" x2="42.0246" y2="-0.5" transform="matrix(-0.850869 -0.525379 -0.713629 0.700524 165.541 127.223)" stroke="white" stroke-linecap="round"/>
<line x1="0.5" y1="-0.5" x2="42.0246" y2="-0.5" transform="matrix(-0.850869 -0.525379 -0.713629 0.700524 165.541 126.5)" stroke="white" stroke-linecap="round"/>
<line x1="0.5" y1="-0.5" x2="42.0246" y2="-0.5" transform="matrix(-0.850869 -0.525379 -0.713629 0.700524 165.541 125.778)" stroke="white" stroke-linecap="round"/>
<line x1="0.5" y1="-0.5" x2="42.0246" y2="-0.5" transform="matrix(-0.850869 -0.525379 -0.713629 0.700524 165.541 125.055)" stroke="white" stroke-linecap="round"/>
<line x1="0.25" y1="-0.25" x2="37.2334" y2="-0.25" transform="matrix(-0.844819 -0.535052 -0.704683 0.709522 165.855 119.162)" stroke="white" stroke-width="0.5" stroke-linecap="round"/>
<line x1="0.25" y1="-0.25" x2="37.2334" y2="-0.25" transform="matrix(-0.844819 -0.535052 -0.704683 0.709522 165.855 118.513)" stroke="white" stroke-width="0.5" stroke-linecap="round"/>
<line x1="0.25" y1="-0.25" x2="37.2334" y2="-0.25" transform="matrix(-0.844819 -0.535052 -0.704683 0.709522 165.855 117.864)" stroke="white" stroke-width="0.5" stroke-linecap="round"/>
<line x1="0.25" y1="-0.25" x2="37.2334" y2="-0.25" transform="matrix(-0.844819 -0.535052 -0.704683 0.709522 165.855 117.215)" stroke="white" stroke-width="0.5" stroke-linecap="round"/>
<line x1="0.25" y1="-0.25" x2="37.2334" y2="-0.25" transform="matrix(-0.844819 -0.535052 -0.704683 0.709522 165.855 116.566)" stroke="white" stroke-width="0.5" stroke-linecap="round"/>
<line x1="0.25" y1="-0.25" x2="37.2334" y2="-0.25" transform="matrix(-0.844819 -0.535052 -0.704683 0.709522 165.855 115.917)" stroke="white" stroke-width="0.5" stroke-linecap="round"/>
<line x1="0.25" y1="-0.25" x2="37.2334" y2="-0.25" transform="matrix(-0.844819 -0.535052 -0.704683 0.709522 165.855 115.269)" stroke="white" stroke-width="0.5" stroke-linecap="round"/>
<line x1="0.25" y1="-0.25" x2="37.2334" y2="-0.25" transform="matrix(-0.844819 -0.535052 -0.704683 0.709522 165.855 114.62)" stroke="white" stroke-width="0.5" stroke-linecap="round"/>
<line x1="0.25" y1="-0.25" x2="37.2334" y2="-0.25" transform="matrix(-0.844819 -0.535052 -0.704683 0.709522 165.855 113.971)" stroke="white" stroke-width="0.5" stroke-linecap="round"/>
<line x1="0.25" y1="-0.25" x2="37.2334" y2="-0.25" transform="matrix(-0.844819 -0.535052 -0.704683 0.709522 165.855 113.322)" stroke="white" stroke-width="0.5" stroke-linecap="round"/>
<line x1="0.25" y1="-0.25" x2="37.2334" y2="-0.25" transform="matrix(-0.844819 -0.535052 -0.704683 0.709522 165.855 112.673)" stroke="white" stroke-width="0.5" stroke-linecap="round"/>
<line x1="0.25" y1="-0.25" x2="37.2334" y2="-0.25" transform="matrix(-0.844819 -0.535052 -0.704683 0.709522 165.855 112.024)" stroke="white" stroke-width="0.5" stroke-linecap="round"/>
<line x1="0.25" y1="-0.25" x2="37.2334" y2="-0.25" transform="matrix(-0.844819 -0.535052 -0.704683 0.709522 165.855 111.375)" stroke="white" stroke-width="0.5" stroke-linecap="round"/>
<line x1="0.25" y1="-0.25" x2="37.2334" y2="-0.25" transform="matrix(-0.844819 -0.535052 -0.704683 0.709522 165.855 110.726)" stroke="white" stroke-width="0.5" stroke-linecap="round"/>
<line x1="0.25" y1="-0.25" x2="37.2334" y2="-0.25" transform="matrix(-0.844819 -0.535052 -0.704683 0.709522 165.855 110.077)" stroke="white" stroke-width="0.5" stroke-linecap="round"/>
<line x1="0.25" y1="-0.25" x2="37.2334" y2="-0.25" transform="matrix(-0.844819 -0.535052 -0.704683 0.709522 165.855 109.428)" stroke="white" stroke-width="0.5" stroke-linecap="round"/>
<line x1="0.25" y1="-0.25" x2="37.2334" y2="-0.25" transform="matrix(-0.844819 -0.535052 -0.704683 0.709522 165.855 108.779)" stroke="white" stroke-width="0.5" stroke-linecap="round"/>
<line x1="0.25" y1="-0.25" x2="37.2334" y2="-0.25" transform="matrix(-0.844819 -0.535052 -0.704683 0.709522 165.855 108.13)" stroke="white" stroke-width="0.5" stroke-linecap="round"/>
<line x1="0.25" y1="-0.25" x2="37.2334" y2="-0.25" transform="matrix(-0.844819 -0.535052 -0.704683 0.709522 165.855 107.481)" stroke="white" stroke-width="0.5" stroke-linecap="round"/>
<line x1="0.25" y1="-0.25" x2="37.2334" y2="-0.25" transform="matrix(-0.844819 -0.535052 -0.704683 0.709522 165.855 106.833)" stroke="white" stroke-width="0.5" stroke-linecap="round"/>
<line x1="0.25" y1="-0.25" x2="37.2334" y2="-0.25" transform="matrix(-0.844819 -0.535052 -0.704683 0.709522 165.855 106.184)" stroke="white" stroke-width="0.5" stroke-linecap="round"/>
<line x1="0.25" y1="-0.25" x2="37.2334" y2="-0.25" transform="matrix(-0.844819 -0.535052 -0.704683 0.709522 165.855 105.535)" stroke="white" stroke-width="0.5" stroke-linecap="round"/>
<line x1="0.25" y1="-0.25" x2="37.2334" y2="-0.25" transform="matrix(-0.844819 -0.535052 -0.704683 0.709522 165.855 104.886)" stroke="white" stroke-width="0.5" stroke-linecap="round"/>
<line x1="0.25" y1="-0.25" x2="37.2334" y2="-0.25" transform="matrix(-0.844819 -0.535052 -0.704683 0.709522 165.855 92.5566)" stroke="white" stroke-width="0.5" stroke-linecap="round"/>
<line x1="0.25" y1="-0.25" x2="37.2334" y2="-0.25" transform="matrix(-0.844819 -0.535052 -0.704683 0.709522 165.855 104.237)" stroke="white" stroke-width="0.5" stroke-linecap="round"/>
<line x1="0.25" y1="-0.25" x2="37.2334" y2="-0.25" transform="matrix(-0.844819 -0.535052 -0.704683 0.709522 165.855 103.588)" stroke="white" stroke-width="0.5" stroke-linecap="round"/>
<line x1="0.25" y1="-0.25" x2="37.2334" y2="-0.25" transform="matrix(-0.844819 -0.535052 -0.704683 0.709522 165.855 102.939)" stroke="white" stroke-width="0.5" stroke-linecap="round"/>
<line x1="0.25" y1="-0.25" x2="37.2334" y2="-0.25" transform="matrix(-0.844819 -0.535052 -0.704683 0.709522 165.855 102.29)" stroke="white" stroke-width="0.5" stroke-linecap="round"/>
<line x1="0.25" y1="-0.25" x2="37.2334" y2="-0.25" transform="matrix(-0.844819 -0.535052 -0.704683 0.709522 165.855 101.641)" stroke="white" stroke-width="0.5" stroke-linecap="round"/>
<line x1="0.25" y1="-0.25" x2="37.2334" y2="-0.25" transform="matrix(-0.844819 -0.535052 -0.704683 0.709522 165.855 100.992)" stroke="white" stroke-width="0.5" stroke-linecap="round"/>
<line x1="0.25" y1="-0.25" x2="37.2334" y2="-0.25" transform="matrix(-0.844819 -0.535052 -0.704683 0.709522 165.855 100.344)" stroke="white" stroke-width="0.5" stroke-linecap="round"/>
<line x1="0.25" y1="-0.25" x2="37.2334" y2="-0.25" transform="matrix(-0.844819 -0.535052 -0.704683 0.709522 165.855 99.6946)" stroke="white" stroke-width="0.5" stroke-linecap="round"/>
<line x1="0.25" y1="-0.25" x2="37.2334" y2="-0.25" transform="matrix(-0.844819 -0.535052 -0.704683 0.709522 165.855 99.0457)" stroke="white" stroke-width="0.5" stroke-linecap="round"/>
<line x1="0.25" y1="-0.25" x2="37.2334" y2="-0.25" transform="matrix(-0.844819 -0.535052 -0.704683 0.709522 165.855 98.3967)" stroke="white" stroke-width="0.5" stroke-linecap="round"/>
<line x1="0.25" y1="-0.25" x2="37.2334" y2="-0.25" transform="matrix(-0.844819 -0.535052 -0.704683 0.709522 165.855 97.7478)" stroke="white" stroke-width="0.5" stroke-linecap="round"/>
<line x1="0.25" y1="-0.25" x2="37.2334" y2="-0.25" transform="matrix(-0.844819 -0.535052 -0.704683 0.709522 165.855 97.0989)" stroke="white" stroke-width="0.5" stroke-linecap="round"/>
<line x1="0.25" y1="-0.25" x2="37.2334" y2="-0.25" transform="matrix(-0.844819 -0.535052 -0.704683 0.709522 165.855 96.45)" stroke="white" stroke-width="0.5" stroke-linecap="round"/>
<line x1="0.25" y1="-0.25" x2="37.2334" y2="-0.25" transform="matrix(-0.844819 -0.535052 -0.704683 0.709522 165.855 95.801)" stroke="white" stroke-width="0.5" stroke-linecap="round"/>
<line x1="0.25" y1="-0.25" x2="37.2334" y2="-0.25" transform="matrix(-0.844819 -0.535052 -0.704683 0.709522 165.855 95.1521)" stroke="white" stroke-width="0.5" stroke-linecap="round"/>
<line x1="0.25" y1="-0.25" x2="37.2334" y2="-0.25" transform="matrix(-0.844819 -0.535052 -0.704683 0.709522 165.855 94.5032)" stroke="white" stroke-width="0.5" stroke-linecap="round"/>
<line x1="0.25" y1="-0.25" x2="37.2334" y2="-0.25" transform="matrix(-0.844819 -0.535052 -0.704683 0.709522 165.855 93.8542)" stroke="white" stroke-width="0.5" stroke-linecap="round"/>
<line x1="0.25" y1="-0.25" x2="37.2334" y2="-0.25" transform="matrix(-0.844819 -0.535052 -0.704683 0.709522 165.855 93.2053)" stroke="white" stroke-width="0.5" stroke-linecap="round"/>
<path d="M166.123 93.9116C168.071 93.9116 169.649 95.4888 169.649 97.4331C169.649 99.3773 168.071 100.955 166.123 100.955C164.176 100.955 162.598 99.3773 162.598 97.4331C162.598 95.4889 164.176 93.9116 166.123 93.9116Z" fill="#8A1D1B" stroke="#8A1D1B"/>
<path d="M166.123 141.095C168.071 141.095 169.649 142.672 169.649 144.616C169.649 146.56 168.071 148.138 166.123 148.138C164.176 148.138 162.598 146.56 162.598 144.616C162.598 142.672 164.176 141.095 166.123 141.095Z" fill="#8A1D1B" stroke="#8A1D1B"/>
<path d="M166.123 189.886C168.071 189.886 169.649 191.463 169.649 193.408C169.649 195.352 168.071 196.929 166.123 196.929C164.176 196.929 162.598 195.352 162.598 193.408C162.598 191.463 164.176 189.886 166.123 189.886Z" fill="#8A1D1B" stroke="#8A1D1B"/>
<path d="M166.123 216.158C168.071 216.158 169.649 217.736 169.649 219.68C169.649 221.624 168.071 223.201 166.123 223.201C164.176 223.201 162.598 221.624 162.598 219.68C162.598 217.736 164.176 216.158 166.123 216.158Z" fill="#8A1D1B" stroke="#8A1D1B"/>
<path d="M166.123 267.095C168.071 267.095 169.649 268.672 169.649 270.616C169.649 272.56 168.071 274.138 166.123 274.138C164.176 274.138 162.598 272.56 162.598 270.616C162.598 268.672 164.176 267.095 166.123 267.095Z" fill="#8A1D1B" stroke="#8A1D1B"/>
<line x1="0.5" y1="-0.5" x2="26.3022" y2="-0.5" transform="matrix(0.79758 -0.603213 0.949919 0.312496 166.484 81.0801)" stroke="white" stroke-linecap="round"/>
<line x1="0.5" y1="-0.5" x2="26.3022" y2="-0.5" transform="matrix(0.79758 -0.603213 0.949919 0.312496 166.484 80.7185)" stroke="white" stroke-linecap="round"/>
<line x1="0.5" y1="-0.5" x2="26.3022" y2="-0.5" transform="matrix(0.79758 -0.603213 0.949919 0.312496 166.484 80.3564)" stroke="white" stroke-linecap="round"/>
<line x1="0.5" y1="-0.5" x2="26.3022" y2="-0.5" transform="matrix(0.79758 -0.603213 0.949919 0.312496 166.484 79.9949)" stroke="white" stroke-linecap="round"/>
<line x1="0.5" y1="-0.5" x2="26.3022" y2="-0.5" transform="matrix(0.79758 -0.603213 0.949919 0.312496 166.484 79.6326)" stroke="white" stroke-linecap="round"/>
<line x1="0.5" y1="-0.5" x2="26.3022" y2="-0.5" transform="matrix(0.79758 -0.603213 0.949919 0.312496 166.484 79.271)" stroke="white" stroke-linecap="round"/>
<line x1="0.5" y1="-0.5" x2="26.3022" y2="-0.5" transform="matrix(0.79758 -0.603213 0.949919 0.312496 166.484 78.9089)" stroke="white" stroke-linecap="round"/>
<line x1="0.5" y1="-0.5" x2="26.3022" y2="-0.5" transform="matrix(0.79758 -0.603213 0.949919 0.312496 166.484 78.5474)" stroke="white" stroke-linecap="round"/>
<line x1="0.5" y1="-0.5" x2="26.3022" y2="-0.5" transform="matrix(0.79758 -0.603213 0.949919 0.312496 166.484 78.1853)" stroke="white" stroke-linecap="round"/>
<line x1="0.5" y1="-0.5" x2="26.3022" y2="-0.5" transform="matrix(0.79758 -0.603213 0.949919 0.312496 166.484 77.8235)" stroke="white" stroke-linecap="round"/>
<line x1="0.5" y1="-0.5" x2="26.3022" y2="-0.5" transform="matrix(0.79758 -0.603213 0.949919 0.312496 166.484 77.4617)" stroke="white" stroke-linecap="round"/>
<line x1="0.5" y1="-0.5" x2="26.3022" y2="-0.5" transform="matrix(0.79758 -0.603213 0.949919 0.312496 166.484 77.0999)" stroke="white" stroke-linecap="round"/>
<line x1="0.5" y1="-0.5" x2="26.3022" y2="-0.5" transform="matrix(0.79758 -0.603213 0.949919 0.312496 166.484 76.7383)" stroke="white" stroke-linecap="round"/>
<line x1="0.5" y1="-0.5" x2="26.3022" y2="-0.5" transform="matrix(0.79758 -0.603213 0.949919 0.312496 166.484 76.376)" stroke="white" stroke-linecap="round"/>
<line x1="0.5" y1="-0.5" x2="26.3022" y2="-0.5" transform="matrix(0.79758 -0.603213 0.949919 0.312496 166.484 76.0144)" stroke="white" stroke-linecap="round"/>
<line x1="0.5" y1="-0.5" x2="26.3022" y2="-0.5" transform="matrix(0.79758 -0.603213 0.949919 0.312496 166.484 75.6526)" stroke="white" stroke-linecap="round"/>
<line x1="0.5" y1="-0.5" x2="26.3022" y2="-0.5" transform="matrix(0.79758 -0.603213 0.949919 0.312496 166.484 75.2908)" stroke="white" stroke-linecap="round"/>
<line x1="0.5" y1="-0.5" x2="26.3022" y2="-0.5" transform="matrix(0.79758 -0.603213 0.949919 0.312496 166.484 74.929)" stroke="white" stroke-linecap="round"/>
<line x1="0.5" y1="-0.5" x2="26.3022" y2="-0.5" transform="matrix(0.79758 -0.603213 0.949919 0.312496 166.484 74.5669)" stroke="white" stroke-linecap="round"/>
<line x1="0.5" y1="-0.5" x2="26.3022" y2="-0.5" transform="matrix(0.79758 -0.603213 0.949919 0.312496 166.484 74.2053)" stroke="white" stroke-linecap="round"/>
<line x1="0.5" y1="-0.5" x2="26.3022" y2="-0.5" transform="matrix(0.79758 -0.603213 0.949919 0.312496 166.484 73.8433)" stroke="white" stroke-linecap="round"/>
<line x1="0.5" y1="-0.5" x2="26.3022" y2="-0.5" transform="matrix(0.79758 -0.603213 0.949919 0.312496 166.484 73.4817)" stroke="white" stroke-linecap="round"/>
<line x1="0.5" y1="-0.5" x2="26.3022" y2="-0.5" transform="matrix(0.79758 -0.603213 0.949919 0.312496 166.484 73.1196)" stroke="white" stroke-linecap="round"/>
<line x1="0.5" y1="-0.5" x2="26.3022" y2="-0.5" transform="matrix(-0.79758 -0.603213 -0.949919 0.312496 165.226 81.0801)" stroke="white" stroke-linecap="round"/>
<line x1="0.5" y1="-0.5" x2="26.3022" y2="-0.5" transform="matrix(-0.79758 -0.603213 -0.949919 0.312496 165.226 80.7185)" stroke="white" stroke-linecap="round"/>
<line x1="0.5" y1="-0.5" x2="26.3022" y2="-0.5" transform="matrix(-0.79758 -0.603213 -0.949919 0.312496 165.226 80.3564)" stroke="white" stroke-linecap="round"/>
<line x1="0.5" y1="-0.5" x2="26.3022" y2="-0.5" transform="matrix(-0.79758 -0.603213 -0.949919 0.312496 165.226 79.9949)" stroke="white" stroke-linecap="round"/>
<line x1="0.5" y1="-0.5" x2="26.3022" y2="-0.5" transform="matrix(-0.79758 -0.603213 -0.949919 0.312496 165.226 79.6326)" stroke="white" stroke-linecap="round"/>
<line x1="0.5" y1="-0.5" x2="26.3022" y2="-0.5" transform="matrix(-0.79758 -0.603213 -0.949919 0.312496 165.226 79.271)" stroke="white" stroke-linecap="round"/>
<line x1="0.5" y1="-0.5" x2="26.3022" y2="-0.5" transform="matrix(-0.79758 -0.603213 -0.949919 0.312496 165.226 78.9089)" stroke="white" stroke-linecap="round"/>
<line x1="0.5" y1="-0.5" x2="26.3022" y2="-0.5" transform="matrix(-0.79758 -0.603213 -0.949919 0.312496 165.226 78.5474)" stroke="white" stroke-linecap="round"/>
<line x1="0.5" y1="-0.5" x2="26.3022" y2="-0.5" transform="matrix(-0.79758 -0.603213 -0.949919 0.312496 165.226 78.1853)" stroke="white" stroke-linecap="round"/>
<line x1="0.5" y1="-0.5" x2="26.3022" y2="-0.5" transform="matrix(-0.79758 -0.603213 -0.949919 0.312496 165.226 77.8235)" stroke="white" stroke-linecap="round"/>
<line x1="0.5" y1="-0.5" x2="26.3022" y2="-0.5" transform="matrix(-0.79758 -0.603213 -0.949919 0.312496 165.226 77.4617)" stroke="white" stroke-linecap="round"/>
<line x1="0.5" y1="-0.5" x2="26.3022" y2="-0.5" transform="matrix(-0.79758 -0.603213 -0.949919 0.312496 165.226 77.0999)" stroke="white" stroke-linecap="round"/>
<line x1="0.5" y1="-0.5" x2="26.3022" y2="-0.5" transform="matrix(-0.79758 -0.603213 -0.949919 0.312496 165.226 76.7383)" stroke="white" stroke-linecap="round"/>
<line x1="0.5" y1="-0.5" x2="26.3022" y2="-0.5" transform="matrix(-0.79758 -0.603213 -0.949919 0.312496 165.226 76.376)" stroke="white" stroke-linecap="round"/>
<line x1="0.5" y1="-0.5" x2="26.3022" y2="-0.5" transform="matrix(-0.79758 -0.603213 -0.949919 0.312496 165.226 76.0144)" stroke="white" stroke-linecap="round"/>
<line x1="0.5" y1="-0.5" x2="26.3022" y2="-0.5" transform="matrix(-0.79758 -0.603213 -0.949919 0.312496 165.226 75.6526)" stroke="white" stroke-linecap="round"/>
<line x1="0.5" y1="-0.5" x2="26.3022" y2="-0.5" transform="matrix(-0.79758 -0.603213 -0.949919 0.312496 165.226 75.2908)" stroke="white" stroke-linecap="round"/>
<line x1="0.5" y1="-0.5" x2="26.3022" y2="-0.5" transform="matrix(-0.79758 -0.603213 -0.949919 0.312496 165.226 74.929)" stroke="white" stroke-linecap="round"/>
<line x1="0.5" y1="-0.5" x2="26.3022" y2="-0.5" transform="matrix(-0.79758 -0.603213 -0.949919 0.312496 165.226 74.5669)" stroke="white" stroke-linecap="round"/>
<line x1="0.5" y1="-0.5" x2="26.3022" y2="-0.5" transform="matrix(-0.79758 -0.603213 -0.949919 0.312496 165.226 74.2053)" stroke="white" stroke-linecap="round"/>
<line x1="0.5" y1="-0.5" x2="26.3022" y2="-0.5" transform="matrix(-0.79758 -0.603213 -0.949919 0.312496 165.226 73.8433)" stroke="white" stroke-linecap="round"/>
<line x1="0.5" y1="-0.5" x2="26.3022" y2="-0.5" transform="matrix(-0.79758 -0.603213 -0.949919 0.312496 165.226 73.4817)" stroke="white" stroke-linecap="round"/>
<line x1="0.5" y1="-0.5" x2="26.3022" y2="-0.5" transform="matrix(-0.79758 -0.603213 -0.949919 0.312496 165.226 73.1196)" stroke="white" stroke-linecap="round"/>
</svg>
