<svg width="208" height="346" viewBox="0 0 208 346" fill="none" xmlns="http://www.w3.org/2000/svg">
<path d="M6.7 77V-5.24521e-06H41.9C48.94 -5.24521e-06 54.99 1.13666 60.05 3.41C65.1833 5.68333 69.1433 8.98333 71.93 13.31C74.7167 17.5633 76.11 22.6233 76.11 28.49C76.11 34.2833 74.7167 39.3067 71.93 43.56C69.1433 47.8133 65.1833 51.1133 60.05 53.46C54.99 55.7333 48.94 56.87 41.9 56.87H18.8L28.48 47.41V77H6.7ZM28.48 49.72L18.8 39.71H40.58C45.1267 39.71 48.5 38.72 50.7 36.74C52.9733 34.76 54.11 32.01 54.11 28.49C54.11 24.8967 52.9733 22.11 50.7 20.13C48.5 18.15 45.1267 17.16 40.58 17.16H18.8L28.48 7.14999V49.72ZM116.872 77.99C109.832 77.99 103.672 76.67 98.3919 74.03C93.1852 71.3167 89.1152 67.65 86.1819 63.03C83.3219 58.3367 81.8919 53.02 81.8919 47.08C81.8919 41.14 83.2852 35.86 86.0719 31.24C88.9319 26.5467 92.8552 22.9167 97.8419 20.35C102.829 17.71 108.439 16.39 114.672 16.39C120.539 16.39 125.892 17.6 130.732 20.02C135.572 22.3667 139.422 25.85 142.282 30.47C145.142 35.09 146.572 40.7 146.572 47.3C146.572 48.0333 146.535 48.8767 146.462 49.83C146.389 50.7833 146.315 51.6633 146.242 52.47H99.0519V41.47H135.132L127.212 44.55C127.285 41.8367 126.772 39.49 125.672 37.51C124.645 35.53 123.179 33.99 121.272 32.89C119.439 31.79 117.275 31.24 114.782 31.24C112.289 31.24 110.089 31.79 108.182 32.89C106.349 33.99 104.919 35.5667 103.892 37.62C102.865 39.6 102.352 41.9467 102.352 44.66V47.85C102.352 50.7833 102.939 53.3133 104.112 55.44C105.359 57.5667 107.119 59.2167 109.392 60.39C111.665 61.49 114.379 62.04 117.532 62.04C120.465 62.04 122.959 61.6367 125.012 60.83C127.139 59.95 129.229 58.63 131.282 56.87L142.282 68.31C139.422 71.4633 135.902 73.8833 131.722 75.57C127.542 77.1833 122.592 77.99 116.872 77.99ZM177.878 77.99C172.818 77.99 167.868 77.4033 163.028 76.23C158.261 75.0567 154.411 73.59 151.478 71.83L157.748 57.53C160.535 59.2167 163.798 60.5733 167.538 61.6C171.278 62.5533 174.945 63.03 178.538 63.03C182.058 63.03 184.478 62.6633 185.798 61.93C187.191 61.1967 187.888 60.2067 187.888 58.96C187.888 57.7867 187.228 56.9433 185.908 56.43C184.661 55.8433 182.975 55.4033 180.848 55.11C178.795 54.8167 176.521 54.4867 174.028 54.12C171.535 53.7533 169.005 53.2767 166.438 52.69C163.945 52.03 161.635 51.0767 159.508 49.83C157.455 48.51 155.805 46.75 154.558 44.55C153.311 42.35 152.688 39.5633 152.688 36.19C152.688 32.3767 153.788 29.0033 155.988 26.07C158.261 23.0633 161.561 20.7167 165.888 19.03C170.215 17.27 175.495 16.39 181.728 16.39C185.908 16.39 190.125 16.83 194.378 17.71C198.705 18.5167 202.335 19.7633 205.268 21.45L198.998 35.64C196.065 33.9533 193.131 32.8167 190.198 32.23C187.265 31.57 184.478 31.24 181.838 31.24C178.318 31.24 175.825 31.6433 174.358 32.45C172.965 33.2567 172.268 34.2467 172.268 35.42C172.268 36.5933 172.891 37.51 174.138 38.17C175.385 38.7567 177.035 39.2333 179.088 39.6C181.215 39.8933 183.525 40.2233 186.018 40.59C188.511 40.8833 191.005 41.36 193.498 42.02C196.065 42.68 198.375 43.67 200.428 44.99C202.555 46.2367 204.241 47.96 205.488 50.16C206.735 52.2867 207.358 55.0367 207.358 58.41C207.358 62.0767 206.221 65.3767 203.948 68.31C201.748 71.2433 198.448 73.59 194.048 75.35C189.721 77.11 184.331 77.99 177.878 77.99ZM31.23 211.99C25.8767 211.99 20.9633 210.743 16.49 208.25C12.0167 205.757 8.46 202.2 5.82 197.58C3.25333 192.96 1.97 187.497 1.97 181.19C1.97 174.883 3.25333 169.457 5.82 164.91C8.46 160.29 12.0167 156.733 16.49 154.24C20.9633 151.673 25.8767 150.39 31.23 150.39C36.6567 150.39 41.13 151.49 44.65 153.69C48.17 155.89 50.81 159.263 52.57 163.81C54.33 168.283 55.21 174.077 55.21 181.19C55.21 188.23 54.2567 194.023 52.35 198.57C50.5167 203.043 47.8033 206.417 44.21 208.69C40.69 210.89 36.3633 211.99 31.23 211.99ZM35.63 195.38C37.9767 195.38 40.0667 194.83 41.9 193.73C43.8067 192.63 45.31 191.017 46.41 188.89C47.5833 186.763 48.17 184.197 48.17 181.19C48.17 178.183 47.5833 175.617 46.41 173.49C45.31 171.363 43.8067 169.75 41.9 168.65C40.0667 167.55 37.9767 167 35.63 167C33.2833 167 31.1567 167.55 29.25 168.65C27.4167 169.75 25.9133 171.363 24.74 173.49C23.64 175.617 23.09 178.183 23.09 181.19C23.09 184.197 23.64 186.763 24.74 188.89C25.9133 191.017 27.4167 192.63 29.25 193.73C31.1567 194.83 33.2833 195.38 35.63 195.38ZM47.84 232.34V200.99L48.94 181.19L48.83 161.5V151.38H68.74V232.34H47.84ZM107.274 211.99C102.434 211.99 98.071 211.037 94.1844 209.13C90.371 207.223 87.3644 204.253 85.1644 200.22C83.0377 196.113 81.9744 190.943 81.9744 184.71V151.38H102.874V181.3C102.874 185.92 103.718 189.22 105.404 191.2C107.164 193.18 109.621 194.17 112.774 194.17C114.828 194.17 116.698 193.693 118.384 192.74C120.071 191.787 121.428 190.283 122.454 188.23C123.481 186.103 123.994 183.39 123.994 180.09V151.38H144.894V211H124.984V194.17L128.834 198.9C126.781 203.3 123.811 206.6 119.924 208.8C116.038 210.927 111.821 211.99 107.274 211.99ZM158.356 211V151.38H179.256V211H158.356ZM168.806 144.78C164.993 144.78 161.913 143.717 159.566 141.59C157.22 139.463 156.046 136.823 156.046 133.67C156.046 130.517 157.22 127.877 159.566 125.75C161.913 123.623 164.993 122.56 168.806 122.56C172.62 122.56 175.7 123.587 178.046 125.64C180.393 127.62 181.566 130.187 181.566 133.34C181.566 136.64 180.393 139.39 178.046 141.59C175.773 143.717 172.693 144.78 168.806 144.78ZM27.38 345.99C22.32 345.99 17.37 345.403 12.53 344.23C7.76333 343.057 3.91333 341.59 0.98 339.83L7.25 325.53C10.0367 327.217 13.3 328.573 17.04 329.6C20.78 330.553 24.4467 331.03 28.04 331.03C31.56 331.03 33.98 330.663 35.3 329.93C36.6933 329.197 37.39 328.207 37.39 326.96C37.39 325.787 36.73 324.943 35.41 324.43C34.1633 323.843 32.4767 323.403 30.35 323.11C28.2967 322.817 26.0233 322.487 23.53 322.12C21.0367 321.753 18.5067 321.277 15.94 320.69C13.4467 320.03 11.1367 319.077 9.01 317.83C6.95667 316.51 5.30667 314.75 4.06 312.55C2.81333 310.35 2.19 307.563 2.19 304.19C2.19 300.377 3.29 297.003 5.49 294.07C7.76333 291.063 11.0633 288.717 15.39 287.03C19.7167 285.27 24.9967 284.39 31.23 284.39C35.41 284.39 39.6267 284.83 43.88 285.71C48.2067 286.517 51.8367 287.763 54.77 289.45L48.5 303.64C45.5667 301.953 42.6333 300.817 39.7 300.23C36.7667 299.57 33.98 299.24 31.34 299.24C27.82 299.24 25.3267 299.643 23.86 300.45C22.4667 301.257 21.77 302.247 21.77 303.42C21.77 304.593 22.3933 305.51 23.64 306.17C24.8867 306.757 26.5367 307.233 28.59 307.6C30.7167 307.893 33.0267 308.223 35.52 308.59C38.0133 308.883 40.5067 309.36 43 310.02C45.5667 310.68 47.8767 311.67 49.93 312.99C52.0567 314.237 53.7433 315.96 54.99 318.16C56.2367 320.287 56.86 323.037 56.86 326.41C56.86 330.077 55.7233 333.377 53.45 336.31C51.25 339.243 47.95 341.59 43.55 343.35C39.2233 345.11 33.8333 345.99 27.38 345.99ZM102.276 345V333.89L100.846 331.14V310.68C100.846 307.38 99.8196 304.85 97.7663 303.09C95.7863 301.257 92.5963 300.34 88.1962 300.34C85.3363 300.34 82.4396 300.817 79.5063 301.77C76.5729 302.65 74.0796 303.897 72.0263 305.51L64.9863 291.32C68.3596 289.12 72.3929 287.433 77.0863 286.26C81.8529 285.013 86.5829 284.39 91.2763 284.39C100.956 284.39 108.436 286.627 113.716 291.1C119.07 295.5 121.746 302.43 121.746 311.89V345H102.276ZM84.6763 345.99C79.9096 345.99 75.8763 345.183 72.5763 343.57C69.2763 341.957 66.7463 339.757 64.9863 336.97C63.2996 334.183 62.4563 331.067 62.4563 327.62C62.4563 323.953 63.3729 320.8 65.2063 318.16C67.1129 315.447 70.0096 313.393 73.8963 312C77.7829 310.533 82.8063 309.8 88.9663 309.8H103.046V320.69H91.8263C88.4529 320.69 86.0696 321.24 84.6763 322.34C83.3563 323.44 82.6963 324.907 82.6963 326.74C82.6963 328.573 83.3929 330.04 84.7863 331.14C86.1796 332.24 88.0863 332.79 90.5063 332.79C92.7796 332.79 94.8329 332.24 96.6663 331.14C98.5729 329.967 99.9663 328.207 100.846 325.86L103.706 333.56C102.606 337.667 100.443 340.783 97.2163 342.91C94.0629 344.963 89.8829 345.99 84.6763 345.99ZM156.609 345.99C151.549 345.99 146.599 345.403 141.759 344.23C136.992 343.057 133.142 341.59 130.209 339.83L136.479 325.53C139.265 327.217 142.529 328.573 146.269 329.6C150.009 330.553 153.675 331.03 157.269 331.03C160.789 331.03 163.209 330.663 164.529 329.93C165.922 329.197 166.619 328.207 166.619 326.96C166.619 325.787 165.959 324.943 164.639 324.43C163.392 323.843 161.705 323.403 159.579 323.11C157.525 322.817 155.252 322.487 152.759 322.12C150.265 321.753 147.735 321.277 145.169 320.69C142.675 320.03 140.365 319.077 138.239 317.83C136.185 316.51 134.535 314.75 133.289 312.55C132.042 310.35 131.419 307.563 131.419 304.19C131.419 300.377 132.519 297.003 134.719 294.07C136.992 291.063 140.292 288.717 144.619 287.03C148.945 285.27 154.225 284.39 160.459 284.39C164.639 284.39 168.855 284.83 173.109 285.71C177.435 286.517 181.065 287.763 183.999 289.45L177.729 303.64C174.795 301.953 171.862 300.817 168.929 300.23C165.995 299.57 163.209 299.24 160.569 299.24C157.049 299.24 154.555 299.643 153.089 300.45C151.695 301.257 150.999 302.247 150.999 303.42C150.999 304.593 151.622 305.51 152.869 306.17C154.115 306.757 155.765 307.233 157.819 307.6C159.945 307.893 162.255 308.223 164.749 308.59C167.242 308.883 169.735 309.36 172.229 310.02C174.795 310.68 177.105 311.67 179.159 312.99C181.285 314.237 182.972 315.96 184.219 318.16C185.465 320.287 186.089 323.037 186.089 326.41C186.089 330.077 184.952 333.377 182.679 336.31C180.479 339.243 177.179 341.59 172.779 343.35C168.452 345.11 163.062 345.99 156.609 345.99Z" fill="white"/>
</svg>
