<svg width="1913" height="116" viewBox="0 0 1913 116" fill="none" xmlns="http://www.w3.org/2000/svg">
<path d="M0.866882 6H1912.87M1912.87 105H0.866882" stroke="black" stroke-width="5"/>
<line y1="-1.5" x2="128.017" y2="-1.5" transform="matrix(0.633999 -0.773334 0.633999 0.773334 28.8741 108)" stroke="black" stroke-width="3"/>
<line y1="-1.5" x2="128.017" y2="-1.5" transform="matrix(0.633999 -0.773334 0.633999 0.773334 39.5318 108)" stroke="black" stroke-width="3"/>
<line y1="-1.5" x2="128.017" y2="-1.5" transform="matrix(0.633999 0.773334 -0.633999 0.773334 116.595 9)" stroke="black" stroke-width="3"/>
<line y1="-1.5" x2="128.017" y2="-1.5" transform="matrix(0.633999 0.773334 -0.633999 0.773334 126.433 9)" stroke="black" stroke-width="3"/>
<line y1="-1.5" x2="128.017" y2="-1.5" transform="matrix(0.633999 -0.773334 0.633999 0.773334 209.236 108)" stroke="black" stroke-width="3"/>
<line y1="-1.5" x2="128.017" y2="-1.5" transform="matrix(0.633999 -0.773334 0.633999 0.773334 219.893 108)" stroke="black" stroke-width="3"/>
<line y1="-1.5" x2="128.017" y2="-1.5" transform="matrix(0.633999 0.773334 -0.633999 0.773334 296.957 9)" stroke="black" stroke-width="3"/>
<line y1="-1.5" x2="128.017" y2="-1.5" transform="matrix(0.633999 0.773334 -0.633999 0.773334 306.795 9)" stroke="black" stroke-width="3"/>
<line y1="-1.5" x2="128.017" y2="-1.5" transform="matrix(0.633999 -0.773334 0.633999 0.773334 388.777 108)" stroke="black" stroke-width="3"/>
<line y1="-1.5" x2="128.017" y2="-1.5" transform="matrix(0.633999 -0.773334 0.633999 0.773334 399.435 108)" stroke="black" stroke-width="3"/>
<line y1="-1.5" x2="128.017" y2="-1.5" transform="matrix(0.633999 0.773334 -0.633999 0.773334 476.499 9)" stroke="black" stroke-width="3"/>
<line y1="-1.5" x2="128.017" y2="-1.5" transform="matrix(0.633999 0.773334 -0.633999 0.773334 486.337 9)" stroke="black" stroke-width="3"/>
<line y1="-1.5" x2="128.017" y2="-1.5" transform="matrix(0.633999 -0.773334 0.633999 0.773334 568.319 108)" stroke="black" stroke-width="3"/>
<line y1="-1.5" x2="128.017" y2="-1.5" transform="matrix(0.633999 -0.773334 0.633999 0.773334 578.977 108)" stroke="black" stroke-width="3"/>
<line y1="-1.5" x2="128.017" y2="-1.5" transform="matrix(0.633999 0.773334 -0.633999 0.773334 656.041 9)" stroke="black" stroke-width="3"/>
<line y1="-1.5" x2="128.017" y2="-1.5" transform="matrix(0.633999 0.773334 -0.633999 0.773334 665.878 9)" stroke="black" stroke-width="3"/>
<line y1="-1.5" x2="128.017" y2="-1.5" transform="matrix(0.633999 -0.773334 0.633999 0.773334 747.041 108)" stroke="black" stroke-width="3"/>
<line y1="-1.5" x2="128.017" y2="-1.5" transform="matrix(0.633999 -0.773334 0.633999 0.773334 757.699 108)" stroke="black" stroke-width="3"/>
<line y1="-1.5" x2="128.017" y2="-1.5" transform="matrix(0.633999 0.773334 -0.633999 0.773334 834.762 9)" stroke="black" stroke-width="3"/>
<line y1="-1.5" x2="128.017" y2="-1.5" transform="matrix(0.633999 0.773334 -0.633999 0.773334 844.6 9)" stroke="black" stroke-width="3"/>
<line y1="-1.5" x2="128.017" y2="-1.5" transform="matrix(0.633999 -0.773334 0.633999 0.773334 925.763 108)" stroke="black" stroke-width="3"/>
<line y1="-1.5" x2="128.017" y2="-1.5" transform="matrix(0.633999 -0.773334 0.633999 0.773334 936.421 108)" stroke="black" stroke-width="3"/>
<line y1="-1.5" x2="128.017" y2="-1.5" transform="matrix(0.633999 0.773334 -0.633999 0.773334 1013.48 9)" stroke="black" stroke-width="3"/>
<line y1="-1.5" x2="128.017" y2="-1.5" transform="matrix(0.633999 0.773334 -0.633999 0.773334 1023.32 9)" stroke="black" stroke-width="3"/>
<line y1="-1.5" x2="128.017" y2="-1.5" transform="matrix(0.633999 -0.773334 0.633999 0.773334 1104.48 108)" stroke="black" stroke-width="3"/>
<line y1="-1.5" x2="128.017" y2="-1.5" transform="matrix(0.633999 -0.773334 0.633999 0.773334 1115.14 108)" stroke="black" stroke-width="3"/>
<line y1="-1.5" x2="128.017" y2="-1.5" transform="matrix(0.633999 0.773334 -0.633999 0.773334 1192.21 9)" stroke="black" stroke-width="3"/>
<line y1="-1.5" x2="128.017" y2="-1.5" transform="matrix(0.633999 0.773334 -0.633999 0.773334 1202.04 9)" stroke="black" stroke-width="3"/>
<line y1="-1.5" x2="128.017" y2="-1.5" transform="matrix(0.633999 -0.773334 0.633999 0.773334 1284 107)" stroke="black" stroke-width="3"/>
<line y1="-1.5" x2="128.017" y2="-1.5" transform="matrix(0.633999 -0.773334 0.633999 0.773334 1294.66 107)" stroke="black" stroke-width="3"/>
<line y1="-1.5" x2="128.017" y2="-1.5" transform="matrix(0.633999 0.773334 -0.633999 0.773334 1371.72 8)" stroke="black" stroke-width="3"/>
<line y1="-1.5" x2="128.017" y2="-1.5" transform="matrix(0.633999 0.773334 -0.633999 0.773334 1381.56 8)" stroke="black" stroke-width="3"/>
<line y1="-1.5" x2="128.017" y2="-1.5" transform="matrix(0.633999 -0.773334 0.633999 0.773334 1463 107)" stroke="black" stroke-width="3"/>
<line y1="-1.5" x2="128.017" y2="-1.5" transform="matrix(0.633999 -0.773334 0.633999 0.773334 1473.66 107)" stroke="black" stroke-width="3"/>
<line y1="-1.5" x2="128.017" y2="-1.5" transform="matrix(0.633999 0.773334 -0.633999 0.773334 1550.72 8)" stroke="black" stroke-width="3"/>
<line y1="-1.5" x2="128.017" y2="-1.5" transform="matrix(0.633999 0.773334 -0.633999 0.773334 1560.56 8)" stroke="black" stroke-width="3"/>
<line y1="-1.5" x2="128.017" y2="-1.5" transform="matrix(0.633999 -0.773334 0.633999 0.773334 1643 107)" stroke="black" stroke-width="3"/>
<line y1="-1.5" x2="128.017" y2="-1.5" transform="matrix(0.633999 -0.773334 0.633999 0.773334 1653.66 107)" stroke="black" stroke-width="3"/>
<line y1="-1.5" x2="128.017" y2="-1.5" transform="matrix(0.633999 0.773334 -0.633999 0.773334 1730.72 8)" stroke="black" stroke-width="3"/>
<line y1="-1.5" x2="128.017" y2="-1.5" transform="matrix(0.633999 0.773334 -0.633999 0.773334 1740.56 8)" stroke="black" stroke-width="3"/>
<line y1="-1.5" x2="128.017" y2="-1.5" transform="matrix(0.633999 -0.773334 0.633999 0.773334 1823 107)" stroke="black" stroke-width="3"/>
<line x1="1832.49" y1="106.062" x2="1911.83" y2="7.06193" stroke="black" stroke-width="3"/>
</svg>
