<svg width="1604" height="116" viewBox="0 0 1604 116" fill="none" xmlns="http://www.w3.org/2000/svg">
<rect x="5" y="5" width="1594" height="106" stroke="black" stroke-width="10"/>
<line x1="32.9393" y1="106.939" x2="131.939" y2="7.93934" stroke="black" stroke-width="3"/>
<line x1="45.9393" y1="106.939" x2="144.939" y2="7.93934" stroke="black" stroke-width="3"/>
<line x1="142.061" y1="7.93934" x2="241.061" y2="106.939" stroke="black" stroke-width="3"/>
<line x1="154.061" y1="7.93934" x2="253.061" y2="106.939" stroke="black" stroke-width="3"/>
<line x1="252.939" y1="106.939" x2="351.939" y2="7.93934" stroke="black" stroke-width="3"/>
<line x1="265.939" y1="106.939" x2="364.939" y2="7.93934" stroke="black" stroke-width="3"/>
<line x1="362.061" y1="7.93934" x2="461.061" y2="106.939" stroke="black" stroke-width="3"/>
<line x1="374.061" y1="7.93934" x2="473.061" y2="106.939" stroke="black" stroke-width="3"/>
<line x1="471.939" y1="106.939" x2="570.939" y2="7.93934" stroke="black" stroke-width="3"/>
<line x1="484.939" y1="106.939" x2="583.939" y2="7.93934" stroke="black" stroke-width="3"/>
<line x1="581.061" y1="7.93934" x2="680.061" y2="106.939" stroke="black" stroke-width="3"/>
<line x1="593.061" y1="7.93934" x2="692.061" y2="106.939" stroke="black" stroke-width="3"/>
<line x1="690.939" y1="106.939" x2="789.939" y2="7.93934" stroke="black" stroke-width="3"/>
<line x1="703.939" y1="106.939" x2="802.939" y2="7.93934" stroke="black" stroke-width="3"/>
<line x1="800.061" y1="7.93934" x2="899.061" y2="106.939" stroke="black" stroke-width="3"/>
<line x1="812.061" y1="7.93934" x2="911.061" y2="106.939" stroke="black" stroke-width="3"/>
<line x1="908.939" y1="106.939" x2="1007.94" y2="7.93934" stroke="black" stroke-width="3"/>
<line x1="921.939" y1="106.939" x2="1020.94" y2="7.93934" stroke="black" stroke-width="3"/>
<line x1="1018.06" y1="7.93934" x2="1117.06" y2="106.939" stroke="black" stroke-width="3"/>
<line x1="1030.06" y1="7.93934" x2="1129.06" y2="106.939" stroke="black" stroke-width="3"/>
<line x1="1126.94" y1="106.939" x2="1225.94" y2="7.93934" stroke="black" stroke-width="3"/>
<line x1="1139.94" y1="106.939" x2="1238.94" y2="7.93934" stroke="black" stroke-width="3"/>
<line x1="1236.06" y1="7.93934" x2="1335.06" y2="106.939" stroke="black" stroke-width="3"/>
<line x1="1248.06" y1="7.93934" x2="1347.06" y2="106.939" stroke="black" stroke-width="3"/>
<line x1="1344.94" y1="106.939" x2="1443.94" y2="7.93934" stroke="black" stroke-width="3"/>
<line x1="1357.94" y1="106.939" x2="1456.94" y2="7.93934" stroke="black" stroke-width="3"/>
<line x1="1454.06" y1="7.93934" x2="1553.06" y2="106.939" stroke="black" stroke-width="3"/>
<line x1="1466.06" y1="7.93934" x2="1565.06" y2="106.939" stroke="black" stroke-width="3"/>
</svg>
