<svg width="1920" height="96" viewBox="0 0 1920 96" fill="none" xmlns="http://www.w3.org/2000/svg">
<g clip-path="url(#clip0_318_7313)">
<rect width="1920" height="96" fill="#ECEAC3"/>
<g clip-path="url(#clip1_318_7313)">
<rect width="639" height="639" transform="translate(1621)" fill="#ECEAC3"/>
<line x1="1612.54" y1="32.9194" x2="1664" y2="84.3839" stroke="black" stroke-width="5" stroke-linecap="round"/>
<line x1="1614.54" y1="9" x2="1672" y2="66.4645" stroke="black" stroke-width="5" stroke-linecap="round"/>
<line x1="1638.54" y1="7.91943" x2="1685" y2="54.3839" stroke="black" stroke-width="5" stroke-linecap="round"/>
<line x1="1659.54" y1="6.91943" x2="1696" y2="43.3839" stroke="black" stroke-width="5" stroke-linecap="round"/>
<line x1="1680.54" y1="6.91943" x2="1706" y2="32.3839" stroke="black" stroke-width="5" stroke-linecap="round"/>
<line x1="1766.54" y1="6" x2="1841" y2="80.4645" stroke="black" stroke-width="5" stroke-linecap="round"/>
<line x1="1788.54" y1="7" x2="1851" y2="69.4645" stroke="black" stroke-width="5" stroke-linecap="round"/>
<line x1="1812.54" y1="6" x2="1864" y2="57.4645" stroke="black" stroke-width="5" stroke-linecap="round"/>
<line x1="1837.54" y1="6" x2="1876" y2="44.4645" stroke="black" stroke-width="5" stroke-linecap="round"/>
<line x1="1861.54" y1="6" x2="1888" y2="32.4645" stroke="black" stroke-width="5" stroke-linecap="round"/>
<path d="M1638.79 92.5L1609.21 92.5L1624 77.5537L1638.79 92.5Z" stroke="black" stroke-width="5"/>
<path d="M1883.21 7.5L1912.79 7.5L1898 22.4463L1883.21 7.5Z" stroke="black" stroke-width="5"/>
<path d="M1702.21 7.5L1731.79 7.5L1717 22.4463L1702.21 7.5Z" stroke="black" stroke-width="5"/>
<path d="M1820.79 91.5L1791.21 91.5L1806 76.5537L1820.79 91.5Z" stroke="black" stroke-width="5"/>
<line x1="1668" y1="92.4645" x2="1745.46" y2="15" stroke="black" stroke-width="5" stroke-linecap="round"/>
<line x1="1693" y1="91.4645" x2="1757.46" y2="27" stroke="black" stroke-width="5" stroke-linecap="round"/>
<line x1="1717" y1="91.4645" x2="1769.46" y2="39" stroke="black" stroke-width="5" stroke-linecap="round"/>
<line x1="1738" y1="91.4645" x2="1779.46" y2="50" stroke="black" stroke-width="5" stroke-linecap="round"/>
<line x1="1763" y1="91.4645" x2="1792.46" y2="62" stroke="black" stroke-width="5" stroke-linecap="round"/>
<line x1="1850" y1="92.4645" x2="1927.46" y2="15" stroke="black" stroke-width="5" stroke-linecap="round"/>
<line x1="1875" y1="91.4645" x2="1939.46" y2="27" stroke="black" stroke-width="5" stroke-linecap="round"/>
<line x1="1899" y1="91.4645" x2="1951.46" y2="39" stroke="black" stroke-width="5" stroke-linecap="round"/>
<line x1="1920" y1="91.4645" x2="1961.46" y2="50" stroke="black" stroke-width="5" stroke-linecap="round"/>
<line x1="1612.54" y1="32.9194" x2="1664" y2="84.3839" stroke="black" stroke-width="5" stroke-linecap="round"/>
<line x1="1614.54" y1="9" x2="1672" y2="66.4645" stroke="black" stroke-width="5" stroke-linecap="round"/>
<line x1="1638.54" y1="7.91943" x2="1685" y2="54.3839" stroke="black" stroke-width="5" stroke-linecap="round"/>
<line x1="1659.54" y1="6.91943" x2="1696" y2="43.3839" stroke="black" stroke-width="5" stroke-linecap="round"/>
<line x1="1680.54" y1="6.91943" x2="1706" y2="32.3839" stroke="black" stroke-width="5" stroke-linecap="round"/>
<line x1="1766.54" y1="6" x2="1841" y2="80.4645" stroke="black" stroke-width="5" stroke-linecap="round"/>
<line x1="1788.54" y1="7" x2="1851" y2="69.4645" stroke="black" stroke-width="5" stroke-linecap="round"/>
<line x1="1812.54" y1="6" x2="1864" y2="57.4645" stroke="black" stroke-width="5" stroke-linecap="round"/>
<line x1="1837.54" y1="6" x2="1876" y2="44.4645" stroke="black" stroke-width="5" stroke-linecap="round"/>
<line x1="1861.54" y1="6" x2="1888" y2="32.4645" stroke="black" stroke-width="5" stroke-linecap="round"/>
<path d="M1638.79 92.5L1609.21 92.5L1624 77.5537L1638.79 92.5Z" stroke="black" stroke-width="5"/>
<path d="M1883.21 7.5L1912.79 7.5L1898 22.4463L1883.21 7.5Z" stroke="black" stroke-width="5"/>
<path d="M1702.21 7.5L1731.79 7.5L1717 22.4463L1702.21 7.5Z" stroke="black" stroke-width="5"/>
<path d="M1820.79 91.5L1791.21 91.5L1806 76.5537L1820.79 91.5Z" stroke="black" stroke-width="5"/>
<line x1="1668" y1="92.4645" x2="1745.46" y2="15" stroke="black" stroke-width="5" stroke-linecap="round"/>
<line x1="1693" y1="91.4645" x2="1757.46" y2="27" stroke="black" stroke-width="5" stroke-linecap="round"/>
<line x1="1717" y1="91.4645" x2="1769.46" y2="39" stroke="black" stroke-width="5" stroke-linecap="round"/>
<line x1="1738" y1="91.4645" x2="1779.46" y2="50" stroke="black" stroke-width="5" stroke-linecap="round"/>
<line x1="1763" y1="91.4645" x2="1792.46" y2="62" stroke="black" stroke-width="5" stroke-linecap="round"/>
<line x1="1850" y1="92.4645" x2="1927.46" y2="15" stroke="black" stroke-width="5" stroke-linecap="round"/>
<line x1="1875" y1="91.4645" x2="1939.46" y2="27" stroke="black" stroke-width="5" stroke-linecap="round"/>
<line x1="1899" y1="91.4645" x2="1951.46" y2="39" stroke="black" stroke-width="5" stroke-linecap="round"/>
<line x1="1920" y1="91.4645" x2="1961.46" y2="50" stroke="black" stroke-width="5" stroke-linecap="round"/>
</g>
<g clip-path="url(#clip2_318_7313)">
<rect width="639" height="639" transform="translate(1080)" fill="#ECEAC3"/>
<line x1="1071.54" y1="32.9194" x2="1123" y2="84.3839" stroke="black" stroke-width="5" stroke-linecap="round"/>
<line x1="1073.54" y1="9" x2="1131" y2="66.4645" stroke="black" stroke-width="5" stroke-linecap="round"/>
<line x1="1097.54" y1="7.91943" x2="1144" y2="54.3839" stroke="black" stroke-width="5" stroke-linecap="round"/>
<line x1="1118.54" y1="6.91943" x2="1155" y2="43.3839" stroke="black" stroke-width="5" stroke-linecap="round"/>
<line x1="1139.54" y1="6.91943" x2="1165" y2="32.3839" stroke="black" stroke-width="5" stroke-linecap="round"/>
<line x1="1225.54" y1="6" x2="1300" y2="80.4645" stroke="black" stroke-width="5" stroke-linecap="round"/>
<line x1="1247.54" y1="7" x2="1310" y2="69.4645" stroke="black" stroke-width="5" stroke-linecap="round"/>
<line x1="1271.54" y1="6" x2="1323" y2="57.4645" stroke="black" stroke-width="5" stroke-linecap="round"/>
<line x1="1296.54" y1="6" x2="1335" y2="44.4645" stroke="black" stroke-width="5" stroke-linecap="round"/>
<line x1="1320.54" y1="6" x2="1347" y2="32.4645" stroke="black" stroke-width="5" stroke-linecap="round"/>
<line x1="1403.54" y1="6" x2="1479" y2="81.4645" stroke="black" stroke-width="5" stroke-linecap="round"/>
<line x1="1583.54" y1="7" x2="1658" y2="81.4645" stroke="black" stroke-width="5" stroke-linecap="round"/>
<line x1="1427.54" y1="7" x2="1491" y2="70.4645" stroke="black" stroke-width="5" stroke-linecap="round"/>
<line x1="1451.54" y1="6" x2="1503" y2="57.4645" stroke="black" stroke-width="5" stroke-linecap="round"/>
<line x1="1476.54" y1="6" x2="1516" y2="45.4645" stroke="black" stroke-width="5" stroke-linecap="round"/>
<line x1="1500.54" y1="6" x2="1528" y2="33.4645" stroke="black" stroke-width="5" stroke-linecap="round"/>
<path d="M1702.49 7.9934L1729.72 7.86553L1716.18 23.5953L1702.49 7.9934Z" stroke="black" stroke-width="5"/>
<line x1="1678.54" y1="7.91943" x2="1705" y2="34.3839" stroke="black" stroke-width="5" stroke-linecap="round"/>
<line x1="1654.54" y1="7.91943" x2="1693" y2="46.3839" stroke="black" stroke-width="5" stroke-linecap="round"/>
<line x1="1628.54" y1="8" x2="1680" y2="59.4645" stroke="black" stroke-width="5" stroke-linecap="round"/>
<line x1="1606.54" y1="7.91943" x2="1669" y2="70.3839" stroke="black" stroke-width="5" stroke-linecap="round"/>
<path d="M1645.79 91.5L1616.21 91.5L1631 76.5537L1645.79 91.5Z" stroke="black" stroke-width="5"/>
<path d="M1097.79 92.5L1068.21 92.5L1083 77.5537L1097.79 92.5Z" stroke="black" stroke-width="5"/>
<path d="M1524.21 7.5L1553.79 7.5L1539 22.4463L1524.21 7.5Z" stroke="black" stroke-width="5"/>
<path d="M1342.21 7.5L1371.79 7.5L1357 22.4463L1342.21 7.5Z" stroke="black" stroke-width="5"/>
<path d="M1161.21 7.5L1190.79 7.5L1176 22.4463L1161.21 7.5Z" stroke="black" stroke-width="5"/>
<line x1="1493" y1="92.4645" x2="1570.46" y2="15" stroke="black" stroke-width="5" stroke-linecap="round"/>
<line x1="1518" y1="91.4645" x2="1582.46" y2="27" stroke="black" stroke-width="5" stroke-linecap="round"/>
<line x1="1542" y1="91.4645" x2="1594.46" y2="39" stroke="black" stroke-width="5" stroke-linecap="round"/>
<line x1="1563" y1="91.4645" x2="1604.46" y2="50" stroke="black" stroke-width="5" stroke-linecap="round"/>
<line x1="1588" y1="91.4645" x2="1617.46" y2="62" stroke="black" stroke-width="5" stroke-linecap="round"/>
<path d="M1279.79 91.5L1250.21 91.5L1265 76.5537L1279.79 91.5Z" stroke="black" stroke-width="5"/>
<line x1="1127" y1="92.4645" x2="1204.46" y2="15" stroke="black" stroke-width="5" stroke-linecap="round"/>
<line x1="1152" y1="91.4645" x2="1216.46" y2="27" stroke="black" stroke-width="5" stroke-linecap="round"/>
<line x1="1176" y1="91.4645" x2="1228.46" y2="39" stroke="black" stroke-width="5" stroke-linecap="round"/>
<line x1="1197" y1="91.4645" x2="1238.46" y2="50" stroke="black" stroke-width="5" stroke-linecap="round"/>
<line x1="1222" y1="91.4645" x2="1251.46" y2="62" stroke="black" stroke-width="5" stroke-linecap="round"/>
<path d="M1461.79 91.5L1432.21 91.5L1447 76.5537L1461.79 91.5Z" stroke="black" stroke-width="5"/>
<line x1="1309" y1="92.4645" x2="1386.46" y2="15" stroke="black" stroke-width="5" stroke-linecap="round"/>
<line x1="1334" y1="91.4645" x2="1398.46" y2="27" stroke="black" stroke-width="5" stroke-linecap="round"/>
<line x1="1358" y1="91.4645" x2="1410.46" y2="39" stroke="black" stroke-width="5" stroke-linecap="round"/>
<line x1="1379" y1="91.4645" x2="1420.46" y2="50" stroke="black" stroke-width="5" stroke-linecap="round"/>
<line x1="1404" y1="91.4645" x2="1433.46" y2="62" stroke="black" stroke-width="5" stroke-linecap="round"/>
<line x1="1667" y1="92.4645" x2="1744.46" y2="15" stroke="black" stroke-width="5" stroke-linecap="round"/>
<line x1="1692" y1="91.4645" x2="1756.46" y2="27" stroke="black" stroke-width="5" stroke-linecap="round"/>
<line x1="1716" y1="91.4645" x2="1768.46" y2="39" stroke="black" stroke-width="5" stroke-linecap="round"/>
<line x1="1071.54" y1="32.9194" x2="1123" y2="84.3839" stroke="black" stroke-width="5" stroke-linecap="round"/>
<line x1="1073.54" y1="9" x2="1131" y2="66.4645" stroke="black" stroke-width="5" stroke-linecap="round"/>
<line x1="1097.54" y1="7.91943" x2="1144" y2="54.3839" stroke="black" stroke-width="5" stroke-linecap="round"/>
<line x1="1118.54" y1="6.91943" x2="1155" y2="43.3839" stroke="black" stroke-width="5" stroke-linecap="round"/>
<line x1="1139.54" y1="6.91943" x2="1165" y2="32.3839" stroke="black" stroke-width="5" stroke-linecap="round"/>
<line x1="1225.54" y1="6" x2="1300" y2="80.4645" stroke="black" stroke-width="5" stroke-linecap="round"/>
<line x1="1247.54" y1="7" x2="1310" y2="69.4645" stroke="black" stroke-width="5" stroke-linecap="round"/>
<line x1="1271.54" y1="6" x2="1323" y2="57.4645" stroke="black" stroke-width="5" stroke-linecap="round"/>
<line x1="1296.54" y1="6" x2="1335" y2="44.4645" stroke="black" stroke-width="5" stroke-linecap="round"/>
<line x1="1320.54" y1="6" x2="1347" y2="32.4645" stroke="black" stroke-width="5" stroke-linecap="round"/>
<line x1="1403.54" y1="6" x2="1479" y2="81.4645" stroke="black" stroke-width="5" stroke-linecap="round"/>
<line x1="1583.54" y1="7" x2="1658" y2="81.4645" stroke="black" stroke-width="5" stroke-linecap="round"/>
<line x1="1427.54" y1="7" x2="1491" y2="70.4645" stroke="black" stroke-width="5" stroke-linecap="round"/>
<line x1="1451.54" y1="6" x2="1503" y2="57.4645" stroke="black" stroke-width="5" stroke-linecap="round"/>
<line x1="1476.54" y1="6" x2="1516" y2="45.4645" stroke="black" stroke-width="5" stroke-linecap="round"/>
<line x1="1500.54" y1="6" x2="1528" y2="33.4645" stroke="black" stroke-width="5" stroke-linecap="round"/>
<path d="M1702.49 7.9934L1729.72 7.86553L1716.18 23.5953L1702.49 7.9934Z" stroke="black" stroke-width="5"/>
<line x1="1678.54" y1="7.91943" x2="1705" y2="34.3839" stroke="black" stroke-width="5" stroke-linecap="round"/>
<line x1="1654.54" y1="7.91943" x2="1693" y2="46.3839" stroke="black" stroke-width="5" stroke-linecap="round"/>
<line x1="1628.54" y1="8" x2="1680" y2="59.4645" stroke="black" stroke-width="5" stroke-linecap="round"/>
<line x1="1606.54" y1="7.91943" x2="1669" y2="70.3839" stroke="black" stroke-width="5" stroke-linecap="round"/>
<path d="M1645.79 91.5L1616.21 91.5L1631 76.5537L1645.79 91.5Z" stroke="black" stroke-width="5"/>
<path d="M1097.79 92.5L1068.21 92.5L1083 77.5537L1097.79 92.5Z" stroke="black" stroke-width="5"/>
<path d="M1524.21 7.5L1553.79 7.5L1539 22.4463L1524.21 7.5Z" stroke="black" stroke-width="5"/>
<path d="M1342.21 7.5L1371.79 7.5L1357 22.4463L1342.21 7.5Z" stroke="black" stroke-width="5"/>
<path d="M1161.21 7.5L1190.79 7.5L1176 22.4463L1161.21 7.5Z" stroke="black" stroke-width="5"/>
<line x1="1493" y1="92.4645" x2="1570.46" y2="15" stroke="black" stroke-width="5" stroke-linecap="round"/>
<line x1="1518" y1="91.4645" x2="1582.46" y2="27" stroke="black" stroke-width="5" stroke-linecap="round"/>
<line x1="1542" y1="91.4645" x2="1594.46" y2="39" stroke="black" stroke-width="5" stroke-linecap="round"/>
<line x1="1563" y1="91.4645" x2="1604.46" y2="50" stroke="black" stroke-width="5" stroke-linecap="round"/>
<line x1="1588" y1="91.4645" x2="1617.46" y2="62" stroke="black" stroke-width="5" stroke-linecap="round"/>
<path d="M1279.79 91.5L1250.21 91.5L1265 76.5537L1279.79 91.5Z" stroke="black" stroke-width="5"/>
<line x1="1127" y1="92.4645" x2="1204.46" y2="15" stroke="black" stroke-width="5" stroke-linecap="round"/>
<line x1="1152" y1="91.4645" x2="1216.46" y2="27" stroke="black" stroke-width="5" stroke-linecap="round"/>
<line x1="1176" y1="91.4645" x2="1228.46" y2="39" stroke="black" stroke-width="5" stroke-linecap="round"/>
<line x1="1197" y1="91.4645" x2="1238.46" y2="50" stroke="black" stroke-width="5" stroke-linecap="round"/>
<line x1="1222" y1="91.4645" x2="1251.46" y2="62" stroke="black" stroke-width="5" stroke-linecap="round"/>
<path d="M1461.79 91.5L1432.21 91.5L1447 76.5537L1461.79 91.5Z" stroke="black" stroke-width="5"/>
<line x1="1309" y1="92.4645" x2="1386.46" y2="15" stroke="black" stroke-width="5" stroke-linecap="round"/>
<line x1="1334" y1="91.4645" x2="1398.46" y2="27" stroke="black" stroke-width="5" stroke-linecap="round"/>
<line x1="1358" y1="91.4645" x2="1410.46" y2="39" stroke="black" stroke-width="5" stroke-linecap="round"/>
<line x1="1379" y1="91.4645" x2="1420.46" y2="50" stroke="black" stroke-width="5" stroke-linecap="round"/>
<line x1="1404" y1="91.4645" x2="1433.46" y2="62" stroke="black" stroke-width="5" stroke-linecap="round"/>
<line x1="1667" y1="92.4645" x2="1744.46" y2="15" stroke="black" stroke-width="5" stroke-linecap="round"/>
<line x1="1692" y1="91.4645" x2="1756.46" y2="27" stroke="black" stroke-width="5" stroke-linecap="round"/>
<line x1="1716" y1="91.4645" x2="1768.46" y2="39" stroke="black" stroke-width="5" stroke-linecap="round"/>
</g>
<g clip-path="url(#clip3_318_7313)">
<rect width="639" height="639" transform="translate(541)" fill="#ECEAC3"/>
<line x1="532.536" y1="32.9194" x2="584" y2="84.3839" stroke="black" stroke-width="5" stroke-linecap="round"/>
<line x1="534.536" y1="9" x2="592" y2="66.4645" stroke="black" stroke-width="5" stroke-linecap="round"/>
<line x1="558.536" y1="7.91943" x2="605" y2="54.3839" stroke="black" stroke-width="5" stroke-linecap="round"/>
<line x1="579.536" y1="6.91943" x2="616" y2="43.3839" stroke="black" stroke-width="5" stroke-linecap="round"/>
<line x1="600.536" y1="6.91943" x2="626" y2="32.3839" stroke="black" stroke-width="5" stroke-linecap="round"/>
<line x1="686.536" y1="6" x2="761" y2="80.4645" stroke="black" stroke-width="5" stroke-linecap="round"/>
<line x1="708.536" y1="7" x2="771" y2="69.4645" stroke="black" stroke-width="5" stroke-linecap="round"/>
<line x1="732.536" y1="6" x2="784" y2="57.4645" stroke="black" stroke-width="5" stroke-linecap="round"/>
<line x1="757.536" y1="6" x2="796" y2="44.4645" stroke="black" stroke-width="5" stroke-linecap="round"/>
<line x1="781.536" y1="6" x2="808" y2="32.4645" stroke="black" stroke-width="5" stroke-linecap="round"/>
<line x1="864.536" y1="6" x2="940" y2="81.4645" stroke="black" stroke-width="5" stroke-linecap="round"/>
<line x1="1044.54" y1="7" x2="1119" y2="81.4645" stroke="black" stroke-width="5" stroke-linecap="round"/>
<line x1="888.536" y1="7" x2="952" y2="70.4645" stroke="black" stroke-width="5" stroke-linecap="round"/>
<line x1="912.536" y1="6" x2="964" y2="57.4645" stroke="black" stroke-width="5" stroke-linecap="round"/>
<line x1="937.536" y1="6" x2="977" y2="45.4645" stroke="black" stroke-width="5" stroke-linecap="round"/>
<line x1="961.536" y1="6" x2="989" y2="33.4645" stroke="black" stroke-width="5" stroke-linecap="round"/>
<path d="M1163.49 7.9934L1190.72 7.86553L1177.18 23.5953L1163.49 7.9934Z" stroke="black" stroke-width="5"/>
<line x1="1139.54" y1="7.91943" x2="1166" y2="34.3839" stroke="black" stroke-width="5" stroke-linecap="round"/>
<line x1="1115.54" y1="7.91943" x2="1154" y2="46.3839" stroke="black" stroke-width="5" stroke-linecap="round"/>
<line x1="1089.54" y1="8" x2="1141" y2="59.4645" stroke="black" stroke-width="5" stroke-linecap="round"/>
<line x1="1067.54" y1="7.91943" x2="1130" y2="70.3839" stroke="black" stroke-width="5" stroke-linecap="round"/>
<path d="M1106.79 91.5L1077.21 91.5L1092 76.5537L1106.79 91.5Z" stroke="black" stroke-width="5"/>
<path d="M558.793 92.5L529.207 92.5L544 77.5537L558.793 92.5Z" stroke="black" stroke-width="5"/>
<path d="M985.207 7.5L1014.79 7.5L1000 22.4463L985.207 7.5Z" stroke="black" stroke-width="5"/>
<path d="M803.207 7.5L832.793 7.5L818 22.4463L803.207 7.5Z" stroke="black" stroke-width="5"/>
<path d="M622.207 7.5L651.793 7.5L637 22.4463L622.207 7.5Z" stroke="black" stroke-width="5"/>
<line x1="954" y1="92.4645" x2="1031.46" y2="15" stroke="black" stroke-width="5" stroke-linecap="round"/>
<line x1="979" y1="91.4645" x2="1043.46" y2="27" stroke="black" stroke-width="5" stroke-linecap="round"/>
<line x1="1003" y1="91.4645" x2="1055.46" y2="39" stroke="black" stroke-width="5" stroke-linecap="round"/>
<line x1="1024" y1="91.4645" x2="1065.46" y2="50" stroke="black" stroke-width="5" stroke-linecap="round"/>
<line x1="1049" y1="91.4645" x2="1078.46" y2="62" stroke="black" stroke-width="5" stroke-linecap="round"/>
<path d="M740.793 91.5L711.207 91.5L726 76.5537L740.793 91.5Z" stroke="black" stroke-width="5"/>
<line x1="588" y1="92.4645" x2="665.464" y2="15" stroke="black" stroke-width="5" stroke-linecap="round"/>
<line x1="613" y1="91.4645" x2="677.464" y2="27" stroke="black" stroke-width="5" stroke-linecap="round"/>
<line x1="637" y1="91.4645" x2="689.464" y2="39" stroke="black" stroke-width="5" stroke-linecap="round"/>
<line x1="658" y1="91.4645" x2="699.464" y2="50" stroke="black" stroke-width="5" stroke-linecap="round"/>
<line x1="683" y1="91.4645" x2="712.464" y2="62" stroke="black" stroke-width="5" stroke-linecap="round"/>
<path d="M922.793 91.5L893.207 91.5L908 76.5537L922.793 91.5Z" stroke="black" stroke-width="5"/>
<line x1="770" y1="92.4645" x2="847.464" y2="15" stroke="black" stroke-width="5" stroke-linecap="round"/>
<line x1="795" y1="91.4645" x2="859.464" y2="27" stroke="black" stroke-width="5" stroke-linecap="round"/>
<line x1="819" y1="91.4645" x2="871.464" y2="39" stroke="black" stroke-width="5" stroke-linecap="round"/>
<line x1="840" y1="91.4645" x2="881.464" y2="50" stroke="black" stroke-width="5" stroke-linecap="round"/>
<line x1="865" y1="91.4645" x2="894.464" y2="62" stroke="black" stroke-width="5" stroke-linecap="round"/>
<line x1="1128" y1="92.4645" x2="1205.46" y2="15" stroke="black" stroke-width="5" stroke-linecap="round"/>
<line x1="1153" y1="91.4645" x2="1217.46" y2="27" stroke="black" stroke-width="5" stroke-linecap="round"/>
<line x1="1177" y1="91.4645" x2="1229.46" y2="39" stroke="black" stroke-width="5" stroke-linecap="round"/>
<line x1="532.536" y1="32.9194" x2="584" y2="84.3839" stroke="black" stroke-width="5" stroke-linecap="round"/>
<line x1="534.536" y1="9" x2="592" y2="66.4645" stroke="black" stroke-width="5" stroke-linecap="round"/>
<line x1="558.536" y1="7.91943" x2="605" y2="54.3839" stroke="black" stroke-width="5" stroke-linecap="round"/>
<line x1="579.536" y1="6.91943" x2="616" y2="43.3839" stroke="black" stroke-width="5" stroke-linecap="round"/>
<line x1="600.536" y1="6.91943" x2="626" y2="32.3839" stroke="black" stroke-width="5" stroke-linecap="round"/>
<line x1="686.536" y1="6" x2="761" y2="80.4645" stroke="black" stroke-width="5" stroke-linecap="round"/>
<line x1="708.536" y1="7" x2="771" y2="69.4645" stroke="black" stroke-width="5" stroke-linecap="round"/>
<line x1="732.536" y1="6" x2="784" y2="57.4645" stroke="black" stroke-width="5" stroke-linecap="round"/>
<line x1="757.536" y1="6" x2="796" y2="44.4645" stroke="black" stroke-width="5" stroke-linecap="round"/>
<line x1="781.536" y1="6" x2="808" y2="32.4645" stroke="black" stroke-width="5" stroke-linecap="round"/>
<line x1="864.536" y1="6" x2="940" y2="81.4645" stroke="black" stroke-width="5" stroke-linecap="round"/>
<line x1="1044.54" y1="7" x2="1119" y2="81.4645" stroke="black" stroke-width="5" stroke-linecap="round"/>
<line x1="888.536" y1="7" x2="952" y2="70.4645" stroke="black" stroke-width="5" stroke-linecap="round"/>
<line x1="912.536" y1="6" x2="964" y2="57.4645" stroke="black" stroke-width="5" stroke-linecap="round"/>
<line x1="937.536" y1="6" x2="977" y2="45.4645" stroke="black" stroke-width="5" stroke-linecap="round"/>
<line x1="961.536" y1="6" x2="989" y2="33.4645" stroke="black" stroke-width="5" stroke-linecap="round"/>
<path d="M1163.49 7.9934L1190.72 7.86553L1177.18 23.5953L1163.49 7.9934Z" stroke="black" stroke-width="5"/>
<line x1="1139.54" y1="7.91943" x2="1166" y2="34.3839" stroke="black" stroke-width="5" stroke-linecap="round"/>
<line x1="1115.54" y1="7.91943" x2="1154" y2="46.3839" stroke="black" stroke-width="5" stroke-linecap="round"/>
<line x1="1089.54" y1="8" x2="1141" y2="59.4645" stroke="black" stroke-width="5" stroke-linecap="round"/>
<line x1="1067.54" y1="7.91943" x2="1130" y2="70.3839" stroke="black" stroke-width="5" stroke-linecap="round"/>
<path d="M1106.79 91.5L1077.21 91.5L1092 76.5537L1106.79 91.5Z" stroke="black" stroke-width="5"/>
<path d="M558.793 92.5L529.207 92.5L544 77.5537L558.793 92.5Z" stroke="black" stroke-width="5"/>
<path d="M985.207 7.5L1014.79 7.5L1000 22.4463L985.207 7.5Z" stroke="black" stroke-width="5"/>
<path d="M803.207 7.5L832.793 7.5L818 22.4463L803.207 7.5Z" stroke="black" stroke-width="5"/>
<path d="M622.207 7.5L651.793 7.5L637 22.4463L622.207 7.5Z" stroke="black" stroke-width="5"/>
<line x1="954" y1="92.4645" x2="1031.46" y2="15" stroke="black" stroke-width="5" stroke-linecap="round"/>
<line x1="979" y1="91.4645" x2="1043.46" y2="27" stroke="black" stroke-width="5" stroke-linecap="round"/>
<line x1="1003" y1="91.4645" x2="1055.46" y2="39" stroke="black" stroke-width="5" stroke-linecap="round"/>
<line x1="1024" y1="91.4645" x2="1065.46" y2="50" stroke="black" stroke-width="5" stroke-linecap="round"/>
<line x1="1049" y1="91.4645" x2="1078.46" y2="62" stroke="black" stroke-width="5" stroke-linecap="round"/>
<path d="M740.793 91.5L711.207 91.5L726 76.5537L740.793 91.5Z" stroke="black" stroke-width="5"/>
<line x1="588" y1="92.4645" x2="665.464" y2="15" stroke="black" stroke-width="5" stroke-linecap="round"/>
<line x1="613" y1="91.4645" x2="677.464" y2="27" stroke="black" stroke-width="5" stroke-linecap="round"/>
<line x1="637" y1="91.4645" x2="689.464" y2="39" stroke="black" stroke-width="5" stroke-linecap="round"/>
<line x1="658" y1="91.4645" x2="699.464" y2="50" stroke="black" stroke-width="5" stroke-linecap="round"/>
<line x1="683" y1="91.4645" x2="712.464" y2="62" stroke="black" stroke-width="5" stroke-linecap="round"/>
<path d="M922.793 91.5L893.207 91.5L908 76.5537L922.793 91.5Z" stroke="black" stroke-width="5"/>
<line x1="770" y1="92.4645" x2="847.464" y2="15" stroke="black" stroke-width="5" stroke-linecap="round"/>
<line x1="795" y1="91.4645" x2="859.464" y2="27" stroke="black" stroke-width="5" stroke-linecap="round"/>
<line x1="819" y1="91.4645" x2="871.464" y2="39" stroke="black" stroke-width="5" stroke-linecap="round"/>
<line x1="840" y1="91.4645" x2="881.464" y2="50" stroke="black" stroke-width="5" stroke-linecap="round"/>
<line x1="865" y1="91.4645" x2="894.464" y2="62" stroke="black" stroke-width="5" stroke-linecap="round"/>
<line x1="1128" y1="92.4645" x2="1205.46" y2="15" stroke="black" stroke-width="5" stroke-linecap="round"/>
<line x1="1153" y1="91.4645" x2="1217.46" y2="27" stroke="black" stroke-width="5" stroke-linecap="round"/>
<line x1="1177" y1="91.4645" x2="1229.46" y2="39" stroke="black" stroke-width="5" stroke-linecap="round"/>
</g>
<g clip-path="url(#clip4_318_7313)">
<rect width="639" height="639" fill="#ECEAC3"/>
<line x1="-8.46447" y1="32.9194" x2="43" y2="84.3839" stroke="black" stroke-width="5" stroke-linecap="round"/>
<line x1="-6.46447" y1="9" x2="51" y2="66.4645" stroke="black" stroke-width="5" stroke-linecap="round"/>
<line x1="17.5355" y1="7.91943" x2="64" y2="54.3839" stroke="black" stroke-width="5" stroke-linecap="round"/>
<line x1="38.5355" y1="6.91943" x2="75" y2="43.3839" stroke="black" stroke-width="5" stroke-linecap="round"/>
<line x1="59.5355" y1="6.91943" x2="85" y2="32.3839" stroke="black" stroke-width="5" stroke-linecap="round"/>
<line x1="145.536" y1="6" x2="220" y2="80.4645" stroke="black" stroke-width="5" stroke-linecap="round"/>
<line x1="167.536" y1="7" x2="230" y2="69.4645" stroke="black" stroke-width="5" stroke-linecap="round"/>
<line x1="191.536" y1="6" x2="243" y2="57.4645" stroke="black" stroke-width="5" stroke-linecap="round"/>
<line x1="216.536" y1="6" x2="255" y2="44.4645" stroke="black" stroke-width="5" stroke-linecap="round"/>
<line x1="240.536" y1="6" x2="267" y2="32.4645" stroke="black" stroke-width="5" stroke-linecap="round"/>
<line x1="323.536" y1="6" x2="399" y2="81.4645" stroke="black" stroke-width="5" stroke-linecap="round"/>
<line x1="503.536" y1="7" x2="578" y2="81.4645" stroke="black" stroke-width="5" stroke-linecap="round"/>
<line x1="347.536" y1="7" x2="411" y2="70.4645" stroke="black" stroke-width="5" stroke-linecap="round"/>
<line x1="371.536" y1="6" x2="423" y2="57.4645" stroke="black" stroke-width="5" stroke-linecap="round"/>
<line x1="396.536" y1="6" x2="436" y2="45.4645" stroke="black" stroke-width="5" stroke-linecap="round"/>
<line x1="420.536" y1="6" x2="448" y2="33.4645" stroke="black" stroke-width="5" stroke-linecap="round"/>
<path d="M622.488 7.9934L649.72 7.86553L636.178 23.5953L622.488 7.9934Z" stroke="black" stroke-width="5"/>
<line x1="598.536" y1="7.91943" x2="625" y2="34.3839" stroke="black" stroke-width="5" stroke-linecap="round"/>
<line x1="574.536" y1="7.91943" x2="613" y2="46.3839" stroke="black" stroke-width="5" stroke-linecap="round"/>
<line x1="548.536" y1="8" x2="600" y2="59.4645" stroke="black" stroke-width="5" stroke-linecap="round"/>
<line x1="526.536" y1="7.91943" x2="589" y2="70.3839" stroke="black" stroke-width="5" stroke-linecap="round"/>
<path d="M565.793 91.5L536.207 91.5L551 76.5537L565.793 91.5Z" stroke="black" stroke-width="5"/>
<path d="M17.793 92.5L-11.793 92.5L3 77.5537L17.793 92.5Z" stroke="black" stroke-width="5"/>
<path d="M444.207 7.5L473.793 7.5L459 22.4463L444.207 7.5Z" stroke="black" stroke-width="5"/>
<path d="M262.207 7.5L291.793 7.5L277 22.4463L262.207 7.5Z" stroke="black" stroke-width="5"/>
<path d="M81.207 7.5L110.793 7.5L96 22.4463L81.207 7.5Z" stroke="black" stroke-width="5"/>
<line x1="413" y1="92.4645" x2="490.464" y2="15" stroke="black" stroke-width="5" stroke-linecap="round"/>
<line x1="438" y1="91.4645" x2="502.464" y2="27" stroke="black" stroke-width="5" stroke-linecap="round"/>
<line x1="462" y1="91.4645" x2="514.464" y2="39" stroke="black" stroke-width="5" stroke-linecap="round"/>
<line x1="483" y1="91.4645" x2="524.464" y2="50" stroke="black" stroke-width="5" stroke-linecap="round"/>
<line x1="508" y1="91.4645" x2="537.464" y2="62" stroke="black" stroke-width="5" stroke-linecap="round"/>
<path d="M199.793 91.5L170.207 91.5L185 76.5537L199.793 91.5Z" stroke="black" stroke-width="5"/>
<line x1="47" y1="92.4645" x2="124.464" y2="15" stroke="black" stroke-width="5" stroke-linecap="round"/>
<line x1="72" y1="91.4645" x2="136.464" y2="27" stroke="black" stroke-width="5" stroke-linecap="round"/>
<line x1="96" y1="91.4645" x2="148.464" y2="39" stroke="black" stroke-width="5" stroke-linecap="round"/>
<line x1="117" y1="91.4645" x2="158.464" y2="50" stroke="black" stroke-width="5" stroke-linecap="round"/>
<line x1="142" y1="91.4645" x2="171.464" y2="62" stroke="black" stroke-width="5" stroke-linecap="round"/>
<path d="M381.793 91.5L352.207 91.5L367 76.5537L381.793 91.5Z" stroke="black" stroke-width="5"/>
<line x1="229" y1="92.4645" x2="306.464" y2="15" stroke="black" stroke-width="5" stroke-linecap="round"/>
<line x1="254" y1="91.4645" x2="318.464" y2="27" stroke="black" stroke-width="5" stroke-linecap="round"/>
<line x1="278" y1="91.4645" x2="330.464" y2="39" stroke="black" stroke-width="5" stroke-linecap="round"/>
<line x1="299" y1="91.4645" x2="340.464" y2="50" stroke="black" stroke-width="5" stroke-linecap="round"/>
<line x1="324" y1="91.4645" x2="353.464" y2="62" stroke="black" stroke-width="5" stroke-linecap="round"/>
<line x1="587" y1="92.4645" x2="664.464" y2="15" stroke="black" stroke-width="5" stroke-linecap="round"/>
<line x1="612" y1="91.4645" x2="676.464" y2="27" stroke="black" stroke-width="5" stroke-linecap="round"/>
<line x1="636" y1="91.4645" x2="688.464" y2="39" stroke="black" stroke-width="5" stroke-linecap="round"/>
<line x1="-8.46447" y1="32.9194" x2="43" y2="84.3839" stroke="black" stroke-width="5" stroke-linecap="round"/>
<line x1="-6.46447" y1="9" x2="51" y2="66.4645" stroke="black" stroke-width="5" stroke-linecap="round"/>
<line x1="17.5355" y1="7.91943" x2="64" y2="54.3839" stroke="black" stroke-width="5" stroke-linecap="round"/>
<line x1="38.5355" y1="6.91943" x2="75" y2="43.3839" stroke="black" stroke-width="5" stroke-linecap="round"/>
<line x1="59.5355" y1="6.91943" x2="85" y2="32.3839" stroke="black" stroke-width="5" stroke-linecap="round"/>
<line x1="145.536" y1="6" x2="220" y2="80.4645" stroke="black" stroke-width="5" stroke-linecap="round"/>
<line x1="167.536" y1="7" x2="230" y2="69.4645" stroke="black" stroke-width="5" stroke-linecap="round"/>
<line x1="191.536" y1="6" x2="243" y2="57.4645" stroke="black" stroke-width="5" stroke-linecap="round"/>
<line x1="216.536" y1="6" x2="255" y2="44.4645" stroke="black" stroke-width="5" stroke-linecap="round"/>
<line x1="240.536" y1="6" x2="267" y2="32.4645" stroke="black" stroke-width="5" stroke-linecap="round"/>
<line x1="323.536" y1="6" x2="399" y2="81.4645" stroke="black" stroke-width="5" stroke-linecap="round"/>
<line x1="503.536" y1="7" x2="578" y2="81.4645" stroke="black" stroke-width="5" stroke-linecap="round"/>
<line x1="347.536" y1="7" x2="411" y2="70.4645" stroke="black" stroke-width="5" stroke-linecap="round"/>
<line x1="371.536" y1="6" x2="423" y2="57.4645" stroke="black" stroke-width="5" stroke-linecap="round"/>
<line x1="396.536" y1="6" x2="436" y2="45.4645" stroke="black" stroke-width="5" stroke-linecap="round"/>
<line x1="420.536" y1="6" x2="448" y2="33.4645" stroke="black" stroke-width="5" stroke-linecap="round"/>
<path d="M622.488 7.9934L649.72 7.86553L636.178 23.5953L622.488 7.9934Z" stroke="black" stroke-width="5"/>
<line x1="598.536" y1="7.91943" x2="625" y2="34.3839" stroke="black" stroke-width="5" stroke-linecap="round"/>
<line x1="574.536" y1="7.91943" x2="613" y2="46.3839" stroke="black" stroke-width="5" stroke-linecap="round"/>
<line x1="548.536" y1="8" x2="600" y2="59.4645" stroke="black" stroke-width="5" stroke-linecap="round"/>
<line x1="526.536" y1="7.91943" x2="589" y2="70.3839" stroke="black" stroke-width="5" stroke-linecap="round"/>
<path d="M565.793 91.5L536.207 91.5L551 76.5537L565.793 91.5Z" stroke="black" stroke-width="5"/>
<path d="M17.793 92.5L-11.793 92.5L3 77.5537L17.793 92.5Z" stroke="black" stroke-width="5"/>
<path d="M444.207 7.5L473.793 7.5L459 22.4463L444.207 7.5Z" stroke="black" stroke-width="5"/>
<path d="M262.207 7.5L291.793 7.5L277 22.4463L262.207 7.5Z" stroke="black" stroke-width="5"/>
<path d="M81.207 7.5L110.793 7.5L96 22.4463L81.207 7.5Z" stroke="black" stroke-width="5"/>
<line x1="413" y1="92.4645" x2="490.464" y2="15" stroke="black" stroke-width="5" stroke-linecap="round"/>
<line x1="438" y1="91.4645" x2="502.464" y2="27" stroke="black" stroke-width="5" stroke-linecap="round"/>
<line x1="462" y1="91.4645" x2="514.464" y2="39" stroke="black" stroke-width="5" stroke-linecap="round"/>
<line x1="483" y1="91.4645" x2="524.464" y2="50" stroke="black" stroke-width="5" stroke-linecap="round"/>
<line x1="508" y1="91.4645" x2="537.464" y2="62" stroke="black" stroke-width="5" stroke-linecap="round"/>
<path d="M199.793 91.5L170.207 91.5L185 76.5537L199.793 91.5Z" stroke="black" stroke-width="5"/>
<line x1="47" y1="92.4645" x2="124.464" y2="15" stroke="black" stroke-width="5" stroke-linecap="round"/>
<line x1="72" y1="91.4645" x2="136.464" y2="27" stroke="black" stroke-width="5" stroke-linecap="round"/>
<line x1="96" y1="91.4645" x2="148.464" y2="39" stroke="black" stroke-width="5" stroke-linecap="round"/>
<line x1="117" y1="91.4645" x2="158.464" y2="50" stroke="black" stroke-width="5" stroke-linecap="round"/>
<line x1="142" y1="91.4645" x2="171.464" y2="62" stroke="black" stroke-width="5" stroke-linecap="round"/>
<path d="M381.793 91.5L352.207 91.5L367 76.5537L381.793 91.5Z" stroke="black" stroke-width="5"/>
<line x1="229" y1="92.4645" x2="306.464" y2="15" stroke="black" stroke-width="5" stroke-linecap="round"/>
<line x1="254" y1="91.4645" x2="318.464" y2="27" stroke="black" stroke-width="5" stroke-linecap="round"/>
<line x1="278" y1="91.4645" x2="330.464" y2="39" stroke="black" stroke-width="5" stroke-linecap="round"/>
<line x1="299" y1="91.4645" x2="340.464" y2="50" stroke="black" stroke-width="5" stroke-linecap="round"/>
<line x1="324" y1="91.4645" x2="353.464" y2="62" stroke="black" stroke-width="5" stroke-linecap="round"/>
<line x1="587" y1="92.4645" x2="664.464" y2="15" stroke="black" stroke-width="5" stroke-linecap="round"/>
<line x1="612" y1="91.4645" x2="676.464" y2="27" stroke="black" stroke-width="5" stroke-linecap="round"/>
<line x1="636" y1="91.4645" x2="688.464" y2="39" stroke="black" stroke-width="5" stroke-linecap="round"/>
</g>
</g>
<defs>
<clipPath id="clip0_318_7313">
<rect width="1920" height="96" fill="white"/>
</clipPath>
<clipPath id="clip1_318_7313">
<rect width="639" height="639" fill="white" transform="translate(1621)"/>
</clipPath>
<clipPath id="clip2_318_7313">
<rect width="639" height="639" fill="white" transform="translate(1080)"/>
</clipPath>
<clipPath id="clip3_318_7313">
<rect width="639" height="639" fill="white" transform="translate(541)"/>
</clipPath>
<clipPath id="clip4_318_7313">
<rect width="639" height="639" fill="white"/>
</clipPath>
</defs>
</svg>
