<svg width="412" height="288" viewBox="0 0 412 288" fill="none" xmlns="http://www.w3.org/2000/svg">
<path d="M35.71 68.26C30.73 68.26 26.11 67.48 21.85 65.92C17.65 64.3 13.99 62.02 10.87 59.08C7.81 56.14 5.41 52.69 3.67 48.73C1.93 44.71 1.06 40.3 1.06 35.5C1.06 30.7 1.93 26.32 3.67 22.36C5.41 18.34 7.81 14.86 10.87 11.92C13.99 8.98 17.65 6.73 21.85 5.17C26.11 3.55 30.73 2.74 35.71 2.74C41.53 2.74 46.72 3.76 51.28 5.8C55.9 7.84 59.74 10.78 62.8 14.62L51.46 24.88C49.42 22.48 47.17 20.65 44.71 19.39C42.31 18.13 39.61 17.5 36.61 17.5C34.03 17.5 31.66 17.92 29.5 18.76C27.34 19.6 25.48 20.83 23.92 22.45C22.42 24.01 21.22 25.9 20.32 28.12C19.48 30.34 19.06 32.8 19.06 35.5C19.06 38.2 19.48 40.66 20.32 42.88C21.22 45.1 22.42 47.02 23.92 48.64C25.48 50.2 27.34 51.4 29.5 52.24C31.66 53.08 34.03 53.5 36.61 53.5C39.61 53.5 42.31 52.87 44.71 51.61C47.17 50.35 49.42 48.52 51.46 46.12L62.8 56.38C59.74 60.16 55.9 63.1 51.28 65.2C46.72 67.24 41.53 68.26 35.71 68.26ZM92.8333 67.81C87.4933 67.81 82.7533 66.73 78.6133 64.57C74.4733 62.41 71.2033 59.44 68.8033 55.66C66.4633 51.82 65.2933 47.44 65.2933 42.52C65.2933 37.6 66.4633 33.25 68.8033 29.47C71.2033 25.69 74.4733 22.75 78.6133 20.65C82.7533 18.49 87.4933 17.41 92.8333 17.41C98.1733 17.41 102.913 18.49 107.053 20.65C111.253 22.75 114.523 25.69 116.863 29.47C119.203 33.25 120.373 37.6 120.373 42.52C120.373 47.44 119.203 51.82 116.863 55.66C114.523 59.44 111.253 62.41 107.053 64.57C102.913 66.73 98.1733 67.81 92.8333 67.81ZM92.8333 54.22C94.8133 54.22 96.5533 53.77 98.0533 52.87C99.6133 51.97 100.843 50.65 101.743 48.91C102.643 47.11 103.093 44.98 103.093 42.52C103.093 40.06 102.643 37.99 101.743 36.31C100.843 34.57 99.6133 33.25 98.0533 32.35C96.5533 31.45 94.8133 31 92.8333 31C90.9133 31 89.1733 31.45 87.6133 32.35C86.1133 33.25 84.8833 34.57 83.9233 36.31C83.0233 37.99 82.5733 40.06 82.5733 42.52C82.5733 44.98 83.0233 47.11 83.9233 48.91C84.8833 50.65 86.1133 51.97 87.6133 52.87C89.1733 53.77 90.9133 54.22 92.8333 54.22ZM160.065 17.41C163.845 17.41 167.265 18.19 170.325 19.75C173.385 21.25 175.785 23.59 177.525 26.77C179.325 29.95 180.225 34.06 180.225 39.1V67H163.125V41.89C163.125 38.41 162.405 35.89 160.965 34.33C159.585 32.71 157.635 31.9 155.115 31.9C153.315 31.9 151.665 32.32 150.165 33.16C148.665 33.94 147.495 35.17 146.655 36.85C145.815 38.53 145.395 40.72 145.395 43.42V67H128.295V18.22H144.585V32.08L141.435 28.03C143.295 24.49 145.845 21.85 149.085 20.11C152.325 18.31 155.985 17.41 160.065 17.41ZM222.731 17.41C226.511 17.41 229.931 18.19 232.991 19.75C236.051 21.25 238.451 23.59 240.191 26.77C241.991 29.95 242.891 34.06 242.891 39.1V67H225.791V41.89C225.791 38.41 225.071 35.89 223.631 34.33C222.251 32.71 220.301 31.9 217.781 31.9C215.981 31.9 214.331 32.32 212.831 33.16C211.331 33.94 210.161 35.17 209.321 36.85C208.481 38.53 208.061 40.72 208.061 43.42V67H190.961V0.219996H208.061V32.08L204.101 28.03C205.961 24.49 208.511 21.85 211.751 20.11C214.991 18.31 218.651 17.41 222.731 17.41ZM279.802 67.81C274.042 67.81 269.002 66.73 264.682 64.57C260.422 62.35 257.092 59.35 254.692 55.57C252.352 51.73 251.182 47.38 251.182 42.52C251.182 37.66 252.322 33.34 254.602 29.56C256.942 25.72 260.152 22.75 264.232 20.65C268.312 18.49 272.902 17.41 278.002 17.41C282.802 17.41 287.182 18.4 291.142 20.38C295.102 22.3 298.252 25.15 300.592 28.93C302.932 32.71 304.102 37.3 304.102 42.7C304.102 43.3 304.072 43.99 304.012 44.77C303.952 45.55 303.892 46.27 303.832 46.93H265.222V37.93H294.742L288.262 40.45C288.322 38.23 287.902 36.31 287.002 34.69C286.162 33.07 284.962 31.81 283.402 30.91C281.902 30.01 280.132 29.56 278.092 29.56C276.052 29.56 274.252 30.01 272.692 30.91C271.192 31.81 270.022 33.1 269.182 34.78C268.342 36.4 267.922 38.32 267.922 40.54V43.15C267.922 45.55 268.402 47.62 269.362 49.36C270.382 51.1 271.822 52.45 273.682 53.41C275.542 54.31 277.762 54.76 280.342 54.76C282.742 54.76 284.782 54.43 286.462 53.77C288.202 53.05 289.912 51.97 291.592 50.53L300.592 59.89C298.252 62.47 295.372 64.45 291.952 65.83C288.532 67.15 284.482 67.81 279.802 67.81ZM336.916 67.81C331.516 67.81 326.686 66.73 322.426 64.57C318.226 62.41 314.926 59.44 312.526 55.66C310.126 51.82 308.926 47.44 308.926 42.52C308.926 37.6 310.126 33.25 312.526 29.47C314.926 25.69 318.226 22.75 322.426 20.65C326.686 18.49 331.516 17.41 336.916 17.41C342.436 17.41 347.206 18.58 351.226 20.92C355.246 23.26 358.096 26.56 359.776 30.82L346.546 37.57C345.406 35.29 343.996 33.64 342.316 32.62C340.636 31.54 338.806 31 336.826 31C334.846 31 333.046 31.45 331.426 32.35C329.806 33.25 328.516 34.57 327.556 36.31C326.656 37.99 326.206 40.06 326.206 42.52C326.206 45.04 326.656 47.17 327.556 48.91C328.516 50.65 329.806 51.97 331.426 52.87C333.046 53.77 334.846 54.22 336.826 54.22C338.806 54.22 340.636 53.71 342.316 52.69C343.996 51.61 345.406 49.93 346.546 47.65L359.776 54.4C358.096 58.66 355.246 61.96 351.226 64.3C347.206 66.64 342.436 67.81 336.916 67.81ZM331.246 88.24C329.746 88.24 328.186 88.06 326.566 87.7C325.006 87.34 323.716 86.89 322.696 86.35L325.036 79.6C325.816 79.96 326.656 80.26 327.556 80.5C328.516 80.74 329.536 80.86 330.616 80.86C332.236 80.86 333.376 80.62 334.036 80.14C334.756 79.66 335.116 79.06 335.116 78.34C335.116 77.62 334.786 77.05 334.126 76.63C333.526 76.27 332.506 76.09 331.066 76.09H327.736L330.076 66.19H338.986L337.726 71.59C340.486 71.89 342.466 72.76 343.666 74.2C344.866 75.64 345.466 77.2 345.466 78.88C345.466 81.76 344.176 84.04 341.596 85.72C339.016 87.4 335.566 88.24 331.246 88.24ZM396.005 67V57.91L394.835 55.66V38.92C394.835 36.22 393.995 34.15 392.315 32.71C390.695 31.21 388.085 30.46 384.485 30.46C382.145 30.46 379.775 30.85 377.375 31.63C374.975 32.35 372.935 33.37 371.255 34.69L365.495 23.08C368.255 21.28 371.555 19.9 375.395 18.94C379.295 17.92 383.165 17.41 387.005 17.41C394.925 17.41 401.045 19.24 405.365 22.9C409.745 26.5 411.935 32.17 411.935 39.91V67H396.005ZM381.605 67.81C377.705 67.81 374.405 67.15 371.705 65.83C369.005 64.51 366.935 62.71 365.495 60.43C364.115 58.15 363.425 55.6 363.425 52.78C363.425 49.78 364.175 47.2 365.675 45.04C367.235 42.82 369.605 41.14 372.785 40C375.965 38.8 380.075 38.2 385.115 38.2H396.635V47.11H387.455C384.695 47.11 382.745 47.56 381.605 48.46C380.525 49.36 379.985 50.56 379.985 52.06C379.985 53.56 380.555 54.76 381.695 55.66C382.835 56.56 384.395 57.01 386.375 57.01C388.235 57.01 389.915 56.56 391.415 55.66C392.975 54.7 394.115 53.26 394.835 51.34L397.175 57.64C396.275 61 394.505 63.55 391.865 65.29C389.285 66.97 385.865 67.81 381.605 67.81ZM35.26 127.41C39.04 127.41 42.46 128.19 45.52 129.75C48.58 131.25 50.98 133.59 52.72 136.77C54.52 139.95 55.42 144.06 55.42 149.1V177H38.32V151.89C38.32 148.41 37.6 145.89 36.16 144.33C34.78 142.71 32.83 141.9 30.31 141.9C28.51 141.9 26.86 142.32 25.36 143.16C23.86 143.94 22.69 145.17 21.85 146.85C21.01 148.53 20.59 150.72 20.59 153.42V177H3.49V128.22H19.78V142.08L16.63 138.03C18.49 134.49 21.04 131.85 24.28 130.11C27.52 128.31 31.18 127.41 35.26 127.41ZM91.2513 177.81C85.9113 177.81 81.1713 176.73 77.0313 174.57C72.8913 172.41 69.6213 169.44 67.2212 165.66C64.8813 161.82 63.7113 157.44 63.7113 152.52C63.7113 147.6 64.8813 143.25 67.2212 139.47C69.6213 135.69 72.8913 132.75 77.0313 130.65C81.1713 128.49 85.9113 127.41 91.2513 127.41C96.5913 127.41 101.331 128.49 105.471 130.65C109.671 132.75 112.941 135.69 115.281 139.47C117.621 143.25 118.791 147.6 118.791 152.52C118.791 157.44 117.621 161.82 115.281 165.66C112.941 169.44 109.671 172.41 105.471 174.57C101.331 176.73 96.5913 177.81 91.2513 177.81ZM91.2513 164.22C93.2313 164.22 94.9713 163.77 96.4713 162.87C98.0313 161.97 99.2613 160.65 100.161 158.91C101.061 157.11 101.511 154.98 101.511 152.52C101.511 150.06 101.061 147.99 100.161 146.31C99.2613 144.57 98.0313 143.25 96.4713 142.35C94.9713 141.45 93.2313 141 91.2513 141C89.3313 141 87.5913 141.45 86.0313 142.35C84.5313 143.25 83.3013 144.57 82.3413 146.31C81.4413 147.99 80.9913 150.06 80.9913 152.52C80.9913 154.98 81.4413 157.11 82.3413 158.91C83.3013 160.65 84.5313 161.97 86.0313 162.87C87.5913 163.77 89.3313 164.22 91.2513 164.22ZM144.443 177.81C140.303 177.81 136.253 177.33 132.293 176.37C128.393 175.41 125.243 174.21 122.843 172.77L127.973 161.07C130.253 162.45 132.923 163.56 135.983 164.4C139.043 165.18 142.043 165.57 144.983 165.57C147.863 165.57 149.843 165.27 150.923 164.67C152.063 164.07 152.633 163.26 152.633 162.24C152.633 161.28 152.093 160.59 151.013 160.17C149.993 159.69 148.613 159.33 146.873 159.09C145.193 158.85 143.333 158.58 141.293 158.28C139.253 157.98 137.183 157.59 135.083 157.11C133.043 156.57 131.153 155.79 129.413 154.77C127.733 153.69 126.383 152.25 125.363 150.45C124.343 148.65 123.833 146.37 123.833 143.61C123.833 140.49 124.733 137.73 126.533 135.33C128.393 132.87 131.093 130.95 134.633 129.57C138.173 128.13 142.493 127.41 147.593 127.41C151.013 127.41 154.463 127.77 157.943 128.49C161.483 129.15 164.453 130.17 166.853 131.55L161.723 143.16C159.323 141.78 156.923 140.85 154.523 140.37C152.123 139.83 149.843 139.56 147.683 139.56C144.803 139.56 142.763 139.89 141.563 140.55C140.423 141.21 139.853 142.02 139.853 142.98C139.853 143.94 140.363 144.69 141.383 145.23C142.403 145.71 143.753 146.1 145.433 146.4C147.173 146.64 149.063 146.91 151.103 147.21C153.143 147.45 155.183 147.84 157.223 148.38C159.323 148.92 161.213 149.73 162.893 150.81C164.633 151.83 166.013 153.24 167.033 155.04C168.053 156.78 168.563 159.03 168.563 161.79C168.563 164.79 167.633 167.49 165.773 169.89C163.973 172.29 161.273 174.21 157.673 175.65C154.133 177.09 149.723 177.81 144.443 177.81ZM193.661 177.81C189.521 177.81 185.471 177.33 181.511 176.37C177.611 175.41 174.461 174.21 172.061 172.77L177.191 161.07C179.471 162.45 182.141 163.56 185.201 164.4C188.261 165.18 191.261 165.57 194.201 165.57C197.081 165.57 199.061 165.27 200.141 164.67C201.281 164.07 201.851 163.26 201.851 162.24C201.851 161.28 201.311 160.59 200.231 160.17C199.211 159.69 197.831 159.33 196.091 159.09C194.411 158.85 192.551 158.58 190.511 158.28C188.471 157.98 186.401 157.59 184.301 157.11C182.261 156.57 180.371 155.79 178.631 154.77C176.951 153.69 175.601 152.25 174.581 150.45C173.561 148.65 173.051 146.37 173.051 143.61C173.051 140.49 173.951 137.73 175.751 135.33C177.611 132.87 180.311 130.95 183.851 129.57C187.391 128.13 191.711 127.41 196.811 127.41C200.231 127.41 203.681 127.77 207.161 128.49C210.701 129.15 213.671 130.17 216.071 131.55L210.941 143.16C208.541 141.78 206.141 140.85 203.741 140.37C201.341 139.83 199.061 139.56 196.901 139.56C194.021 139.56 191.981 139.89 190.781 140.55C189.641 141.21 189.071 142.02 189.071 142.98C189.071 143.94 189.581 144.69 190.601 145.23C191.621 145.71 192.971 146.1 194.651 146.4C196.391 146.64 198.281 146.91 200.321 147.21C202.361 147.45 204.401 147.84 206.441 148.38C208.541 148.92 210.431 149.73 212.111 150.81C213.851 151.83 215.231 153.24 216.251 155.04C217.271 156.78 217.781 159.03 217.781 161.79C217.781 164.79 216.851 167.49 214.991 169.89C213.191 172.29 210.491 174.21 206.891 175.65C203.351 177.09 198.941 177.81 193.661 177.81ZM249.63 177.81C244.29 177.81 239.55 176.73 235.41 174.57C231.27 172.41 228 169.44 225.6 165.66C223.26 161.82 222.09 157.44 222.09 152.52C222.09 147.6 223.26 143.25 225.6 139.47C228 135.69 231.27 132.75 235.41 130.65C239.55 128.49 244.29 127.41 249.63 127.41C254.97 127.41 259.71 128.49 263.85 130.65C268.05 132.75 271.32 135.69 273.66 139.47C276 143.25 277.17 147.6 277.17 152.52C277.17 157.44 276 161.82 273.66 165.66C271.32 169.44 268.05 172.41 263.85 174.57C259.71 176.73 254.97 177.81 249.63 177.81ZM249.63 164.22C251.61 164.22 253.35 163.77 254.85 162.87C256.41 161.97 257.64 160.65 258.54 158.91C259.44 157.11 259.89 154.98 259.89 152.52C259.89 150.06 259.44 147.99 258.54 146.31C257.64 144.57 256.41 143.25 254.85 142.35C253.35 141.45 251.61 141 249.63 141C247.71 141 245.97 141.45 244.41 142.35C242.91 143.25 241.68 144.57 240.72 146.31C239.82 147.99 239.37 150.06 239.37 152.52C239.37 154.98 239.82 157.11 240.72 158.91C241.68 160.65 242.91 161.97 244.41 162.87C245.97 163.77 247.71 164.22 249.63 164.22ZM28.42 287.81C23.02 287.81 18.19 286.73 13.93 284.57C9.73 282.41 6.43 279.44 4.03 275.66C1.63 271.82 0.43 267.44 0.43 262.52C0.43 257.6 1.63 253.25 4.03 249.47C6.43 245.69 9.73 242.75 13.93 240.65C18.19 238.49 23.02 237.41 28.42 237.41C33.94 237.41 38.71 238.58 42.73 240.92C46.75 243.26 49.6 246.56 51.28 250.82L38.05 257.57C36.91 255.29 35.5 253.64 33.82 252.62C32.14 251.54 30.31 251 28.33 251C26.35 251 24.55 251.45 22.93 252.35C21.31 253.25 20.02 254.57 19.06 256.31C18.16 257.99 17.71 260.06 17.71 262.52C17.71 265.04 18.16 267.17 19.06 268.91C20.02 270.65 21.31 271.97 22.93 272.87C24.55 273.77 26.35 274.22 28.33 274.22C30.31 274.22 32.14 273.71 33.82 272.69C35.5 271.61 36.91 269.93 38.05 267.65L51.28 274.4C49.6 278.66 46.75 281.96 42.73 284.3C38.71 286.64 33.94 287.81 28.42 287.81ZM78.2385 287.81C74.2785 287.81 70.7085 287.03 67.5285 285.47C64.4085 283.91 61.9485 281.48 60.1485 278.18C58.4085 274.82 57.5385 270.59 57.5385 265.49V238.22H74.6385V262.7C74.6385 266.48 75.3285 269.18 76.7085 270.8C78.1485 272.42 80.1585 273.23 82.7385 273.23C84.4185 273.23 85.9485 272.84 87.3285 272.06C88.7085 271.28 89.8185 270.05 90.6585 268.37C91.4985 266.63 91.9185 264.41 91.9185 261.71V238.22H109.019V287H92.7285V273.23L95.8785 277.1C94.1985 280.7 91.7685 283.4 88.5885 285.2C85.4085 286.94 81.9585 287.81 78.2385 287.81ZM120.033 287V238.22H136.323V252.44L133.893 248.39C135.333 244.73 137.673 242 140.913 240.2C144.153 238.34 148.083 237.41 152.703 237.41V252.8C151.923 252.68 151.233 252.62 150.633 252.62C150.093 252.56 149.493 252.53 148.833 252.53C145.353 252.53 142.533 253.49 140.373 255.41C138.213 257.27 137.133 260.33 137.133 264.59V287H120.033ZM177.665 287.81C173.525 287.81 169.475 287.33 165.515 286.37C161.615 285.41 158.465 284.21 156.065 282.77L161.195 271.07C163.475 272.45 166.145 273.56 169.205 274.4C172.265 275.18 175.265 275.57 178.205 275.57C181.085 275.57 183.065 275.27 184.145 274.67C185.285 274.07 185.855 273.26 185.855 272.24C185.855 271.28 185.315 270.59 184.235 270.17C183.215 269.69 181.835 269.33 180.095 269.09C178.415 268.85 176.555 268.58 174.515 268.28C172.475 267.98 170.405 267.59 168.305 267.11C166.265 266.57 164.375 265.79 162.635 264.77C160.955 263.69 159.605 262.25 158.585 260.45C157.565 258.65 157.055 256.37 157.055 253.61C157.055 250.49 157.955 247.73 159.755 245.33C161.615 242.87 164.315 240.95 167.855 239.57C171.395 238.13 175.715 237.41 180.815 237.41C184.235 237.41 187.685 237.77 191.165 238.49C194.705 239.15 197.675 240.17 200.075 241.55L194.945 253.16C192.545 251.78 190.145 250.85 187.745 250.37C185.345 249.83 183.065 249.56 180.905 249.56C178.025 249.56 175.985 249.89 174.785 250.55C173.645 251.21 173.075 252.02 173.075 252.98C173.075 253.94 173.585 254.69 174.605 255.23C175.625 255.71 176.975 256.1 178.655 256.4C180.395 256.64 182.285 256.91 184.325 257.21C186.365 257.45 188.405 257.84 190.445 258.38C192.545 258.92 194.435 259.73 196.115 260.81C197.855 261.83 199.235 263.24 200.255 265.04C201.275 266.78 201.785 269.03 201.785 271.79C201.785 274.79 200.855 277.49 198.995 279.89C197.195 282.29 194.495 284.21 190.895 285.65C187.355 287.09 182.945 287.81 177.665 287.81ZM233.634 287.81C228.294 287.81 223.554 286.73 219.414 284.57C215.274 282.41 212.004 279.44 209.604 275.66C207.264 271.82 206.094 267.44 206.094 262.52C206.094 257.6 207.264 253.25 209.604 249.47C212.004 245.69 215.274 242.75 219.414 240.65C223.554 238.49 228.294 237.41 233.634 237.41C238.974 237.41 243.714 238.49 247.854 240.65C252.054 242.75 255.324 245.69 257.664 249.47C260.004 253.25 261.174 257.6 261.174 262.52C261.174 267.44 260.004 271.82 257.664 275.66C255.324 279.44 252.054 282.41 247.854 284.57C243.714 286.73 238.974 287.81 233.634 287.81ZM233.634 274.22C235.614 274.22 237.354 273.77 238.854 272.87C240.414 271.97 241.644 270.65 242.544 268.91C243.444 267.11 243.894 264.98 243.894 262.52C243.894 260.06 243.444 257.99 242.544 256.31C241.644 254.57 240.414 253.25 238.854 252.35C237.354 251.45 235.614 251 233.634 251C231.714 251 229.974 251.45 228.414 252.35C226.914 253.25 225.684 254.57 224.724 256.31C223.824 257.99 223.374 260.06 223.374 262.52C223.374 264.98 223.824 267.11 224.724 268.91C225.684 270.65 226.914 271.97 228.414 272.87C229.974 273.77 231.714 274.22 233.634 274.22Z" fill="white"/>
</svg>
